<svg width="248" height="82" viewBox="0 0 248 82" fill="none" xmlns="http://www.w3.org/2000/svg">
<path d="M234.792 18.4138C236.085 18.8997 237.526 18.2459 238.012 16.9535C238.498 15.6611 237.844 14.2195 236.552 13.7336L235.672 16.0737L234.792 18.4138ZM235.579 16.0385L233.512 17.4452L233.958 18.0999L234.699 18.3786L235.579 16.0385ZM234.84 14.9534L236.907 13.5468L236.622 13.1283L236.197 12.8536L234.84 14.9534ZM233.724 14.2325L235.081 12.1327L234.759 11.9245L234.389 11.8225L233.724 14.2325ZM232.436 13.8772L233.101 11.4672L232.956 11.4273L232.808 11.405L232.436 13.8772ZM231.095 13.6756L230.391 16.0745L230.554 16.1225L230.723 16.1478L231.095 13.6756ZM229.836 13.3063L228.115 15.1197L228.553 15.5353L229.132 15.7053L229.836 13.3063ZM228.834 12.3556L230.555 10.5423L229.801 9.82718L228.763 9.85664L228.834 12.3556ZM227.41 12.396L225.559 14.0761L226.332 14.9276L227.481 14.895L227.41 12.396ZM226.436 11.3224L228.287 9.64235L227.752 9.05285L226.975 8.8812L226.436 11.3224ZM225.153 11.0391L225.692 8.59792L225.456 8.54585L225.215 8.53988L225.153 11.0391ZM223.805 11.0058L222.606 13.1995L223.138 13.49L223.743 13.505L223.805 11.0058ZM222.638 10.3678L221.263 12.4558L221.349 12.5123L221.439 12.5615L222.638 10.3678ZM221.487 9.61L222.862 7.52196L222.154 7.05573L221.308 7.11641L221.487 9.61ZM220.123 9.70783L219.413 12.1049L219.849 12.2339L220.302 12.2014L220.123 9.70783ZM218.873 9.33731L217.706 11.5481L217.925 11.6639L218.163 11.7343L218.873 9.33731ZM217.671 8.70294L218.838 6.4921L218.235 6.17381L217.554 6.20567L217.671 8.70294ZM216.333 8.76551L215.828 11.2139L216.136 11.2775L216.45 11.2628L216.333 8.76551ZM215.059 8.50263L215.564 6.05419L215.303 6.00039L215.037 6.00272L215.059 8.50263ZM213.736 8.51424L213.714 6.01433L213.576 6.01554L213.44 6.03183L213.736 8.51424ZM212.393 8.67448L211.046 10.7807L211.8 11.2629L212.689 11.1569L212.393 8.67448ZM211.199 7.91122L212.545 5.80495L211.537 5.1599L210.402 5.5417L211.199 7.91122ZM209.815 8.37687L207.996 10.092L209.094 11.2569L210.612 10.7464L209.815 8.37687ZM208.677 7.17066L210.496 5.45548L209.293 4.17934L207.683 4.87677L208.677 7.17066ZM207.28 7.77593L206.317 10.083L207.299 10.4926L208.274 10.0698L207.28 7.77593ZM206.039 7.25777L207.002 4.95069L206.787 4.86102L206.559 4.81255L206.039 7.25777ZM204.762 6.98593L205.282 4.54071L205.157 4.51406L205.03 4.50033L204.762 6.98593ZM203.466 6.8462L202.828 9.26356L203.011 9.3116L203.198 9.3318L203.466 6.8462ZM202.193 6.51059L202.831 4.09323L202.502 4.00652L202.162 4.01079L202.193 6.51059ZM200.887 6.527L200.855 4.0272L200.4 4.03291L199.976 4.19862L200.887 6.527ZM199.522 7.0606L198.674 9.41239L199.557 9.73097L200.432 9.38897L199.522 7.0606ZM198.262 6.60638L196.852 8.67061L197.115 8.85019L197.414 8.95817L198.262 6.60638ZM197.038 5.76984L198.448 3.70561L197.563 3.10123L196.516 3.32496L197.038 5.76984ZM195.708 6.05387L195.175 8.49651L195.702 8.61139L196.23 8.49875L195.708 6.05387ZM194.428 5.77493L194.96 3.33229L194.614 3.25683L194.261 3.28053L194.428 5.77493ZM193.106 5.86357L192.216 8.19993L192.727 8.39456L193.273 8.35797L193.106 5.86357ZM191.852 5.38603L192.741 3.04967L192.174 2.83357L191.57 2.90191L191.852 5.38603ZM190.531 5.53559L190.278 8.02269L190.545 8.04999L190.813 8.01971L190.531 5.53559ZM189.233 5.40322L189.487 2.91612L189.426 2.90991L189.365 2.90669L189.233 5.40322ZM187.939 5.33501L188.071 2.83848L187.653 2.81647L187.251 2.93153L187.939 5.33501ZM186.6 5.71838L185.485 7.95588L186.354 8.38914L187.288 8.12186L186.6 5.71838ZM185.348 5.09432L186.463 2.85681L186.244 2.74776L186.008 2.68316L185.348 5.09432ZM184.07 4.74414L184.73 2.33298L184.491 2.26758L184.245 2.25026L184.07 4.74414ZM182.769 4.65293L182.944 2.15906L182.156 2.10376L181.479 2.51164L182.769 4.65293ZM181.412 5.4708L179.794 7.37672L181.164 8.53925L182.702 7.61208L181.412 5.4708ZM180.174 4.42011L181.792 2.51418L180.594 1.49757L179.159 2.13556L180.174 4.42011ZM178.838 5.01394L177.557 7.16069L178.669 7.82466L179.853 7.29848L178.838 5.01394ZM177.579 4.26252L178.86 2.11577L178.269 1.76282L177.58 1.76252L177.579 4.26252ZM176.279 4.26196L176.28 1.76196L175.845 1.76178L175.435 1.90885L176.279 4.26196ZM174.946 4.74038L173.941 7.0298L174.853 7.42968L175.79 7.09349L174.946 4.74038ZM173.677 4.1839L174.681 1.89447L173.984 1.58854L173.234 1.72342L173.677 4.1839ZM172.361 4.42082L171.515 6.77346L172.145 6.99983L172.803 6.8813L172.361 4.42082ZM171.083 3.96179L171.929 1.60915L171.653 1.50997L171.362 1.47732L171.083 3.96179ZM169.788 3.8167L170.067 1.33224L169.779 1.30006L169.492 1.33429L169.788 3.8167ZM168.478 3.97298L168.515 6.4727L168.645 6.47075L168.774 6.45539L168.478 3.97298ZM167.175 3.99256L166.465 6.38942L166.831 6.49802L167.213 6.49228L167.175 3.99256ZM165.891 3.61166L166.601 1.2148L165.477 0.881393L164.502 1.53298L165.891 3.61166ZM164.549 4.50812L164.462 7.0066L165.268 7.03467L165.938 6.58679L164.549 4.50812ZM163.25 4.46286L162.086 6.67539L162.592 6.94144L163.163 6.96134L163.25 4.46286ZM161.978 3.79352L163.141 1.58099L162.571 1.2807L161.926 1.29406L161.978 3.79352ZM160.675 3.82051L160.411 6.3066L160.569 6.32325L160.727 6.31998L160.675 3.82051ZM159.379 3.68326L159.09 6.16646L159.103 6.16797L159.116 6.16935L159.379 3.68326ZM158.083 3.53226L158.373 1.04906L157.636 0.963226L156.972 1.2929L158.083 3.53226ZM156.759 4.18944L155.464 6.32751L156.639 7.03995L157.871 6.42879L156.759 4.18944ZM155.485 3.41719L156.78 1.27912L156.072 0.849542L155.246 0.928581L155.485 3.41719ZM154.18 3.54222L153.941 1.05362L153.619 1.08451L153.315 1.19659L154.18 3.54222ZM152.864 4.02715L152.391 6.48192L153.075 6.61389L153.729 6.37279L152.864 4.02715ZM151.571 3.77777L152.045 1.323L151.618 1.24064L151.188 1.30734L151.571 3.77777ZM150.266 3.98037L149.272 6.27441L149.935 6.56161L150.649 6.45079L150.266 3.98037ZM148.98 3.42331L149.973 1.12926L149.866 1.0828L149.755 1.04656L148.98 3.42331ZM147.689 3.00244L148.465 0.625687L147.294 0.24364L146.277 0.939687L147.689 3.00244ZM146.368 3.9073L144.861 5.9019L146.296 6.98645L147.781 5.97005L146.368 3.9073ZM145.088 2.94043L146.596 0.94583L145.999 0.495293L145.254 0.445895L145.088 2.94043ZM143.789 2.85433L143.954 0.359802L143.535 0.332051L143.13 0.442657L143.789 2.85433ZM142.482 3.21135L142.898 5.67639L143.021 5.65572L143.14 5.62303L142.482 3.21135ZM141.178 3.4317L140.114 5.69421L140.823 6.02718L141.595 5.89674L141.178 3.4317ZM139.886 2.82441L140.949 0.561897L140.526 0.36283L140.059 0.330415L139.886 2.82441ZM138.587 2.73419L138.76 0.240195L137.894 0.180058L137.177 0.669621L138.587 2.73419ZM137.275 3.62956L136.344 5.94939L137.583 6.4471L138.685 5.69413L137.275 3.62956ZM135.982 3.10981L136.913 0.789983L136.798 0.743567L136.678 0.708862L135.982 3.10981ZM134.682 2.73281L135.379 0.331862L134.236 -7.86781e-06L133.257 0.678833L134.682 2.73281ZM133.378 3.63775L132.804 6.071L133.888 6.32665L134.803 5.69173L133.378 3.63775ZM132.078 3.33118L131.135 5.64634L131.315 5.71976L131.504 5.76443L132.078 3.33118ZM130.781 2.8024L131.724 0.487242L131.216 0.280047L130.667 0.304981L130.781 2.8024ZM129.478 2.86162L129.365 0.364198L128.842 0.387943L128.373 0.619022L129.478 2.86162ZM128.181 3.50084L127.989 5.9935L128.672 6.04588L129.286 5.74343L128.181 3.50084ZM126.879 3.4009L127.07 0.908231L126.649 0.875939L126.241 0.983491L126.879 3.4009ZM125.583 3.74245L124.287 5.88047L125.195 6.43028L126.22 6.15986L125.583 3.74245ZM124.275 2.94972L125.571 0.811699L125.058 0.50103L124.46 0.456595L124.275 2.94972ZM122.975 2.8531L123.161 0.359977L122.311 0.29682L121.6 0.765621L122.975 2.8531ZM121.683 3.70467L120.469 5.89022L121.794 6.6258L123.059 5.79215L121.683 3.70467ZM120.375 2.97824L121.589 0.792684L120.269 0.0594125L119.005 0.886939L120.375 2.97824ZM119.086 3.82236L119.069 6.3223L119.824 6.32754L120.456 5.91366L119.086 3.82236ZM117.79 3.81337L116.361 5.86425L116.997 6.30793L117.773 6.31331L117.79 3.81337ZM116.467 2.89067L117.896 0.839791L116.917 0.157347L115.771 0.489395L116.467 2.89067ZM115.178 3.26383L115.57 5.73297L115.724 5.70853L115.874 5.66511L115.178 3.26383ZM113.879 3.46993L114.013 5.96636L114.142 5.95942L114.271 5.93907L113.879 3.46993ZM112.585 3.53913L111.711 5.88109L112.199 6.06339L112.719 6.03556L112.585 3.53913ZM111.263 3.04521L112.138 0.703254L110.897 0.239635L109.816 1.00647L111.263 3.04521ZM109.997 3.94345L108.629 6.03565L110.055 6.9683L111.444 5.98219L109.997 3.94345ZM108.658 3.06767L110.027 0.975462L108.925 0.254907L107.708 0.755473L108.658 3.06767ZM107.38 3.59309L107.679 6.07522L108.017 6.03462L108.331 5.90529L107.38 3.59309ZM106.085 3.74884L105.787 1.26672L105.576 1.29202L105.373 1.35239L106.085 3.74884ZM104.802 4.13001L104.755 6.62956L105.142 6.63696L105.514 6.52646L104.802 4.13001ZM103.503 4.10521L102.538 6.41144L102.978 6.59565L103.455 6.60476L103.503 4.10521ZM102.166 3.54582L103.131 1.23959L101.943 0.742487L100.849 1.4211L102.166 3.54582ZM100.915 4.32164L100.33 6.75221L101.345 6.99657L102.232 6.44636L100.915 4.32164ZM99.5881 4.00224L100.173 1.57167L100.117 1.55804L100.059 1.54706L99.5881 4.00224ZM98.2689 3.74902L98.7401 1.29384L98.0951 1.17003L97.4726 1.37922L98.2689 3.74902ZM96.9961 4.17669L96.9991 6.67669L97.4063 6.6762L97.7924 6.54648L96.9961 4.17669ZM95.6892 4.17825L95.6862 1.67825L94.9646 1.67911L94.3544 2.06439L95.6892 4.17825ZM94.4503 4.96052L94.5704 7.45764L95.2282 7.42601L95.7851 7.07438L94.4503 4.96052ZM93.1505 5.02303L92.9356 7.51377L93.1029 7.52821L93.2706 7.52014L93.1505 5.02303ZM91.8365 4.90964L92.0515 2.41889L91.5826 2.37843L91.1311 2.51121L91.8365 4.90964ZM90.5707 5.28194L89.8961 7.68923L90.5874 7.88291L91.2761 7.68036L90.5707 5.28194ZM89.2276 4.9056L89.9021 2.49832L89.182 2.29654L88.4693 2.52335L89.2276 4.9056ZM87.9601 5.30901L87.0936 7.65405L87.8996 7.95185L88.7183 7.69126L87.9601 5.30901ZM86.607 4.80906L87.4735 2.46402L86.9682 2.27733L86.4309 2.31527L86.607 4.80906ZM85.3064 4.90088L85.1303 2.40709L84.5922 2.44508L84.1176 2.70164L85.3064 4.90088ZM84.0687 5.56994L84.9888 7.89448L85.1269 7.83981L85.2576 7.76918L84.0687 5.56994ZM82.819 6.06458L83.0265 8.55595L83.3951 8.52525L83.739 8.38912L82.819 6.06458ZM81.5291 6.17201L80.813 8.56727L81.2657 8.7026L81.7366 8.66338L81.5291 6.17201ZM80.1672 5.76486L80.8832 3.3696L79.8154 3.05038L78.8642 3.63122L80.1672 5.76486ZM78.9494 6.50848L79.0046 9.00787L79.6777 8.993L80.2523 8.64212L78.9494 6.50848ZM77.6443 6.53729L77.5891 4.0379L77.4877 4.04014L77.3869 4.05058L77.6443 6.53729ZM76.3538 6.67086L75.8215 9.11353L76.2128 9.19881L76.6112 9.15757L76.3538 6.67086ZM75.0035 6.3766L75.5359 3.93393L74.5422 3.71739L73.6796 4.25597L75.0035 6.3766ZM73.7976 7.12952L73.2991 9.57931L74.2759 9.77811L75.1216 9.25015L73.7976 7.12952ZM72.4414 6.85353L72.9399 4.40374L72.0865 4.23007L71.3099 4.62421L72.4414 6.85353ZM71.2207 7.47305L71.918 9.87383L72.1431 9.80845L72.3522 9.70237L71.2207 7.47305ZM69.9638 7.83813L68.8008 10.0511L69.6931 10.5201L70.6611 10.2389L69.9638 7.83813ZM68.5238 7.08135L69.6868 4.86834L68.2865 4.13244L67.0219 5.08276L68.5238 7.08135ZM67.3524 7.96156L68.263 10.2898L68.5812 10.1654L68.8543 9.96015L67.3524 7.96156ZM66.1184 8.44415L65.7179 10.9119L66.3925 11.0213L67.029 10.7724L66.1184 8.44415ZM64.7617 8.22396L65.1622 5.75625L64.4142 5.63485L63.7247 5.94922L64.7617 8.22396ZM63.5446 8.77888L63.7733 11.2684L64.1957 11.2296L64.5816 11.0536L63.5446 8.77888ZM62.2438 8.89838L62.0151 6.40886L61.9124 6.41829L61.8109 6.43615L62.2438 8.89838ZM60.9617 9.12383L60.9234 11.6235L61.1608 11.6272L61.3947 11.5861L60.9617 9.12383ZM59.6356 9.10353L59.6738 6.60382L58.9128 6.59217L58.2743 7.00663L59.6356 9.10353ZM58.4617 9.86562L57.802 12.277L58.883 12.5727L59.8229 11.9625L58.4617 9.86562ZM57.0571 9.48142L57.7167 7.07L57.1223 6.90742L56.5205 7.03969L57.0571 9.48142ZM55.7898 9.75995L55.9705 12.2534L56.1503 12.2404L56.3264 12.2017L55.7898 9.75995ZM54.4758 9.85518L54.2951 7.36172L53.9222 7.38875L53.5735 7.52367L54.4758 9.85518ZM53.2472 10.3306L53.8709 12.7516L54.0128 12.715L54.1495 12.6621L53.2472 10.3306ZM51.9869 10.6552L52.3274 13.1319L52.4706 13.1123L52.6105 13.0762L51.9869 10.6552ZM50.688 10.8338L50.3475 8.35713L50.3071 8.36268L50.267 8.36954L50.688 10.8338ZM49.3954 11.0547L48.9743 8.5904L48.9011 8.60291L48.8287 8.61975L49.3954 11.0547ZM48.1152 11.3526L47.5485 8.91768L46.8176 9.08779L46.3012 9.63232L48.1152 11.3526ZM47.0959 12.4274L47.6284 14.87L48.3804 14.7061L48.9099 14.1477L47.0959 12.4274ZM45.8191 12.7057L45.7929 15.2056L46.0755 15.2086L46.3516 15.1484L45.8191 12.7057ZM44.4081 12.6909L44.4344 10.191L43.5703 10.182L42.885 10.7085L44.4081 12.6909ZM43.3389 13.5124L41.8158 11.53L41.7867 11.5523L41.7582 11.5755L43.3389 13.5124ZM42.2941 14.3651L42.317 16.865L43.1948 16.857L43.8748 16.3019L42.2941 14.3651ZM40.8728 14.3782L40.8499 11.8783L40.2211 11.884L39.6699 12.1866L40.8728 14.3782ZM39.726 15.0076L38.523 12.8161L38.0999 13.0484L37.7936 13.4215L39.726 15.0076ZM38.818 16.1138L40.2817 18.1406L40.5446 17.9507L40.7504 17.7L38.818 16.1138ZM37.756 16.8808L38.8798 19.114L39.058 19.0243L39.2197 18.9075L37.756 16.8808ZM36.6005 17.4622L35.4768 15.229L35.4479 15.2436L35.4194 15.2588L36.6005 17.4622ZM35.4611 18.073L35.8604 20.5409L36.2734 20.4741L36.6422 20.2764L35.4611 18.073ZM34.0996 18.2933L33.7003 15.8254L33.232 15.9011L32.824 16.1432L34.0996 18.2933ZM32.9815 18.9566L33.7737 21.3278L34.0272 21.2431L34.2571 21.1067L32.9815 18.9566ZM31.721 19.3777L30.9288 17.0065L30.8664 17.0274L30.8052 17.0515L31.721 19.3777ZM30.4917 19.8617L29.5759 17.5355L28.9951 17.7641L28.5899 18.239L30.4917 19.8617ZM29.6027 20.9036L30.6051 23.1939L31.1315 22.9635L31.5045 22.5263L29.6027 20.9036ZM28.3973 21.4312L27.3949 19.1409L27.0202 19.3049L26.7172 19.5799L28.3973 21.4312ZM27.4202 22.3179L25.7401 20.4667L25.573 20.6183L25.4357 20.7975L27.4202 22.3179ZM26.5826 23.4112L26.4448 25.9074L27.7637 25.9802L28.5671 24.9317L26.5826 23.4112ZM24.9688 23.3221L25.1066 20.8259L23.9894 20.7642L23.1991 21.5562L24.9688 23.3221ZM24.0294 24.2634L22.2598 22.4975L22.1716 22.5859L22.0926 22.6826L24.0294 24.2634ZM23.169 25.3176L23.8788 27.7147L24.6182 27.4958L25.1058 26.8984L23.169 25.3176ZM21.8615 25.7048L21.1517 23.3077L20.2521 23.574L19.7499 24.3665L21.8615 25.7048ZM21.1165 26.8803L21.5239 29.3469L22.6287 29.1644L23.2282 28.2186L21.1165 26.8803ZM19.6459 27.1232L19.2386 24.6566L18.5328 24.7732L17.9955 25.2454L19.6459 27.1232ZM18.664 27.9862L17.0136 26.1084L17.0043 26.1166L18.664 27.9862ZM17.6874 28.8531L19.1659 30.8691L19.2599 30.8001L19.3471 30.7228L17.6874 28.8531ZM16.6318 29.6273L15.1533 27.6114L14.8466 27.8363L14.6207 28.1423L16.6318 29.6273ZM15.8402 30.6993L17.5292 32.5426L17.7076 32.3791L17.8514 32.1844L15.8402 30.6993ZM14.8804 31.5789L13.1914 29.7357L12.932 29.9734L12.7482 30.2735L14.8804 31.5789ZM14.1728 32.7347L16.2352 34.1476L16.2714 34.0947L16.3049 34.0401L14.1728 32.7347ZM13.4198 33.8338L14.0919 36.2418L14.9681 35.9973L15.4823 35.2467L13.4198 33.8338ZM12.0104 34.2272L11.3383 31.8192L10.1334 32.1555L9.6802 33.3214L12.0104 34.2272ZM11.4889 35.5686L11.9744 38.021L13.3215 37.7543L13.8191 36.4743L11.4889 35.5686ZM9.97674 35.8679L9.49133 33.4155L8.25857 33.6595L7.71895 34.7944L9.97674 35.8679ZM9.38058 37.1217L10.3904 39.4087L11.2397 39.0337L11.6384 38.1952L9.38058 37.1217ZM8.10685 37.6841L7.09701 35.3972L6.54145 35.6425L6.16035 36.1153L8.10685 37.6841ZM7.28401 38.7051L5.33751 37.1363L5.14495 37.3752L5.01588 37.6536L7.28401 38.7051ZM6.70964 39.944L7.87619 42.1552L8.62275 41.7613L8.97776 40.9955L6.70964 39.944ZM5.41154 40.6289L4.24499 38.4178L2.78891 39.1859L2.91941 40.8271L5.41154 40.6289ZM5.5366 42.2016L7.82438 43.2096L8.07874 42.6323L8.02874 42.0035L5.5366 42.2016ZM5.02503 43.3627L6.90415 45.0116L7.15777 44.7226L7.31281 44.3707L5.02503 43.3627ZM4.11634 44.3983L2.23722 42.7494L1.62503 43.447L1.61644 44.3751L4.11634 44.3983ZM4.10384 45.7491L5.81779 47.5691L6.59386 46.8382L6.60373 45.7722L4.10384 45.7491ZM2.97861 46.8088L1.26466 44.9888L0.559429 45.6529L0.485836 46.6188L2.97861 46.8088ZM2.87752 48.1356L0.384748 47.9457L0.333651 48.6163L0.625962 49.2221L2.87752 48.1356ZM3.56175 49.5535L5.51502 51.1139L6.49724 49.8843L5.81331 48.467L3.56175 49.5535ZM2.60486 50.7514L0.651594 49.191L0.000116825 50.0065L0.121954 51.0432L2.60486 50.7514ZM2.75997 52.071L5.23933 52.3916L5.27889 52.0856L5.24288 51.7792L2.75997 52.071ZM2.59056 53.3813L0.111197 53.0607L0.0313964 53.6779L0.250261 54.2605L2.59056 53.3813ZM3.06798 54.6521L5.56413 54.7907L5.59331 54.2654L5.40828 53.7729L3.06798 54.6521ZM2.99464 55.9722L0.498488 55.8336L0.458786 56.5482L0.803329 57.1756L2.99464 55.9722ZM3.63913 57.1458L6.13337 57.3154L6.18306 56.5845L5.83044 55.9424L3.63913 57.1458ZM3.54368 58.5499L1.04943 58.3804L0.977595 59.4371L1.68674 60.2238L3.54368 58.5499ZM4.46017 59.5666L6.57569 58.2345L6.4611 58.0525L6.3171 57.8928L4.46017 59.5666ZM5.14468 60.6537L7.58621 60.1162L7.49249 59.6905L7.2602 59.3216L5.14468 60.6537ZM5.44997 62.0405L3.00843 62.578L3.16847 63.3049L3.70008 63.8259L5.44997 62.0405ZM6.39728 62.9689L4.64739 64.7544L4.66352 64.7702L4.67993 64.7857L6.39728 62.9689ZM7.35008 63.8696L9.36991 62.3964L9.23447 62.2107L9.06743 62.0528L7.35008 63.8696ZM8.12855 64.9369L6.10871 66.4101L6.3242 66.7055L6.61529 66.9269L8.12855 64.9369ZM9.17326 65.7313L10.8248 63.8545L10.7577 63.7955L10.6865 63.7414L9.17326 65.7313ZM10.15 66.5908L12.1049 65.0325L11.9673 64.8599L11.8015 64.714L10.15 66.5908ZM10.965 67.6133L9.01006 69.1716L9.22056 69.4357L9.49358 69.6344L10.965 67.6133ZM12.0302 68.3888L13.8073 66.6304L13.6651 66.4867L13.5016 66.3677L12.0302 68.3888ZM12.95 69.3183L11.1729 71.0767L11.4874 71.3945L11.8925 71.5837L12.95 69.3183ZM14.1613 69.8838L15.3125 67.6646L15.2661 67.6405L15.2188 67.6184L14.1613 69.8838ZM15.3115 70.4804L17.3134 68.983L16.9707 68.5248L16.4627 68.2613L15.3115 70.4804ZM16.1412 71.5898L14.1392 73.0872L14.3142 73.3211L14.5384 73.5083L16.1412 71.5898ZM17.1648 72.4449L15.5619 74.3635L16.4046 75.0674L17.493 74.9232L17.1648 72.4449ZM18.7246 72.2383L20.3672 70.3536L19.5158 69.6116L18.3963 69.7599L18.7246 72.2383ZM19.7368 73.1204L21.609 71.4637L21.5016 71.3422L21.3793 71.2357L19.7368 73.1204ZM20.689 74.1965L18.8167 75.8532L19.1457 76.225L19.5917 76.4428L20.689 74.1965ZM21.8645 74.7708L20.7672 77.0171L21.4834 77.3669L22.2698 77.2377L21.8645 74.7708ZM23.3698 74.5234L24.6293 72.3639L23.8522 71.9107L22.9645 72.0565L23.3698 74.5234ZM24.5023 75.1839L23.2429 77.3435L23.7341 77.63L24.301 77.6758L24.5023 75.1839ZM25.8171 75.2902L27.5911 73.5287L26.9398 72.8727L26.0184 72.7983L25.8171 75.2902ZM26.8843 76.365L25.1103 78.1265L25.6039 78.6236L26.2839 78.7919L26.8843 76.365ZM28.1638 76.6816L27.5634 79.1084L27.6365 79.1265L27.7105 79.1401L28.1638 76.6816ZM29.4604 76.9206L29.0071 79.3792L29.0417 79.3855L29.0765 79.391L29.4604 76.9206ZM30.7566 77.122L30.3727 79.5924L31.3053 79.7373L32.1009 79.2298L30.7566 77.122ZM32.163 76.225L32.5549 73.7559L31.6182 73.6073L30.8187 74.1172L32.163 76.225ZM33.4414 76.4279L34.968 74.4481L34.463 74.0587L33.8333 73.9588L33.4414 76.4279ZM34.6647 77.3712L33.1382 79.351L33.6353 79.7343L34.2546 79.8373L34.6647 77.3712ZM35.9574 77.5862L35.5472 80.0523L35.7965 80.0938L36.0491 80.0845L35.9574 77.5862ZM37.2628 77.5382L37.3545 80.0366L37.461 80.0326L37.5667 80.0197L37.2628 77.5382ZM38.5758 77.3774L39.1979 74.9561L38.7406 74.8386L38.2719 74.896L38.5758 77.3774ZM39.8598 77.7073L39.2377 80.1286L40.1987 80.3755L41.0675 79.8962L39.8598 77.7073ZM41.2008 76.9674L41.429 74.4778L40.6649 74.4078L39.9931 74.7784L41.2008 76.9674ZM42.4945 77.0859L43.7435 74.9203L43.2686 74.6464L42.7227 74.5964L42.4945 77.0859ZM43.762 77.817L42.513 79.9826L43.1257 80.3359L43.8326 80.316L43.762 77.817ZM45.0665 77.7801L45.6352 75.3456L45.3197 75.272L44.996 75.2811L45.0665 77.7801ZM46.3599 78.0822L45.7913 80.5167L46.7581 80.7425L47.6164 80.2436L46.3599 78.0822ZM47.6923 77.3077L48.9408 75.1417L47.687 74.419L46.4359 75.1463L47.6923 77.3077ZM48.9615 78.0393L47.713 80.2052L48.0922 80.4238L48.5231 80.5005L48.9615 78.0393ZM50.2545 78.2696L49.8161 80.7308L50.8437 80.9139L51.6964 80.3118L50.2545 78.2696ZM51.5878 77.3282L51.9548 74.8552L50.964 74.7082L50.1458 75.2859L51.5878 77.3282ZM52.8829 77.5204L52.5158 79.9933L52.7904 80.034L53.0672 80.0136L52.8829 77.5204ZM54.1806 77.4244L55.5903 75.3597L54.8682 74.8668L53.9963 74.9312L54.1806 77.4244ZM55.463 78.2999L54.0533 80.3646L55.3536 81.2524L56.716 80.4632L55.463 78.2999ZM56.7818 77.536L57.7683 75.2389L56.6149 74.7436L55.5288 75.3727L56.7818 77.536ZM58.0664 78.0876L57.08 80.3848L57.3677 80.5084L57.677 80.5571L58.0664 78.0876ZM59.3681 78.2929L58.9787 80.7624L59.6619 80.8701L60.3033 80.6114L59.3681 78.2929ZM60.6746 77.7659L60.6919 75.266L60.1978 75.2626L59.7395 75.4474L60.6746 77.7659ZM61.9743 77.7749L62.239 75.289L62.1156 75.2758L61.9916 75.275L61.9743 77.7749ZM63.2758 77.9135L63.0112 80.3994L63.2195 80.4216L63.4286 80.4088L63.2758 77.9135ZM64.5725 77.8341L64.7253 80.3294L64.8905 80.3193L65.0529 80.2875L64.5725 77.8341ZM65.8811 77.5778L66.7485 75.2331L66.0898 74.9895L65.4007 75.1244L65.8811 77.5778ZM67.1703 78.0547L66.3029 80.3995L66.4891 80.4683L66.6838 80.5069L67.1703 78.0547ZM68.4701 78.3126L67.9836 80.7648L68.1171 80.7913L68.2527 80.8032L68.4701 78.3126ZM69.7681 78.4259L69.5507 80.9165L69.7667 80.9353L69.9828 80.9167L69.7681 78.4259ZM71.0696 78.3138L71.2843 80.8045L71.6663 80.7716L72.0209 80.6257L71.0696 78.3138ZM72.3749 77.7767L73.5989 75.5968L72.5432 75.004L71.4236 75.4647L72.3749 77.7767ZM73.6685 78.503L72.4446 80.6829L73.4393 81.2414L74.5131 80.856L73.6685 78.503ZM74.9739 78.0345L75.5718 75.607L74.8393 75.4266L74.1294 75.6814L74.9739 78.0345ZM76.27 78.3536L75.6721 80.7811L76.3701 80.953L77.0527 80.7279L76.27 78.3536ZM77.5749 77.9234L78.2791 75.5247L77.5318 75.3053L76.7922 75.5491L77.5749 77.9234ZM78.8707 78.3038L78.1665 80.7026L78.4258 80.7787L78.6955 80.7977L78.8707 78.3038ZM80.1743 78.3954L79.9991 80.8893L80.7061 80.9389L81.334 80.6102L80.1743 78.3954ZM81.4715 77.7162L82.3045 75.359L81.2771 74.996L80.3118 75.5014L81.4715 77.7162ZM82.7748 78.1768L81.9419 80.5339L82.4023 80.6966L82.89 80.6741L82.7748 78.1768ZM84.0716 78.117L84.1868 80.6143L84.29 80.6095L84.3924 80.5963L84.0716 78.117ZM85.3743 77.9484L85.6952 80.4277L85.6989 80.4272L85.3743 77.9484ZM86.6707 77.7786L87.4258 75.3954L86.8966 75.2277L86.3461 75.2998L86.6707 77.7786ZM87.9749 78.1918L87.2198 80.5751L87.6647 80.716L88.1304 80.687L87.9749 78.1918ZM89.2721 78.111L90.1782 75.7809L89.6655 75.5816L89.1165 75.6158L89.2721 78.111ZM90.5775 78.6186L89.6714 80.9486L90.6969 81.3474L91.6836 80.8606L90.5775 78.6186ZM91.8715 77.9802L91.9714 75.4822L91.3358 75.4567L90.7654 75.7382L91.8715 77.9802ZM93.1735 78.0322L93.0736 80.5302L93.4061 80.5435L93.7305 80.4694L93.1735 78.0322ZM94.4695 77.736L95.4324 75.4289L94.6932 75.1204L93.9125 75.2989L94.4695 77.736ZM95.7758 78.2812L94.8129 80.5884L95.1132 80.7137L95.4355 80.758L95.7758 78.2812ZM97.0772 78.4601L96.7369 80.9368L97.3062 81.015L97.8525 80.8368L97.0772 78.4601ZM98.3733 78.0373L99.1486 80.4141L99.1864 80.4018L99.2238 80.3882L98.3733 78.0373ZM99.667 77.5694L100.047 75.0985L99.4166 75.0014L98.8166 75.2185L99.667 77.5694ZM100.97 77.7699L101.42 75.3107L101.385 75.3044L101.35 75.299L100.97 77.7699ZM102.273 78.0084L101.823 80.4676L101.947 80.4903L102.073 80.5004L102.273 78.0084ZM103.575 78.113L103.375 80.605L103.846 80.6429L104.298 80.5061L103.575 78.113ZM104.869 77.722L106.144 75.5716L105.198 75.0108L104.146 75.3289L104.869 77.722ZM106.183 78.5012L104.908 80.6516L106.191 81.4123L107.47 80.6445L106.183 78.5012ZM107.469 77.7289L108.521 75.461L107.319 74.9033L106.182 75.5856L107.469 77.7289ZM108.782 78.3376L107.73 80.6056L109.068 81.2262L110.258 80.3552L108.782 78.3376ZM110.063 77.4003L110.737 74.993L109.567 74.6652L108.586 75.3828L110.063 77.4003ZM111.371 77.7667L110.696 80.1741L111.182 80.3101L111.682 80.2473L111.371 77.7667ZM112.667 77.604L113.71 75.3319L113.062 75.0347L112.356 75.1235L112.667 77.604ZM113.983 78.2078L112.94 80.4799L114.003 80.9678L115.058 80.4645L113.983 78.2078ZM115.267 77.5954L114.901 75.1224L114.53 75.1773L114.191 75.3388L115.267 77.5954ZM116.563 77.4035L117.13 74.9688L116.667 74.8608L116.197 74.9305L116.563 77.4035ZM117.871 77.7083L117.303 80.143L117.533 80.1964L117.768 80.2061L117.871 77.7083ZM119.174 77.7621L119.071 80.26L119.546 80.2796L119.995 80.1237L119.174 77.7621ZM120.46 77.3156L120.91 74.8566L120.262 74.7378L119.639 74.9541L120.46 77.3156ZM121.77 77.5558L121.319 80.0148L121.619 80.0698L121.923 80.0511L121.77 77.5558ZM123.066 77.4761L123.843 75.0999L123.389 74.9515L122.912 74.9808L123.066 77.4761ZM124.384 77.907L123.607 80.2833L124.655 80.6261L125.615 80.0826L124.384 77.907ZM125.657 77.1863L126.48 74.8256L125.411 74.453L124.425 75.0107L125.657 77.1863ZM126.978 77.6467L126.155 80.0074L126.332 80.0692L126.517 80.1038L126.978 77.6467ZM128.286 77.8923L127.825 80.3493L128.342 80.4463L128.854 80.327L128.286 77.8923ZM129.579 77.591L130.146 80.0257L130.452 79.9543L130.732 79.8092L129.579 77.591ZM130.849 76.9303L132.145 74.7924L130.943 74.0639L129.696 74.7121L130.849 76.9303ZM132.189 77.742L130.893 79.8799L131.666 80.3484L132.559 80.2144L132.189 77.742ZM133.479 77.5485L133.85 80.0209L134.134 79.9783L134.401 79.8724L133.479 77.5485ZM134.76 77.0404L134.476 74.5565L134.147 74.5942L133.839 74.7165L134.76 77.0404ZM136.051 76.8928L136.335 79.3766L136.629 79.343L136.908 79.2416L136.051 76.8928ZM137.333 76.4257L137.7 73.9527L137.072 73.8597L136.477 74.0769L137.333 76.4257ZM138.64 76.6195L139.454 74.2557L139.235 74.1805L139.007 74.1466L138.64 76.6195ZM139.969 77.0772L139.155 79.441L139.59 79.5905L140.049 79.576L139.969 77.0772ZM141.266 77.0361L141.345 79.5349L141.916 79.5168L142.422 79.2528L141.266 77.0361ZM142.535 76.3744L142.312 73.8844L141.818 73.9285L141.379 74.1577L142.535 76.3744ZM143.827 76.2587L144.05 78.7487L144.131 78.7415L144.21 78.7292L143.827 76.2587ZM145.12 76.0585L145.229 73.5608L144.981 73.5501L144.737 73.588L145.12 76.0585ZM146.423 76.1153L146.913 73.6637L146.724 73.6261L146.532 73.6177L146.423 76.1153ZM147.743 76.3786L147.253 78.8302L147.587 78.8967L147.925 78.8719L147.743 76.3786ZM149.039 76.2836L148.902 73.7873L148.879 73.7886L148.856 73.7903L149.039 76.2836ZM150.336 76.2124L150.473 78.7086L150.86 78.6874L151.223 78.5501L150.336 76.2124ZM151.609 75.7301L152.537 73.4087L151.633 73.0474L150.723 73.3924L151.609 75.7301ZM152.944 76.2639L152.017 78.5854L152.253 78.68L152.505 78.7249L152.944 76.2639ZM154.268 76.5005L153.828 78.9615L154.27 79.0405L154.712 78.9608L154.268 76.5005ZM155.552 76.2688L155.996 78.7291L156.36 78.6634L156.689 78.4953L155.552 76.2688ZM156.812 75.6252L157.406 73.1968L156.503 72.976L155.675 73.3987L156.812 75.6252ZM158.139 75.9497L157.545 78.3781L158.312 78.5656L159.047 78.2788L158.139 75.9497ZM159.405 75.4559L159.417 72.9559L158.94 72.9538L158.497 73.1267L159.405 75.4559ZM160.711 75.4618L161.337 73.0415L161.035 72.9633L160.722 72.9618L160.711 75.4618ZM162.038 75.8049L161.412 78.2253L162.597 78.5319L163.566 77.7832L162.038 75.8049ZM163.27 74.8526L164.415 72.6301L163.001 71.9015L161.742 72.8743L163.27 74.8526ZM164.631 75.5533L163.486 77.7757L164.309 78.2001L165.211 77.9851L164.631 75.5533ZM165.909 75.2484L166.276 72.7755L165.799 72.7046L165.329 72.8166L165.909 75.2484ZM167.234 75.4449L166.867 77.9179L167.436 78.0024L167.985 77.8293L167.234 75.4449ZM168.502 75.0454L169.253 77.4298L169.612 77.3165L169.923 77.1023L168.502 75.0454ZM169.733 74.1946L170.773 71.9209L169.481 71.3304L168.312 72.1377L169.733 74.1946ZM171.095 74.8174L170.056 77.091L170.869 77.4629L171.734 77.2344L171.095 74.8174ZM172.366 74.4815L172.183 71.9883L171.952 72.0053L171.728 72.0645L172.366 74.4815ZM173.666 74.3858L173.942 71.901L173.712 71.8756L173.482 71.8925L173.666 74.3858ZM174.987 74.5325L174.711 77.0173L174.731 77.0194L174.75 77.0213L174.987 74.5325ZM176.303 74.658L176.066 77.1467L176.865 77.2229L177.56 76.8193L176.303 74.658ZM177.54 73.9391L177.332 71.4478L176.77 71.4947L176.283 71.7778L177.54 73.9391ZM178.838 73.8307L178.915 71.3319L178.772 71.3275L178.63 71.3394L178.838 73.8307ZM180.148 73.871L180.071 76.3698L180.636 76.3872L181.154 76.1595L180.148 73.871ZM181.393 73.3234L182.459 71.062L181.429 70.5765L180.387 71.0349L181.393 73.3234ZM182.774 73.9742L181.708 76.2356L182.507 76.6123L183.366 76.4032L182.774 73.9742ZM184.051 73.6633L184.642 76.0923L184.913 76.0264L185.162 75.9027L184.051 73.6633ZM185.29 73.0482L186.173 70.7092L185.154 70.3248L184.179 70.8088L185.29 73.0482ZM186.655 73.5633L185.772 75.9023L186.908 76.3308L187.947 75.7035L186.655 73.5633ZM187.876 72.8261L186.809 70.5654L186.693 70.6199L186.584 70.6859L187.876 72.8261ZM189.118 72.2397L190.232 70.0015L189.147 69.4616L188.051 69.979L189.118 72.2397ZM190.513 72.9337L189.399 75.1719L189.951 75.4466L190.568 75.4331L190.513 72.9337ZM191.821 72.9049L191.876 75.4043L192.84 75.3831L193.54 74.72L191.821 72.9049ZM192.992 71.7955L192.957 69.2958L191.982 69.3097L191.273 69.9804L192.992 71.7955ZM194.299 71.7768L194.335 74.2766L194.685 74.2716L195.02 74.1708L194.299 71.7768ZM195.559 71.3979L196.071 68.9509L195.448 68.8205L194.838 69.0039L195.559 71.3979ZM196.908 71.6802L196.395 74.1272L196.554 74.1605L196.716 74.1729L196.908 71.6802ZM198.234 71.7819L198.043 74.2746L199.021 74.3497L199.79 73.7388L198.234 71.7819ZM199.408 70.8484L200.066 68.4365L198.844 68.1032L197.852 68.8916L199.408 70.8484ZM200.779 71.2224L200.121 73.6343L200.381 73.7052L200.65 73.7191L200.779 71.2224ZM202.109 71.2909L201.981 73.7876L202.239 73.8009L202.494 73.7612L202.109 71.2909ZM203.394 71.091L203.779 73.5613L204.224 73.492L204.617 73.2716L203.394 71.091ZM204.598 70.416L203.781 68.0533L203.57 68.1262L203.376 68.2354L204.598 70.416ZM205.838 69.9873L205.728 67.4897L205.365 67.5058L205.021 67.6245L205.838 69.9873ZM207.15 69.9292L207.26 72.4268L207.317 72.4243L207.373 72.4192L207.15 69.9292ZM208.451 69.8124L208.674 72.3024L208.832 72.2883L208.987 72.2543L208.451 69.8124ZM209.719 69.5339L209.388 67.0559L209.285 67.0697L209.183 67.0921L209.719 69.5339ZM211.016 69.3609L211.346 71.8389L212.017 71.7494L212.55 71.3343L211.016 69.3609ZM212.133 68.4917L211.916 66.0011L211.181 66.0651L210.598 66.5183L212.133 68.4917ZM213.444 68.3776L213.661 70.8682L213.921 70.8457L214.17 70.77L213.444 68.3776ZM214.684 68.0017L214.902 65.5112L214.421 65.469L213.958 65.6093L214.684 68.0017ZM216.087 68.1248L215.869 70.6152L217.147 70.7273L217.983 69.7541L216.087 68.1248ZM217.075 66.9749L217.471 64.5064L216.09 64.2851L215.179 65.3455L217.075 66.9749ZM218.53 67.208L218.135 69.6765L219.517 69.8981L220.429 68.8349L218.53 67.208ZM219.507 66.0684L219.223 63.5846L218.248 63.6962L217.609 64.4415L219.507 66.0684ZM220.83 65.9172L221.114 68.401L221.262 68.384L221.407 68.3495L220.83 65.9172ZM222.105 65.6142L222.683 68.0465L223.002 67.9707L223.291 67.8151L222.105 65.6142ZM223.257 64.9932L224.443 67.1941L224.588 67.1161L224.721 67.0198L223.257 64.9932ZM224.342 64.2096L224.531 61.7167L223.619 61.6476L222.878 62.183L224.342 64.2096ZM225.787 64.3191L225.598 66.8119L226.698 66.8953L227.501 66.1389L225.787 64.3191ZM226.798 63.3672L227.1 60.8855L225.937 60.7438L225.083 61.5474L226.798 63.3672ZM228.292 63.5493L227.99 66.0309L228.722 66.1201L229.385 65.7976L228.292 63.5493ZM229.465 62.9792L228.719 60.5928L228.54 60.6487L228.371 60.7308L229.465 62.9792ZM230.723 62.5862L231.468 64.9726L232.385 64.6865L232.874 63.8605L230.723 62.5862ZM231.519 61.242L231.39 58.7454L230.052 58.8148L229.369 59.9678L231.519 61.242ZM232.939 61.1684L233.068 63.6651L234.385 63.5968L235.072 62.4719L232.939 61.1684ZM233.726 59.8806L233.867 57.3846L232.373 57.2998L231.592 58.5771L233.726 59.8806ZM235.261 59.9677L235.119 62.4637L236.602 62.5479L237.385 61.2851L235.261 59.9677ZM236.027 58.7316L234.797 56.5554L234.24 56.8704L233.902 57.4142L236.027 58.7316ZM237.138 58.1037L238.368 60.2799L238.524 60.1918L238.666 60.0824L237.138 58.1037ZM238.152 57.3207L239.68 59.2993L239.814 59.1958L239.933 59.075L238.152 57.3207ZM239.054 56.4047L237.866 54.2048L237.536 54.3831L237.273 54.6503L239.054 56.4047ZM240.273 55.7467L241.46 57.9465L242.327 57.4787L242.641 56.5458L240.273 55.7467ZM240.714 54.437L239.572 52.2135L238.67 52.677L238.346 53.6378L240.714 54.437ZM242.027 53.762L243.17 55.9855L244.412 55.3471L244.52 53.9548L242.027 53.762ZM242.141 52.2906L240.012 50.981L239.695 51.4956L239.649 52.0978L242.141 52.2906ZM242.818 51.1903L240.932 49.549L240.796 49.7048L240.688 49.8807L242.818 51.1903ZM243.706 50.1693L245.592 51.8106L246.221 51.0882L246.206 50.1305L243.706 50.1693ZM243.685 48.7688L241.202 48.4789L241.182 48.6427L241.185 48.8076L243.685 48.7688ZM243.832 47.5034L241.868 45.9566L241.431 46.5117L241.349 47.2135L243.832 47.5034ZM244.727 46.3678L246.691 47.9146L247.364 47.0594L247.197 45.9838L244.727 46.3678ZM244.52 45.0384L242.03 45.2627L242.037 45.3429L242.05 45.4225L244.52 45.0384ZM244.404 43.7464L241.907 43.8675L241.909 43.9192L241.914 43.9707L244.404 43.7464ZM244.342 42.4648L242.098 41.3628L241.813 41.9418L241.845 42.586L244.342 42.4648ZM244.99 41.1445L247.234 42.2464L247.457 41.7915L247.486 41.2854L244.99 41.1445ZM245.064 39.8259L247.56 39.9668L247.585 39.5385L247.465 39.1266L245.064 39.8259ZM244.692 38.547L247.092 37.8477L247.017 37.5908L246.89 37.3555L244.692 38.547ZM244.028 37.3224L241.688 36.4417L241.286 37.5102L241.83 38.5139L244.028 37.3224ZM244.552 35.9302L246.892 36.8109L247.431 35.3797L246.402 34.2482L244.552 35.9302ZM243.513 34.7875L241.129 34.0351L240.696 35.406L241.663 36.4695L243.513 34.7875ZM243.956 33.3829L246.34 34.1353L246.514 33.5857L246.429 33.0156L243.956 33.3829ZM243.764 32.0895L246.237 31.7223L246.113 30.8852L245.506 30.2957L243.764 32.0895ZM242.652 31.0096L240.186 30.6007L239.971 31.8918L240.91 32.8034L242.652 31.0096ZM242.882 29.6196L245.349 30.0285L245.39 29.782L245.381 29.5322L242.882 29.6196ZM242.836 28.2853L245.334 28.198L245.303 27.2987L244.705 26.6258L242.836 28.2853ZM241.875 27.2027L239.386 27.439L239.463 28.2517L240.005 28.8623L241.875 27.2027ZM241.75 25.8872L244.239 25.651L244.194 25.176L243.977 24.7509L241.75 25.8872ZM241.152 24.7149L238.682 24.3307L238.557 25.1303L238.925 25.8512L241.152 24.7149ZM241.379 23.2547L243.849 23.6389L244.049 22.3551L243.113 21.4539L241.379 23.2547ZM240.348 22.2622L237.867 22.5692L237.976 23.4485L238.614 24.063L240.348 22.2622ZM240.18 20.9028L242.661 20.5959L242.523 19.4797L241.596 18.8426L240.18 20.9028ZM239.026 20.1094L236.637 20.8448L236.893 21.6766L237.61 22.1696L239.026 20.1094ZM238.615 18.7743L241.004 18.0389L240.844 17.5163L240.479 17.1086L238.615 18.7743ZM238.026 18.1145L239.89 16.4488L238.228 14.5885L236.364 16.2467L238.026 18.1145ZM236.209 16.3842C235.178 17.3019 235.086 18.8821 236.003 19.9137C236.921 20.9452 238.501 21.0375 239.533 20.1197L237.871 18.2519L236.209 16.3842ZM235.672 16.0737L236.552 13.7336L236.458 13.6984L235.579 16.0385L234.699 18.3786L234.792 18.4138L235.672 16.0737ZM235.579 16.0385L237.645 14.6319L236.907 13.5468L234.84 14.9534L232.773 16.3601L233.512 17.4452L235.579 16.0385ZM234.84 14.9534L236.197 12.8536L235.081 12.1327L233.724 14.2325L232.368 16.3323L233.483 17.0532L234.84 14.9534ZM233.724 14.2325L234.389 11.8225L233.101 11.4672L232.436 13.8772L231.772 16.2872L233.06 16.6425L233.724 14.2325ZM232.436 13.8772L232.808 11.405L231.466 11.2033L231.095 13.6756L230.723 16.1478L232.065 16.3494L232.436 13.8772ZM231.095 13.6756L231.798 11.2766L230.539 10.9074L229.836 13.3063L229.132 15.7053L230.391 16.0745L231.095 13.6756ZM229.836 13.3063L231.557 11.493L230.555 10.5423L228.834 12.3556L227.113 14.169L228.115 15.1197L229.836 13.3063ZM228.834 12.3556L228.763 9.85664L227.339 9.89704L227.41 12.396L227.481 14.895L228.905 14.8546L228.834 12.3556ZM227.41 12.396L229.262 10.716L228.287 9.64235L226.436 11.3224L224.585 13.0024L225.559 14.0761L227.41 12.396ZM226.436 11.3224L226.975 8.8812L225.692 8.59792L225.153 11.0391L224.614 13.4803L225.897 13.7636L226.436 11.3224ZM225.153 11.0391L225.215 8.53988L223.867 8.50654L223.805 11.0058L223.743 13.505L225.091 13.5383L225.153 11.0391ZM223.805 11.0058L225.004 8.81206L223.837 8.17407L222.638 10.3678L221.439 12.5615L222.606 13.1995L223.805 11.0058ZM222.638 10.3678L224.013 8.27974L222.862 7.52196L221.487 9.61L220.112 11.698L221.263 12.4558L222.638 10.3678ZM221.487 9.61L221.308 7.11641L219.945 7.21424L220.123 9.70783L220.302 12.2014L221.666 12.1036L221.487 9.61ZM220.123 9.70783L220.834 7.3108L219.583 6.94028L218.873 9.33731L218.163 11.7343L219.413 12.1049L220.123 9.70783ZM218.873 9.33731L220.04 7.12647L218.838 6.4921L217.671 8.70294L216.504 10.9138L217.706 11.5481L218.873 9.33731ZM217.671 8.70294L217.554 6.20567L216.216 6.26824L216.333 8.76551L216.45 11.2628L217.788 11.2002L217.671 8.70294ZM216.333 8.76551L216.838 6.31707L215.564 6.05419L215.059 8.50263L214.554 10.9511L215.828 11.2139L216.333 8.76551ZM215.059 8.50263L215.037 6.00272L213.714 6.01433L213.736 8.51424L213.758 11.0141L215.081 11.0025L215.059 8.50263ZM213.736 8.51424L213.44 6.03183L212.096 6.19207L212.393 8.67448L212.689 11.1569L214.032 10.9966L213.736 8.51424ZM212.393 8.67448L213.739 6.56821L212.545 5.80495L211.199 7.91122L209.852 10.0175L211.046 10.7807L212.393 8.67448ZM211.199 7.91122L210.402 5.5417L209.017 6.00735L209.815 8.37687L210.612 10.7464L211.996 10.2807L211.199 7.91122ZM209.815 8.37687L211.633 6.66169L210.496 5.45548L208.677 7.17066L206.858 8.88583L207.996 10.092L209.815 8.37687ZM208.677 7.17066L207.683 4.87677L206.286 5.48205L207.28 7.77593L208.274 10.0698L209.671 9.46454L208.677 7.17066ZM207.28 7.77593L208.243 5.46885L207.002 4.95069L206.039 7.25777L205.076 9.56485L206.317 10.083L207.28 7.77593ZM206.039 7.25777L206.559 4.81255L205.282 4.54071L204.762 6.98593L204.241 9.43114L205.518 9.70299L206.039 7.25777ZM204.762 6.98593L205.03 4.50033L203.734 4.36061L203.466 6.8462L203.198 9.3318L204.494 9.47152L204.762 6.98593ZM203.466 6.8462L204.103 4.42885L202.831 4.09323L202.193 6.51059L201.556 8.92795L202.828 9.26356L203.466 6.8462ZM202.193 6.51059L202.162 4.01079L200.855 4.0272L200.887 6.527L200.918 9.0268L202.225 9.01039L202.193 6.51059ZM200.887 6.527L199.976 4.19862L198.612 4.73222L199.522 7.0606L200.432 9.38897L201.797 8.85538L200.887 6.527ZM199.522 7.0606L200.37 4.70881L199.11 4.25459L198.262 6.60638L197.414 8.95817L198.674 9.41239L199.522 7.0606ZM198.262 6.60638L199.672 4.54215L198.448 3.70561L197.038 5.76984L195.627 7.83407L196.852 8.67061L198.262 6.60638ZM197.038 5.76984L196.516 3.32496L195.185 3.60898L195.708 6.05387L196.23 8.49875L197.56 8.21473L197.038 5.76984ZM195.708 6.05387L196.24 3.61123L194.96 3.33229L194.428 5.77493L193.895 8.21757L195.175 8.49651L195.708 6.05387ZM194.428 5.77493L194.261 3.28053L192.939 3.36917L193.106 5.86357L193.273 8.35797L194.595 8.26933L194.428 5.77493ZM193.106 5.86357L193.996 3.52721L192.741 3.04967L191.852 5.38603L190.962 7.72239L192.216 8.19993L193.106 5.86357ZM191.852 5.38603L191.57 2.90191L190.25 3.05147L190.531 5.53559L190.813 8.01971L192.133 7.87015L191.852 5.38603ZM190.531 5.53559L190.785 3.04849L189.487 2.91612L189.233 5.40322L188.98 7.89032L190.278 8.02269L190.531 5.53559ZM189.233 5.40322L189.365 2.90669L188.071 2.83848L187.939 5.33501L187.808 7.83154L189.102 7.89976L189.233 5.40322ZM187.939 5.33501L187.251 2.93153L185.912 3.3149L186.6 5.71838L187.288 8.12186L188.627 7.73849L187.939 5.33501ZM186.6 5.71838L187.715 3.48087L186.463 2.85681L185.348 5.09432L184.233 7.33182L185.485 7.95588L186.6 5.71838ZM185.348 5.09432L186.008 2.68316L184.73 2.33298L184.07 4.74414L183.409 7.1553L184.687 7.50548L185.348 5.09432ZM184.07 4.74414L184.245 2.25026L182.944 2.15906L182.769 4.65293L182.594 7.1468L183.895 7.23801L184.07 4.74414ZM182.769 4.65293L181.479 2.51164L180.122 3.32951L181.412 5.4708L182.702 7.61208L184.06 6.79422L182.769 4.65293ZM181.412 5.4708L183.03 3.56488L181.792 2.51418L180.174 4.42011L178.556 6.32603L179.794 7.37672L181.412 5.4708ZM180.174 4.42011L179.159 2.13556L177.823 2.72939L178.838 5.01394L179.853 7.29848L181.189 6.70465L180.174 4.42011ZM178.838 5.01394L180.119 2.86719L178.86 2.11577L177.579 4.26252L176.298 6.40927L177.557 7.16069L178.838 5.01394ZM177.579 4.26252L177.58 1.76252L176.28 1.76196L176.279 4.26196L176.278 6.76196L177.578 6.76252L177.579 4.26252ZM176.279 4.26196L175.435 1.90885L174.101 2.38726L174.946 4.74038L175.79 7.09349L177.123 6.61508L176.279 4.26196ZM174.946 4.74038L175.95 2.45095L174.681 1.89447L173.677 4.1839L172.673 6.47333L173.941 7.0298L174.946 4.74038ZM173.677 4.1839L173.234 1.72342L171.918 1.96035L172.361 4.42082L172.803 6.8813L174.12 6.64438L173.677 4.1839ZM172.361 4.42082L173.206 2.06819L171.929 1.60915L171.083 3.96179L170.238 6.31442L171.515 6.77346L172.361 4.42082ZM171.083 3.96179L171.362 1.47732L170.067 1.33224L169.788 3.8167L169.51 6.30117L170.805 6.44625L171.083 3.96179ZM169.788 3.8167L169.492 1.33429L168.182 1.49057L168.478 3.97298L168.774 6.45539L170.084 6.29912L169.788 3.8167ZM168.478 3.97298L168.44 1.47326L167.138 1.49284L167.175 3.99256L167.213 6.49228L168.515 6.4727L168.478 3.97298ZM167.175 3.99256L167.886 1.59571L166.601 1.2148L165.891 3.61166L165.18 6.00851L166.465 6.38942L167.175 3.99256ZM165.891 3.61166L164.502 1.53298L163.16 2.42944L164.549 4.50812L165.938 6.58679L167.28 5.69033L165.891 3.61166ZM164.549 4.50812L164.636 2.00963L163.337 1.96437L163.25 4.46286L163.163 6.96134L164.462 7.0066L164.549 4.50812ZM163.25 4.46286L164.414 2.25033L163.141 1.58099L161.978 3.79352L160.814 6.00605L162.086 6.67539L163.25 4.46286ZM161.978 3.79352L161.926 1.29406L160.623 1.32105L160.675 3.82051L160.727 6.31998L162.029 6.29298L161.978 3.79352ZM160.675 3.82051L160.938 1.33442L159.642 1.19717L159.379 3.68326L159.116 6.16935L160.411 6.3066L160.675 3.82051ZM159.379 3.68326L159.668 1.20007L158.373 1.04906L158.083 3.53226L157.794 6.01545L159.09 6.16646L159.379 3.68326ZM158.083 3.53226L156.972 1.2929L155.648 1.95009L156.759 4.18944L157.871 6.42879L159.195 5.77161L158.083 3.53226ZM156.759 4.18944L158.055 2.05137L156.78 1.27912L155.485 3.41719L154.189 5.55526L155.464 6.32751L156.759 4.18944ZM155.485 3.41719L155.246 0.928581L153.941 1.05362L154.18 3.54222L154.418 6.03083L155.723 5.9058L155.485 3.41719ZM154.18 3.54222L153.315 1.19659L151.999 1.68151L152.864 4.02715L153.729 6.37279L155.044 5.88786L154.18 3.54222ZM152.864 4.02715L153.338 1.57238L152.045 1.323L151.571 3.77777L151.098 6.23254L152.391 6.48192L152.864 4.02715ZM151.571 3.77777L151.188 1.30734L149.882 1.50995L150.266 3.98037L150.649 6.45079L151.955 6.24819L151.571 3.77777ZM150.266 3.98037L151.259 1.68632L149.973 1.12926L148.98 3.42331L147.986 5.71735L149.272 6.27441L150.266 3.98037ZM148.98 3.42331L149.755 1.04656L148.465 0.625687L147.689 3.00244L146.914 5.37919L148.204 5.80006L148.98 3.42331ZM147.689 3.00244L146.277 0.939687L144.956 1.84455L146.368 3.9073L147.781 5.97005L149.102 5.06519L147.689 3.00244ZM146.368 3.9073L147.875 1.91271L146.596 0.94583L145.088 2.94043L143.581 4.93502L144.861 5.9019L146.368 3.9073ZM145.088 2.94043L145.254 0.445895L143.954 0.359802L143.789 2.85433L143.624 5.34887L144.923 5.43496L145.088 2.94043ZM143.789 2.85433L143.13 0.442657L141.823 0.799675L142.482 3.21135L143.14 5.62303L144.448 5.26601L143.789 2.85433ZM142.482 3.21135L142.065 0.746312L140.761 0.96666L141.178 3.4317L141.595 5.89674L142.898 5.67639L142.482 3.21135ZM141.178 3.4317L142.241 1.16919L140.949 0.561897L139.886 2.82441L138.822 5.08692L140.114 5.69421L141.178 3.4317ZM139.886 2.82441L140.059 0.330415L138.76 0.240195L138.587 2.73419L138.413 5.22818L139.713 5.3184L139.886 2.82441ZM138.587 2.73419L137.177 0.669621L135.866 1.56499L137.275 3.62956L138.685 5.69413L139.996 4.79876L138.587 2.73419ZM137.275 3.62956L138.207 1.30973L136.913 0.789983L135.982 3.10981L135.05 5.42964L136.344 5.94939L137.275 3.62956ZM135.982 3.10981L136.678 0.708862L135.379 0.331862L134.682 2.73281L133.986 5.13376L135.285 5.51076L135.982 3.10981ZM134.682 2.73281L133.257 0.678833L131.953 1.58378L133.378 3.63775L134.803 5.69173L136.108 4.78678L134.682 2.73281ZM133.378 3.63775L133.952 1.20451L132.652 0.897931L132.078 3.33118L131.504 5.76443L132.804 6.071L133.378 3.63775ZM132.078 3.33118L133.022 1.01602L131.724 0.487242L130.781 2.8024L129.837 5.11756L131.135 5.64634L132.078 3.33118ZM130.781 2.8024L130.667 0.304981L129.365 0.364198L129.478 2.86162L129.592 5.35904L130.894 5.29982L130.781 2.8024ZM129.478 2.86162L128.373 0.619022L127.076 1.25824L128.181 3.50084L129.286 5.74343L130.583 5.10422L129.478 2.86162ZM128.181 3.50084L128.372 1.00817L127.07 0.908231L126.879 3.4009L126.687 5.89356L127.989 5.9935L128.181 3.50084ZM126.879 3.4009L126.241 0.983491L124.946 1.32505L125.583 3.74245L126.22 6.15986L127.516 5.8183L126.879 3.4009ZM125.583 3.74245L126.879 1.60444L125.571 0.811699L124.275 2.94972L122.979 5.08773L124.287 5.88047L125.583 3.74245ZM124.275 2.94972L124.46 0.456595L123.161 0.359977L122.975 2.8531L122.79 5.34622L124.09 5.44284L124.275 2.94972ZM122.975 2.8531L121.6 0.765621L120.307 1.61719L121.683 3.70467L123.059 5.79215L124.351 4.94058L122.975 2.8531ZM121.683 3.70467L122.897 1.51912L121.589 0.792684L120.375 2.97824L119.161 5.16379L120.469 5.89022L121.683 3.70467ZM120.375 2.97824L119.005 0.886939L117.717 1.73106L119.086 3.82236L120.456 5.91366L121.745 5.06954L120.375 2.97824ZM119.086 3.82236L119.104 1.32242L117.808 1.31343L117.79 3.81337L117.773 6.31331L119.069 6.3223L119.086 3.82236ZM117.79 3.81337L119.22 1.76249L117.896 0.839791L116.467 2.89067L115.037 4.94155L116.361 5.86425L117.79 3.81337ZM116.467 2.89067L115.771 0.489395L114.483 0.862554L115.178 3.26383L115.874 5.66511L117.162 5.29195L116.467 2.89067ZM115.178 3.26383L114.787 0.794693L113.487 1.00079L113.879 3.46993L114.271 5.93907L115.57 5.73297L115.178 3.26383ZM113.879 3.46993L113.745 0.973499L112.452 1.0427L112.585 3.53913L112.719 6.03556L114.013 5.96636L113.879 3.46993ZM112.585 3.53913L113.46 1.19718L112.138 0.703254L111.263 3.04521L110.388 5.38716L111.711 5.88109L112.585 3.53913ZM111.263 3.04521L109.816 1.00647L108.55 1.90471L109.997 3.94345L111.444 5.98219L112.71 5.08395L111.263 3.04521ZM109.997 3.94345L111.366 1.85124L110.027 0.975462L108.658 3.06767L107.29 5.15987L108.629 6.03565L109.997 3.94345ZM108.658 3.06767L107.708 0.755473L106.43 1.2809L107.38 3.59309L108.331 5.90529L109.609 5.37986L108.658 3.06767ZM107.38 3.59309L107.082 1.11097L105.787 1.26672L106.085 3.74884L106.384 6.23096L107.679 6.07522L107.38 3.59309ZM106.085 3.74884L105.373 1.35239L104.09 1.73357L104.802 4.13001L105.514 6.52646L106.797 6.14529L106.085 3.74884ZM104.802 4.13001L104.85 1.63047L103.551 1.60567L103.503 4.10521L103.455 6.60476L104.755 6.62956L104.802 4.13001ZM103.503 4.10521L104.468 1.79898L103.131 1.23959L102.166 3.54582L101.201 5.85205L102.538 6.41144L103.503 4.10521ZM102.166 3.54582L100.849 1.4211L99.5975 2.19692L100.915 4.32164L102.232 6.44636L103.484 5.67054L102.166 3.54582ZM100.915 4.32164L101.5 1.89107L100.173 1.57167L99.5881 4.00224L99.003 6.43281L100.33 6.75221L100.915 4.32164ZM99.5881 4.00224L100.059 1.54706L98.7401 1.29384L98.2689 3.74902L97.7976 6.2042L99.1168 6.45742L99.5881 4.00224ZM98.2689 3.74902L97.4726 1.37922L96.1998 1.80689L96.9961 4.17669L97.7924 6.54648L99.0651 6.11881L98.2689 3.74902ZM96.9961 4.17669L96.9931 1.67669L95.6862 1.67825L95.6892 4.17825L95.6922 6.67825L96.9991 6.67669L96.9961 4.17669ZM95.6892 4.17825L94.3544 2.06439L93.1156 2.84667L94.4503 4.96052L95.7851 7.07438L97.024 6.2921L95.6892 4.17825ZM94.4503 4.96052L94.3303 2.46341L93.0304 2.52591L93.1505 5.02303L93.2706 7.52014L94.5704 7.45764L94.4503 4.96052ZM93.1505 5.02303L93.3655 2.53228L92.0515 2.41889L91.8365 4.90964L91.6216 7.40038L92.9356 7.51377L93.1505 5.02303ZM91.8365 4.90964L91.1311 2.51121L89.8653 2.88352L90.5707 5.28194L91.2761 7.68036L92.5419 7.30806L91.8365 4.90964ZM90.5707 5.28194L91.2452 2.87466L89.9021 2.49832L89.2276 4.9056L88.553 7.31289L89.8961 7.68923L90.5707 5.28194ZM89.2276 4.9056L88.4693 2.52335L87.2019 2.92676L87.9601 5.30901L88.7183 7.69126L89.9858 7.28785L89.2276 4.9056ZM87.9601 5.30901L88.8266 2.96397L87.4735 2.46402L86.607 4.80906L85.7405 7.1541L87.0936 7.65405L87.9601 5.30901ZM86.607 4.80906L86.4309 2.31527L85.1303 2.40709L85.3064 4.90088L85.4825 7.39467L86.7831 7.30285L86.607 4.80906ZM85.3064 4.90088L84.1176 2.70164L82.8799 3.3707L84.0687 5.56994L85.2576 7.76918L86.4952 7.10012L85.3064 4.90088ZM84.0687 5.56994L83.1487 3.24539L81.8989 3.74004L82.819 6.06458L83.739 8.38912L84.9888 7.89448L84.0687 5.56994ZM82.819 6.06458L82.6115 3.57321L81.3216 3.68064L81.5291 6.17201L81.7366 8.66338L83.0265 8.55595L82.819 6.06458ZM81.5291 6.17201L82.2452 3.77675L80.8832 3.3696L80.1672 5.76486L79.4511 8.16011L80.813 8.56727L81.5291 6.17201ZM80.1672 5.76486L78.8642 3.63122L77.6465 4.37484L78.9494 6.50848L80.2523 8.64212L81.4701 7.8985L80.1672 5.76486ZM78.9494 6.50848L78.8942 4.00909L77.5891 4.0379L77.6443 6.53729L77.6995 9.03668L79.0046 9.00787L78.9494 6.50848ZM77.6443 6.53729L77.3869 4.05058L76.0964 4.18414L76.3538 6.67086L76.6112 9.15757L77.9017 9.02401L77.6443 6.53729ZM76.3538 6.67086L76.8861 4.22819L75.5359 3.93393L75.0035 6.3766L74.4712 8.81927L75.8215 9.11353L76.3538 6.67086ZM75.0035 6.3766L73.6796 4.25597L72.4736 5.00889L73.7976 7.12952L75.1216 9.25015L76.3275 8.49723L75.0035 6.3766ZM73.7976 7.12952L74.2961 4.67973L72.9399 4.40374L72.4414 6.85353L71.9428 9.30331L73.2991 9.57931L73.7976 7.12952ZM72.4414 6.85353L71.3099 4.62421L70.0893 5.24374L71.2207 7.47305L72.3522 9.70237L73.5728 9.08284L72.4414 6.85353ZM71.2207 7.47305L70.5234 5.07228L69.2665 5.43736L69.9638 7.83813L70.6611 10.2389L71.918 9.87383L71.2207 7.47305ZM69.9638 7.83813L71.1268 5.62513L69.6868 4.86834L68.5238 7.08135L67.3608 9.29435L68.8008 10.0511L69.9638 7.83813ZM68.5238 7.08135L67.0219 5.08276L65.8506 5.96297L67.3524 7.96156L68.8543 9.96015L70.0257 9.07994L68.5238 7.08135ZM67.3524 7.96156L66.4419 5.63327L65.2079 6.11586L66.1184 8.44415L67.029 10.7724L68.263 10.2898L67.3524 7.96156ZM66.1184 8.44415L66.5189 5.97644L65.1622 5.75625L64.7617 8.22396L64.3612 10.6917L65.7179 10.9119L66.1184 8.44415ZM64.7617 8.22396L63.7247 5.94922L62.5075 6.50413L63.5446 8.77888L64.5816 11.0536L65.7988 10.4987L64.7617 8.22396ZM63.5446 8.77888L63.3159 6.28936L62.0151 6.40886L62.2438 8.89838L62.4725 11.3879L63.7733 11.2684L63.5446 8.77888ZM62.2438 8.89838L61.8109 6.43615L60.5287 6.6616L60.9617 9.12383L61.3947 11.5861L62.6768 11.3606L62.2438 8.89838ZM60.9617 9.12383L61 6.62412L59.6738 6.60382L59.6356 9.10353L59.5973 11.6032L60.9234 11.6235L60.9617 9.12383ZM59.6356 9.10353L58.2743 7.00663L57.1004 7.76872L58.4617 9.86562L59.8229 11.9625L60.9968 11.2004L59.6356 9.10353ZM58.4617 9.86562L59.1213 7.4542L57.7167 7.07L57.0571 9.48142L56.3975 11.8928L57.802 12.277L58.4617 9.86562ZM57.0571 9.48142L56.5205 7.03969L55.2531 7.31822L55.7898 9.75995L56.3264 12.2017L57.5937 11.9231L57.0571 9.48142ZM55.7898 9.75995L55.6091 7.26649L54.2951 7.36172L54.4758 9.85518L54.6565 12.3486L55.9705 12.2534L55.7898 9.75995ZM54.4758 9.85518L53.5735 7.52367L52.345 7.99908L53.2472 10.3306L54.1495 12.6621L55.378 12.1867L54.4758 9.85518ZM53.2472 10.3306L52.6236 7.90962L51.3633 8.23427L51.9869 10.6552L52.6105 13.0762L53.8709 12.7516L53.2472 10.3306ZM51.9869 10.6552L51.6464 8.17854L50.3475 8.35713L50.688 10.8338L51.0285 13.3105L52.3274 13.1319L51.9869 10.6552ZM50.688 10.8338L50.267 8.36954L48.9743 8.5904L49.3954 11.0547L49.8164 13.519L51.109 13.2981L50.688 10.8338ZM49.3954 11.0547L48.8287 8.61975L47.5485 8.91768L48.1152 11.3526L48.6818 13.7875L49.962 13.4896L49.3954 11.0547ZM48.1152 11.3526L46.3012 9.63232L45.2819 10.7071L47.0959 12.4274L48.9099 14.1477L49.9292 13.0729L48.1152 11.3526ZM47.0959 12.4274L46.5634 9.98477L45.2866 10.2631L45.8191 12.7057L46.3516 15.1484L47.6284 14.87L47.0959 12.4274ZM45.8191 12.7057L45.8454 10.2059L44.4344 10.191L44.4081 12.6909L44.3818 15.1908L45.7929 15.2056L45.8191 12.7057ZM44.4081 12.6909L42.885 10.7085L41.8158 11.53L43.3389 13.5124L44.8621 15.4948L45.9313 14.6733L44.4081 12.6909ZM43.3389 13.5124L41.7582 11.5755L40.7134 12.4283L42.2941 14.3651L43.8748 16.3019L44.9197 15.4492L43.3389 13.5124ZM42.2941 14.3651L42.2712 11.8652L40.8499 11.8783L40.8728 14.3782L40.8957 16.8781L42.317 16.865L42.2941 14.3651ZM40.8728 14.3782L39.6699 12.1866L38.523 12.8161L39.726 15.0076L40.9289 17.1992L42.0757 16.5697L40.8728 14.3782ZM39.726 15.0076L37.7936 13.4215L36.8856 14.5277L38.818 16.1138L40.7504 17.7L41.6583 16.5938L39.726 15.0076ZM38.818 16.1138L37.3543 14.0871L36.2923 14.8541L37.756 16.8808L39.2197 18.9075L40.2817 18.1406L38.818 16.1138ZM37.756 16.8808L36.6322 14.6476L35.4768 15.229L36.6005 17.4622L37.7243 19.6954L38.8798 19.114L37.756 16.8808ZM36.6005 17.4622L35.4194 15.2588L34.28 15.8696L35.4611 18.073L36.6422 20.2764L37.7817 19.6656L36.6005 17.4622ZM35.4611 18.073L35.0619 15.6051L33.7003 15.8254L34.0996 18.2933L34.4988 20.7612L35.8604 20.5409L35.4611 18.073ZM34.0996 18.2933L32.824 16.1432L31.706 16.8065L32.9815 18.9566L34.2571 21.1067L35.3752 20.4434L34.0996 18.2933ZM32.9815 18.9566L32.1893 16.5854L30.9288 17.0065L31.721 19.3777L32.5132 21.7489L33.7737 21.3278L32.9815 18.9566ZM31.721 19.3777L30.8052 17.0515L29.5759 17.5355L30.4917 19.8617L31.4076 22.1879L32.6369 21.7039L31.721 19.3777ZM30.4917 19.8617L28.5899 18.239L27.7009 19.2809L29.6027 20.9036L31.5045 22.5263L32.3935 21.4844L30.4917 19.8617ZM29.6027 20.9036L28.6003 18.6134L27.3949 19.1409L28.3973 21.4312L29.3997 23.7214L30.6051 23.1939L29.6027 20.9036ZM28.3973 21.4312L26.7172 19.5799L25.7401 20.4667L27.4202 22.3179L29.1003 24.1692L30.0774 23.2824L28.3973 21.4312ZM27.4202 22.3179L25.4357 20.7975L24.5981 21.8908L26.5826 23.4112L28.5671 24.9317L29.4047 23.8384L27.4202 22.3179ZM26.5826 23.4112L26.7204 20.915L25.1066 20.8259L24.9688 23.3221L24.8309 25.8183L26.4448 25.9074L26.5826 23.4112ZM24.9688 23.3221L23.1991 21.5562L22.2598 22.4975L24.0294 24.2634L25.7991 26.0293L26.7384 25.088L24.9688 23.3221ZM24.0294 24.2634L22.0926 22.6826L21.2322 23.7368L23.169 25.3176L25.1058 26.8984L25.9662 25.8442L24.0294 24.2634ZM23.169 25.3176L22.4592 22.9205L21.1517 23.3077L21.8615 25.7048L22.5713 28.1019L23.8788 27.7147L23.169 25.3176ZM21.8615 25.7048L19.7499 24.3665L19.0049 25.5421L21.1165 26.8803L23.2282 28.2186L23.9732 27.043L21.8615 25.7048ZM21.1165 26.8803L20.7092 24.4137L19.2386 24.6566L19.6459 27.1232L20.0533 29.5898L21.5239 29.3469L21.1165 26.8803ZM19.6459 27.1232L17.9955 25.2454L17.0136 26.1084L18.664 27.9862L20.3144 29.864L21.2963 29.001L19.6459 27.1232ZM18.664 27.9862L17.0043 26.1166L16.0277 26.9835L17.6874 28.8531L19.3471 30.7228L20.3237 29.8558L18.664 27.9862ZM17.6874 28.8531L16.2089 26.8372L15.1533 27.6114L16.6318 29.6273L18.1103 31.6433L19.1659 30.8691L17.6874 28.8531ZM16.6318 29.6273L14.6207 28.1423L13.8291 29.2143L15.8402 30.6993L17.8514 32.1844L18.643 31.1124L16.6318 29.6273ZM15.8402 30.6993L14.1513 28.8561L13.1914 29.7357L14.8804 31.5789L16.5694 33.4221L17.5292 32.5426L15.8402 30.6993ZM14.8804 31.5789L12.7482 30.2735L12.0406 31.4294L14.1728 32.7347L16.3049 34.0401L17.0125 32.8842L14.8804 31.5789ZM14.1728 32.7347L12.1103 31.3218L11.3574 32.4209L13.4198 33.8338L15.4823 35.2467L16.2352 34.1476L14.1728 32.7347ZM13.4198 33.8338L12.7478 31.4258L11.3383 31.8192L12.0104 34.2272L12.6824 36.6352L14.0919 36.2418L13.4198 33.8338ZM12.0104 34.2272L9.6802 33.3214L9.15879 34.6628L11.4889 35.5686L13.8191 36.4743L14.3405 35.1329L12.0104 34.2272ZM11.4889 35.5686L11.0035 33.1161L9.49133 33.4155L9.97674 35.8679L10.4621 38.3203L11.9744 38.021L11.4889 35.5686ZM9.97674 35.8679L7.71895 34.7944L7.1228 36.0482L9.38058 37.1217L11.6384 38.1952L12.2345 36.9414L9.97674 35.8679ZM9.38058 37.1217L8.37075 34.8347L7.09701 35.3972L8.10685 37.6841L9.11669 39.9711L10.3904 39.4087L9.38058 37.1217ZM8.10685 37.6841L6.16035 36.1153L5.33751 37.1363L7.28401 38.7051L9.2305 40.2739L10.0533 39.2529L8.10685 37.6841ZM7.28401 38.7051L5.01588 37.6536L4.44151 38.8926L6.70964 39.944L8.97776 40.9955L9.55214 39.7565L7.28401 38.7051ZM6.70964 39.944L5.54308 37.7329L4.24499 38.4178L5.41154 40.6289L6.57809 42.84L7.87619 42.1552L6.70964 39.944ZM5.41154 40.6289L2.91941 40.8271L3.04447 42.3998L5.5366 42.2016L8.02874 42.0035L7.90367 40.4307L5.41154 40.6289ZM5.5366 42.2016L3.24882 41.1936L2.73725 42.3547L5.02503 43.3627L7.31281 44.3707L7.82438 43.2096L5.5366 42.2016ZM5.02503 43.3627L3.14591 41.7138L2.23722 42.7494L4.11634 44.3983L5.99546 46.0472L6.90415 45.0116L5.02503 43.3627ZM4.11634 44.3983L1.61644 44.3751L1.60394 45.726L4.10384 45.7491L6.60373 45.7722L6.61623 44.4214L4.11634 44.3983ZM4.10384 45.7491L2.38989 43.9291L1.26466 44.9888L2.97861 46.8088L4.69256 48.6288L5.81779 47.5691L4.10384 45.7491ZM2.97861 46.8088L0.485836 46.6188L0.384748 47.9457L2.87752 48.1356L5.3703 48.3255L5.47139 46.9987L2.97861 46.8088ZM2.87752 48.1356L0.625962 49.2221L1.31019 50.64L3.56175 49.5535L5.81331 48.467L5.12908 47.0491L2.87752 48.1356ZM3.56175 49.5535L1.60848 47.9932L0.651594 49.191L2.60486 50.7514L4.55813 52.3117L5.51502 51.1139L3.56175 49.5535ZM2.60486 50.7514L0.121954 51.0432L0.277055 52.3629L2.75997 52.071L5.24288 51.7792L5.08777 50.4595L2.60486 50.7514ZM2.75997 52.071L0.280603 51.7505L0.111197 53.0607L2.59056 53.3813L5.06992 53.7018L5.23933 52.3916L2.75997 52.071ZM2.59056 53.3813L0.250261 54.2605L0.72768 55.5313L3.06798 54.6521L5.40828 53.7729L4.93086 52.5021L2.59056 53.3813ZM3.06798 54.6521L0.571827 54.5134L0.498488 55.8336L2.99464 55.9722L5.49079 56.1109L5.56413 54.7907L3.06798 54.6521ZM2.99464 55.9722L0.803329 57.1756L1.44782 58.3492L3.63913 57.1458L5.83044 55.9424L5.18595 54.7688L2.99464 55.9722ZM3.63913 57.1458L1.14489 56.9763L1.04943 58.3804L3.54368 58.5499L6.03792 58.7195L6.13337 57.3154L3.63913 57.1458ZM3.54368 58.5499L1.68674 60.2238L2.60323 61.2405L4.46017 59.5666L6.3171 57.8928L5.40061 56.8761L3.54368 58.5499ZM4.46017 59.5666L2.34464 60.8988L3.02915 61.9858L5.14468 60.6537L7.2602 59.3216L6.57569 58.2345L4.46017 59.5666ZM5.14468 60.6537L2.70314 61.1912L3.00843 62.578L5.44997 62.0405L7.8915 61.503L7.58621 60.1162L5.14468 60.6537ZM5.44997 62.0405L3.70008 63.8259L4.64739 64.7544L6.39728 62.9689L8.14717 61.1834L7.19986 60.255L5.44997 62.0405ZM6.39728 62.9689L4.67993 64.7857L5.63273 65.6863L7.35008 63.8696L9.06743 62.0528L8.11463 61.1521L6.39728 62.9689ZM7.35008 63.8696L5.33024 65.3427L6.10871 66.4101L8.12855 64.9369L10.1484 63.4637L9.36991 62.3964L7.35008 63.8696ZM8.12855 64.9369L6.61529 66.9269L7.66 67.7213L9.17326 65.7313L10.6865 63.7414L9.64181 62.9469L8.12855 64.9369ZM9.17326 65.7313L7.52171 67.6081L8.49842 68.4676L10.15 66.5908L11.8015 64.714L10.8248 63.8545L9.17326 65.7313ZM10.15 66.5908L8.19504 68.1491L9.01006 69.1716L10.965 67.6133L12.9199 66.055L12.1049 65.0325L10.15 66.5908ZM10.965 67.6133L9.49358 69.6344L10.5588 70.4099L12.0302 68.3888L13.5016 66.3677L12.4364 65.5922L10.965 67.6133ZM12.0302 68.3888L10.2531 70.1472L11.1729 71.0767L12.95 69.3183L14.7271 67.5599L13.8073 66.6304L12.0302 68.3888ZM12.95 69.3183L11.8925 71.5837L13.1039 72.1491L14.1613 69.8838L15.2188 67.6184L14.0074 67.053L12.95 69.3183ZM14.1613 69.8838L13.0101 72.1029L14.1602 72.6996L15.3115 70.4804L16.4627 68.2613L15.3125 67.6646L14.1613 69.8838ZM15.3115 70.4804L13.3095 71.9778L14.1392 73.0872L16.1412 71.5898L18.1432 70.0924L17.3134 68.983L15.3115 70.4804ZM16.1412 71.5898L14.5384 73.5083L15.5619 74.3635L17.1648 72.4449L18.7676 70.5263L17.744 69.6712L16.1412 71.5898ZM17.1648 72.4449L17.493 74.9232L19.0529 74.7166L18.7246 72.2383L18.3963 69.7599L16.8365 69.9665L17.1648 72.4449ZM18.7246 72.2383L17.0821 74.1229L18.0942 75.0051L19.7368 73.1204L21.3793 71.2357L20.3672 70.3536L18.7246 72.2383ZM19.7368 73.1204L17.8645 74.777L18.8167 75.8532L20.689 74.1965L22.5613 72.5399L21.609 71.4637L19.7368 73.1204ZM20.689 74.1965L19.5917 76.4428L20.7672 77.0171L21.8645 74.7708L22.9618 72.5245L21.7863 71.9502L20.689 74.1965ZM21.8645 74.7708L22.2698 77.2377L23.7752 76.9904L23.3698 74.5234L22.9645 72.0565L21.4592 72.3039L21.8645 74.7708ZM23.3698 74.5234L22.1104 76.683L23.2429 77.3435L24.5023 75.1839L25.7618 73.0243L24.6293 72.3639L23.3698 74.5234ZM24.5023 75.1839L24.301 77.6758L25.6157 77.782L25.8171 75.2902L26.0184 72.7983L24.7037 72.692L24.5023 75.1839ZM25.8171 75.2902L24.043 77.0516L25.1103 78.1265L26.8843 76.365L28.6584 74.6036L27.5911 73.5287L25.8171 75.2902ZM26.8843 76.365L26.2839 78.7919L27.5634 79.1084L28.1638 76.6816L28.7641 74.2547L27.4847 73.9382L26.8843 76.365ZM28.1638 76.6816L27.7105 79.1401L29.0071 79.3792L29.4604 76.9206L29.9136 74.462L28.617 74.223L28.1638 76.6816ZM29.4604 76.9206L29.0765 79.391L30.3727 79.5924L30.7566 77.122L31.1405 74.6517L29.8443 74.4502L29.4604 76.9206ZM30.7566 77.122L32.1009 79.2298L33.5074 78.3328L32.163 76.225L30.8187 74.1172L29.4122 75.0142L30.7566 77.122ZM32.163 76.225L31.7712 78.6941L33.0495 78.897L33.4414 76.4279L33.8333 73.9588L32.5549 73.7559L32.163 76.225ZM33.4414 76.4279L31.9148 78.4077L33.1382 79.351L34.6647 77.3712L36.1913 75.3914L34.968 74.4481L33.4414 76.4279ZM34.6647 77.3712L34.2546 79.8373L35.5472 80.0523L35.9574 77.5862L36.3676 75.1201L35.0749 74.9051L34.6647 77.3712ZM35.9574 77.5862L36.0491 80.0845L37.3545 80.0366L37.2628 77.5382L37.171 75.0399L35.8656 75.0879L35.9574 77.5862ZM37.2628 77.5382L37.5667 80.0197L38.8797 79.8589L38.5758 77.3774L38.2719 74.896L36.9589 75.0568L37.2628 77.5382ZM38.5758 77.3774L37.9538 79.7988L39.2377 80.1286L39.8598 77.7073L40.4819 75.2859L39.1979 74.9561L38.5758 77.3774ZM39.8598 77.7073L41.0675 79.8962L42.4086 79.1563L41.2008 76.9674L39.9931 74.7784L38.6521 75.5183L39.8598 77.7073ZM41.2008 76.9674L40.9727 79.4569L42.2664 79.5755L42.4945 77.0859L42.7227 74.5964L41.429 74.4778L41.2008 76.9674ZM42.4945 77.0859L41.2455 79.2516L42.513 79.9826L43.762 77.817L45.011 75.6513L43.7435 74.9203L42.4945 77.0859ZM43.762 77.817L43.8326 80.316L45.1371 80.2791L45.0665 77.7801L44.996 75.2811L43.6915 75.318L43.762 77.817ZM45.0665 77.7801L44.4979 80.2146L45.7913 80.5167L46.3599 78.0822L46.9286 75.6478L45.6352 75.3456L45.0665 77.7801ZM46.3599 78.0822L47.6164 80.2436L48.9488 79.469L47.6923 77.3077L46.4359 75.1463L45.1035 75.9209L46.3599 78.0822ZM47.6923 77.3077L46.4438 79.4736L47.713 80.2052L48.9615 78.0393L50.21 75.8733L48.9408 75.1417L47.6923 77.3077ZM48.9615 78.0393L48.5231 80.5005L49.8161 80.7308L50.2545 78.2696L50.6928 75.8083L49.3999 75.578L48.9615 78.0393ZM50.2545 78.2696L51.6964 80.3118L53.0297 79.3704L51.5878 77.3282L50.1458 75.2859L48.8125 76.2273L50.2545 78.2696ZM51.5878 77.3282L51.2207 79.8011L52.5158 79.9933L52.8829 77.5204L53.2499 75.0475L51.9548 74.8552L51.5878 77.3282ZM52.8829 77.5204L53.0672 80.0136L54.365 79.9176L54.1806 77.4244L53.9963 74.9312L52.6985 75.0272L52.8829 77.5204ZM54.1806 77.4244L52.771 79.4891L54.0533 80.3646L55.463 78.2999L56.8726 76.2353L55.5903 75.3597L54.1806 77.4244ZM55.463 78.2999L56.716 80.4632L58.0349 79.6993L56.7818 77.536L55.5288 75.3727L54.2099 76.1366L55.463 78.2999ZM56.7818 77.536L55.7954 79.8332L57.08 80.3848L58.0664 78.0876L59.0528 75.7905L57.7683 75.2389L56.7818 77.536ZM58.0664 78.0876L57.677 80.5571L58.9787 80.7624L59.3681 78.2929L59.7575 75.8234L58.4558 75.6181L58.0664 78.0876ZM59.3681 78.2929L60.3033 80.6114L61.6098 80.0845L60.6746 77.7659L59.7395 75.4474L58.433 75.9744L59.3681 78.2929ZM60.6746 77.7659L60.6574 80.2659L61.9571 80.2749L61.9743 77.7749L61.9916 75.275L60.6919 75.266L60.6746 77.7659ZM61.9743 77.7749L61.7097 80.2609L63.0112 80.3994L63.2758 77.9135L63.5404 75.4275L62.239 75.289L61.9743 77.7749ZM63.2758 77.9135L63.4286 80.4088L64.7253 80.3294L64.5725 77.8341L64.4197 75.3387L63.123 75.4181L63.2758 77.9135ZM64.5725 77.8341L65.0529 80.2875L66.3615 80.0312L65.8811 77.5778L65.4007 75.1244L64.0921 75.3806L64.5725 77.8341ZM65.8811 77.5778L65.0137 79.9225L66.3029 80.3995L67.1703 78.0547L68.0377 75.71L66.7485 75.2331L65.8811 77.5778ZM67.1703 78.0547L66.6838 80.5069L67.9836 80.7648L68.4701 78.3126L68.9567 75.8604L67.6568 75.6025L67.1703 78.0547ZM68.4701 78.3126L68.2527 80.8032L69.5507 80.9165L69.7681 78.4259L69.9855 75.9354L68.6875 75.8221L68.4701 78.3126ZM69.7681 78.4259L69.9828 80.9167L71.2843 80.8045L71.0696 78.3138L70.8549 75.823L69.5534 75.9352L69.7681 78.4259ZM71.0696 78.3138L72.0209 80.6257L73.3262 80.0886L72.3749 77.7767L71.4236 75.4647L70.1183 76.0019L71.0696 78.3138ZM72.3749 77.7767L71.1509 79.9565L72.4446 80.6829L73.6685 78.503L74.8925 76.3231L73.5989 75.5968L72.3749 77.7767ZM73.6685 78.503L74.5131 80.856L75.8185 80.3875L74.9739 78.0345L74.1294 75.6814L72.824 76.15L73.6685 78.503ZM74.9739 78.0345L74.3761 80.4619L75.6721 80.7811L76.27 78.3536L76.8678 75.9262L75.5718 75.607L74.9739 78.0345ZM76.27 78.3536L77.0527 80.7279L78.3576 80.2978L77.5749 77.9234L76.7922 75.5491L75.4872 75.9793L76.27 78.3536ZM77.5749 77.9234L76.8707 80.3222L78.1665 80.7026L78.8707 78.3038L79.5749 75.9051L78.2791 75.5247L77.5749 77.9234ZM78.8707 78.3038L78.6955 80.7977L79.9991 80.8893L80.1743 78.3954L80.3495 75.9016L79.0459 75.81L78.8707 78.3038ZM80.1743 78.3954L81.334 80.6102L82.6312 79.9309L81.4715 77.7162L80.3118 75.5014L79.0146 76.1807L80.1743 78.3954ZM81.4715 77.7162L80.6385 80.0733L81.9419 80.5339L82.7748 78.1768L83.6078 75.8196L82.3045 75.359L81.4715 77.7162ZM82.7748 78.1768L82.89 80.6741L84.1868 80.6143L84.0716 78.117L83.9564 75.6196L82.6597 75.6794L82.7748 78.1768ZM84.0716 78.117L84.3924 80.5963L85.6952 80.4277L85.3743 77.9484L85.0535 75.469L83.7507 75.6376L84.0716 78.117ZM85.3743 77.9484L85.6989 80.4272L86.9953 80.2575L86.6707 77.7786L86.3461 75.2998L85.0497 75.4695L85.3743 77.9484ZM86.6707 77.7786L85.9156 80.1618L87.2198 80.5751L87.9749 78.1918L88.73 75.8086L87.4258 75.3954L86.6707 77.7786ZM87.9749 78.1918L88.1304 80.687L89.4277 80.6061L89.2721 78.111L89.1165 75.6158L87.8193 75.6967L87.9749 78.1918ZM89.2721 78.111L88.366 80.441L89.6714 80.9486L90.5775 78.6186L91.4836 76.2886L90.1782 75.7809L89.2721 78.111ZM90.5775 78.6186L91.6836 80.8606L92.9776 80.2221L91.8715 77.9802L90.7654 75.7382L89.4714 76.3766L90.5775 78.6186ZM91.8715 77.9802L91.7716 80.4782L93.0736 80.5302L93.1735 78.0322L93.2734 75.5342L91.9714 75.4822L91.8715 77.9802ZM93.1735 78.0322L93.7305 80.4694L95.0265 80.1732L94.4695 77.736L93.9125 75.2989L92.6165 75.5951L93.1735 78.0322ZM94.4695 77.736L93.5066 80.0432L94.8129 80.5884L95.7758 78.2812L96.7387 75.9741L95.4324 75.4289L94.4695 77.736ZM95.7758 78.2812L95.4355 80.758L96.7369 80.9368L97.0772 78.4601L97.4176 75.9834L96.1162 75.8045L95.7758 78.2812ZM97.0772 78.4601L97.8525 80.8368L99.1486 80.4141L98.3733 78.0373L97.5981 75.6606L96.302 76.0833L97.0772 78.4601ZM98.3733 78.0373L99.2238 80.3882L100.517 79.9203L99.667 77.5694L98.8166 75.2185L97.5229 75.6864L98.3733 78.0373ZM99.667 77.5694L99.2867 80.0403L100.589 80.2408L100.97 77.7699L101.35 75.299L100.047 75.0985L99.667 77.5694ZM100.97 77.7699L100.52 80.2291L101.823 80.4676L102.273 78.0084L102.723 75.5492L101.42 75.3107L100.97 77.7699ZM102.273 78.0084L102.073 80.5004L103.375 80.605L103.575 78.113L103.775 75.6211L102.473 75.5164L102.273 78.0084ZM103.575 78.113L104.298 80.5061L105.592 80.1151L104.869 77.722L104.146 75.3289L102.852 75.7199L103.575 78.113ZM104.869 77.722L103.594 79.8724L104.908 80.6516L106.183 78.5012L107.458 76.3508L106.144 75.5716L104.869 77.722ZM106.183 78.5012L107.47 80.6445L108.756 79.8723L107.469 77.7289L106.182 75.5856L104.896 76.3578L106.183 78.5012ZM107.469 77.7289L106.417 79.9968L107.73 80.6056L108.782 78.3376L109.834 76.0697L108.521 75.461L107.469 77.7289ZM108.782 78.3376L110.258 80.3552L111.539 79.4178L110.063 77.4003L108.586 75.3828L107.305 76.3201L108.782 78.3376ZM110.063 77.4003L109.388 79.8077L110.696 80.1741L111.371 77.7667L112.045 75.3594L110.737 74.993L110.063 77.4003ZM111.371 77.7667L111.682 80.2473L112.979 80.0845L112.667 77.604L112.356 75.1235L111.059 75.2862L111.371 77.7667ZM112.667 77.604L111.624 79.8761L112.94 80.4799L113.983 78.2078L115.025 75.9357L113.71 75.3319L112.667 77.604ZM113.983 78.2078L115.058 80.4645L116.343 79.8521L115.267 77.5954L114.191 75.3388L112.907 75.9511L113.983 78.2078ZM115.267 77.5954L115.633 80.0685L116.929 79.8766L116.563 77.4035L116.197 74.9305L114.901 75.1224L115.267 77.5954ZM116.563 77.4035L115.996 79.8383L117.303 80.143L117.871 77.7083L118.438 75.2735L117.13 74.9688L116.563 77.4035ZM117.871 77.7083L117.768 80.2061L119.071 80.26L119.174 77.7621L119.278 75.2642L117.974 75.2104L117.871 77.7083ZM119.174 77.7621L119.995 80.1237L121.28 79.6772L120.46 77.3156L119.639 74.9541L118.354 75.4005L119.174 77.7621ZM120.46 77.3156L120.009 79.7747L121.319 80.0148L121.77 77.5558L122.22 75.0968L120.91 74.8566L120.46 77.3156ZM121.77 77.5558L121.923 80.0511L123.219 79.9714L123.066 77.4761L122.912 74.9808L121.616 75.0605L121.77 77.5558ZM123.066 77.4761L122.289 79.8523L123.607 80.2833L124.384 77.907L125.161 75.5308L123.843 75.0999L123.066 77.4761ZM124.384 77.907L125.615 80.0826L126.889 79.3619L125.657 77.1863L124.425 75.0107L123.152 75.7315L124.384 77.907ZM125.657 77.1863L124.834 79.5471L126.155 80.0074L126.978 77.6467L127.801 75.2859L126.48 74.8256L125.657 77.1863ZM126.978 77.6467L126.517 80.1038L127.825 80.3493L128.286 77.8923L128.747 75.4352L127.439 75.1896L126.978 77.6467ZM128.286 77.8923L128.854 80.327L130.146 80.0257L129.579 77.591L129.011 75.1563L127.719 75.4575L128.286 77.8923ZM129.579 77.591L130.732 79.8092L132.003 79.1486L130.849 76.9303L129.696 74.7121L128.425 75.3728L129.579 77.591ZM130.849 76.9303L129.554 79.0683L130.893 79.8799L132.189 77.742L133.484 75.6041L132.145 74.7924L130.849 76.9303ZM132.189 77.742L132.559 80.2144L133.85 80.0209L133.479 77.5485L133.108 75.0761L131.818 75.2697L132.189 77.742ZM133.479 77.5485L134.401 79.8724L135.682 79.3642L134.76 77.0404L133.839 74.7165L132.557 75.2246L133.479 77.5485ZM134.76 77.0404L135.044 79.5242L136.335 79.3766L136.051 76.8928L135.768 74.409L134.476 74.5565L134.76 77.0404ZM136.051 76.8928L136.908 79.2416L138.189 78.7745L137.333 76.4257L136.477 74.0769L135.195 74.544L136.051 76.8928ZM137.333 76.4257L136.966 78.8986L138.273 79.0925L138.64 76.6195L139.007 74.1466L137.7 73.9527L137.333 76.4257ZM138.64 76.6195L137.826 78.9833L139.155 79.441L139.969 77.0772L140.783 74.7134L139.454 74.2557L138.64 76.6195ZM139.969 77.0772L140.049 79.576L141.345 79.5349L141.266 77.0361L141.187 74.5374L139.89 74.5785L139.969 77.0772ZM141.266 77.0361L142.422 79.2528L143.691 78.5911L142.535 76.3744L141.379 74.1577L140.11 74.8194L141.266 77.0361ZM142.535 76.3744L142.758 78.8644L144.05 78.7487L143.827 76.2587L143.605 73.7686L142.312 73.8844L142.535 76.3744ZM143.827 76.2587L144.21 78.7292L145.503 78.529L145.12 76.0585L144.737 73.588L143.445 73.7882L143.827 76.2587ZM145.12 76.0585L145.011 78.5561L146.314 78.6129L146.423 76.1153L146.532 73.6177L145.229 73.5608L145.12 76.0585ZM146.423 76.1153L145.934 78.567L147.253 78.8302L147.743 76.3786L148.232 73.9269L146.913 73.6637L146.423 76.1153ZM147.743 76.3786L147.925 78.8719L149.222 78.7769L149.039 76.2836L148.856 73.7903L147.56 73.8853L147.743 76.3786ZM149.039 76.2836L149.176 78.7798L150.473 78.7086L150.336 76.2124L150.199 73.7161L148.902 73.7873L149.039 76.2836ZM150.336 76.2124L151.223 78.5501L152.495 78.0678L151.609 75.7301L150.723 73.3924L149.45 73.8747L150.336 76.2124ZM151.609 75.7301L150.681 78.0515L152.017 78.5854L152.944 76.2639L153.872 73.9425L152.537 73.4087L151.609 75.7301ZM152.944 76.2639L152.505 78.7249L153.828 78.9615L154.268 76.5005L154.708 74.0395L153.384 73.803L152.944 76.2639ZM154.268 76.5005L154.712 78.9608L155.996 78.7291L155.552 76.2688L155.108 73.8085L153.824 74.0402L154.268 76.5005ZM155.552 76.2688L156.689 78.4953L157.949 77.8517L156.812 75.6252L155.675 73.3987L154.415 74.0423L155.552 76.2688ZM156.812 75.6252L156.218 78.0536L157.545 78.3781L158.139 75.9497L158.733 73.5213L157.406 73.1968L156.812 75.6252ZM158.139 75.9497L159.047 78.2788L160.313 77.7851L159.405 75.4559L158.497 73.1267L157.231 73.6205L158.139 75.9497ZM159.405 75.4559L159.394 77.9559L160.7 77.9618L160.711 75.4618L160.722 72.9618L159.417 72.9559L159.405 75.4559ZM160.711 75.4618L160.085 77.8822L161.412 78.2253L162.038 75.8049L162.664 73.3845L161.337 73.0415L160.711 75.4618ZM162.038 75.8049L163.566 77.7832L164.799 76.8308L163.27 74.8526L161.742 72.8743L160.509 73.8266L162.038 75.8049ZM163.27 74.8526L162.125 77.075L163.486 77.7757L164.631 75.5533L165.776 73.3309L164.415 72.6301L163.27 74.8526ZM164.631 75.5533L165.211 77.9851L166.489 77.6802L165.909 75.2484L165.329 72.8166L164.051 73.1215L164.631 75.5533ZM165.909 75.2484L165.542 77.7213L166.867 77.9179L167.234 75.4449L167.601 72.972L166.276 72.7755L165.909 75.2484ZM167.234 75.4449L167.985 77.8293L169.253 77.4298L168.502 75.0454L167.75 72.661L166.482 73.0605L167.234 75.4449ZM168.502 75.0454L169.923 77.1023L171.154 76.2515L169.733 74.1946L168.312 72.1377L167.081 72.9885L168.502 75.0454ZM169.733 74.1946L168.694 76.4683L170.056 77.091L171.095 74.8174L172.135 72.5437L170.773 71.9209L169.733 74.1946ZM171.095 74.8174L171.734 77.2344L173.005 76.8986L172.366 74.4815L171.728 72.0645L170.457 72.4003L171.095 74.8174ZM172.366 74.4815L172.55 76.9748L173.85 76.879L173.666 74.3858L173.482 71.8925L172.183 71.9883L172.366 74.4815ZM173.666 74.3858L173.39 76.8705L174.711 77.0173L174.987 74.5325L175.263 72.0478L173.942 71.901L173.666 74.3858ZM174.987 74.5325L174.75 77.0213L176.066 77.1467L176.303 74.658L176.54 72.1693L175.224 72.0438L174.987 74.5325ZM176.303 74.658L177.56 76.8193L178.796 76.1005L177.54 73.9391L176.283 71.7778L175.047 72.4967L176.303 74.658ZM177.54 73.9391L177.748 76.4305L179.046 76.3221L178.838 73.8307L178.63 71.3394L177.332 71.4478L177.54 73.9391ZM178.838 73.8307L178.761 76.3296L180.071 76.3698L180.148 73.871L180.225 71.3722L178.915 71.3319L178.838 73.8307ZM180.148 73.871L181.154 76.1595L182.4 75.6119L181.393 73.3234L180.387 71.0349L179.141 71.5825L180.148 73.871ZM181.393 73.3234L180.327 75.5848L181.708 76.2356L182.774 73.9742L183.84 71.7128L182.459 71.062L181.393 73.3234ZM182.774 73.9742L183.366 76.4032L184.642 76.0923L184.051 73.6633L183.459 71.2343L182.182 71.5452L182.774 73.9742ZM184.051 73.6633L185.162 75.9027L186.401 75.2877L185.29 73.0482L184.179 70.8088L182.939 71.4238L184.051 73.6633ZM185.29 73.0482L184.407 75.3872L185.772 75.9023L186.655 73.5633L187.538 71.2243L186.173 70.7092L185.29 73.0482ZM186.655 73.5633L187.947 75.7035L189.168 74.9664L187.876 72.8261L186.584 70.6859L185.363 71.423L186.655 73.5633ZM187.876 72.8261L188.943 75.0869L190.185 74.5005L189.118 72.2397L188.051 69.979L186.809 70.5654L187.876 72.8261ZM189.118 72.2397L188.004 74.478L189.399 75.1719L190.513 72.9337L191.626 70.6954L190.232 70.0015L189.118 72.2397ZM190.513 72.9337L190.568 75.4331L191.876 75.4043L191.821 72.9049L191.766 70.4055L190.458 70.4343L190.513 72.9337ZM191.821 72.9049L193.54 74.72L194.712 73.6106L192.992 71.7955L191.273 69.9804L190.102 71.0898L191.821 72.9049ZM192.992 71.7955L193.028 74.2953L194.335 74.2766L194.299 71.7768L194.264 69.2771L192.957 69.2958L192.992 71.7955ZM194.299 71.7768L195.02 74.1708L196.279 73.7918L195.559 71.3979L194.838 69.0039L193.579 69.3829L194.299 71.7768ZM195.559 71.3979L195.047 73.8449L196.395 74.1272L196.908 71.6802L197.42 69.2332L196.071 68.9509L195.559 71.3979ZM196.908 71.6802L196.716 74.1729L198.043 74.2746L198.234 71.7819L198.425 69.2893L197.099 69.1875L196.908 71.6802ZM198.234 71.7819L199.79 73.7388L200.964 72.8053L199.408 70.8484L197.852 68.8916L196.678 69.8251L198.234 71.7819ZM199.408 70.8484L198.75 73.2603L200.121 73.6343L200.779 71.2224L201.437 68.8105L200.066 68.4365L199.408 70.8484ZM200.779 71.2224L200.65 73.7191L201.981 73.7876L202.109 71.2909L202.238 68.7942L200.908 68.7257L200.779 71.2224ZM202.109 71.2909L202.494 73.7612L203.779 73.5613L203.394 71.091L203.01 68.6207L201.725 68.8206L202.109 71.2909ZM203.394 71.091L204.617 73.2716L205.821 72.5967L204.598 70.416L203.376 68.2354L202.172 68.9104L203.394 71.091ZM204.598 70.416L205.415 72.7788L206.655 72.35L205.838 69.9873L205.021 67.6245L203.781 68.0533L204.598 70.416ZM205.838 69.9873L205.949 72.4848L207.26 72.4268L207.15 69.9292L207.039 67.4317L205.728 67.4897L205.838 69.9873ZM207.15 69.9292L207.373 72.4192L208.674 72.3024L208.451 69.8124L208.227 67.3225L206.926 67.4392L207.15 69.9292ZM208.451 69.8124L208.987 72.2543L210.255 71.9757L209.719 69.5339L209.183 67.0921L207.914 67.3706L208.451 69.8124ZM209.719 69.5339L210.05 72.0119L211.346 71.8389L211.016 69.3609L210.685 66.8828L209.388 67.0559L209.719 69.5339ZM211.016 69.3609L212.55 71.3343L213.668 70.4651L212.133 68.4917L210.598 66.5183L209.481 67.3875L211.016 69.3609ZM212.133 68.4917L212.35 70.9823L213.661 70.8682L213.444 68.3776L213.228 65.887L211.916 66.0011L212.133 68.4917ZM213.444 68.3776L214.17 70.77L215.41 70.3941L214.684 68.0017L213.958 65.6093L212.719 65.9852L213.444 68.3776ZM214.684 68.0017L214.465 70.4921L215.869 70.6152L216.087 68.1248L216.306 65.6343L214.902 65.5112L214.684 68.0017ZM216.087 68.1248L217.983 69.7541L218.971 68.6042L217.075 66.9749L215.179 65.3455L214.191 66.4954L216.087 68.1248ZM217.075 66.9749L216.68 69.4434L218.135 69.6765L218.53 67.208L218.926 64.7395L217.471 64.5064L217.075 66.9749ZM218.53 67.208L220.429 68.8349L221.405 67.6953L219.507 66.0684L217.609 64.4415L216.632 65.5812L218.53 67.208ZM219.507 66.0684L219.791 68.5522L221.114 68.401L220.83 65.9172L220.546 63.4333L219.223 63.5846L219.507 66.0684ZM220.83 65.9172L221.407 68.3495L222.683 68.0465L222.105 65.6142L221.527 63.1819L220.252 63.4849L220.83 65.9172ZM222.105 65.6142L223.291 67.8151L224.443 67.1941L223.257 64.9932L222.072 62.7923L220.919 63.4133L222.105 65.6142ZM223.257 64.9932L224.721 67.0198L225.806 66.2362L224.342 64.2096L222.878 62.183L221.793 62.9666L223.257 64.9932ZM224.342 64.2096L224.153 66.7024L225.598 66.8119L225.787 64.3191L225.976 61.8262L224.531 61.7167L224.342 64.2096ZM225.787 64.3191L227.501 66.1389L228.512 65.187L226.798 63.3672L225.083 61.5474L224.073 62.4993L225.787 64.3191ZM226.798 63.3672L226.495 65.8488L227.99 66.0309L228.292 63.5493L228.594 61.0676L227.1 60.8855L226.798 63.3672ZM228.292 63.5493L229.385 65.7976L230.558 65.2275L229.465 62.9792L228.371 60.7308L227.199 61.3009L228.292 63.5493ZM229.465 62.9792L230.21 65.3655L231.468 64.9726L230.723 62.5862L229.978 60.1998L228.719 60.5928L229.465 62.9792ZM230.723 62.5862L232.874 63.8605L233.67 62.5163L231.519 61.242L229.369 59.9678L228.572 61.312L230.723 62.5862ZM231.519 61.242L231.649 63.7387L233.068 63.6651L232.939 61.1684L232.809 58.6718L231.39 58.7454L231.519 61.242ZM232.939 61.1684L235.072 62.4719L235.859 61.1841L233.726 59.8806L231.592 58.5771L230.805 59.8649L232.939 61.1684ZM233.726 59.8806L233.584 62.3766L235.119 62.4637L235.261 59.9677L235.402 57.4717L233.867 57.3846L233.726 59.8806ZM235.261 59.9677L237.385 61.2851L238.152 60.049L236.027 58.7316L233.902 57.4142L233.136 58.6503L235.261 59.9677ZM236.027 58.7316L237.258 60.9078L238.368 60.2799L237.138 58.1037L235.907 55.9275L234.797 56.5554L236.027 58.7316ZM237.138 58.1037L238.666 60.0824L239.68 59.2993L238.152 57.3207L236.624 55.342L235.61 56.125L237.138 58.1037ZM238.152 57.3207L239.933 59.075L240.835 58.159L239.054 56.4047L237.273 54.6503L236.37 55.5663L238.152 57.3207ZM239.054 56.4047L240.241 58.6045L241.46 57.9465L240.273 55.7467L239.085 53.5468L237.866 54.2048L239.054 56.4047ZM240.273 55.7467L242.641 56.5458L243.083 55.2361L240.714 54.437L238.346 53.6378L237.904 54.9475L240.273 55.7467ZM240.714 54.437L241.857 56.6604L243.17 55.9855L242.027 53.762L240.885 51.5386L239.572 52.2135L240.714 54.437ZM242.027 53.762L244.52 53.9548L244.634 52.4833L242.141 52.2906L239.649 52.0978L239.535 53.5693L242.027 53.762ZM242.141 52.2906L244.271 53.6002L244.947 52.4999L242.818 51.1903L240.688 49.8807L240.012 50.981L242.141 52.2906ZM242.818 51.1903L244.704 52.8316L245.592 51.8106L243.706 50.1693L241.821 48.5281L240.932 49.549L242.818 51.1903ZM243.706 50.1693L246.206 50.1305L246.184 48.73L243.685 48.7688L241.185 48.8076L241.207 50.2081L243.706 50.1693ZM243.685 48.7688L246.168 49.0588L246.316 47.7933L243.832 47.5034L241.349 47.2135L241.202 48.4789L243.685 48.7688ZM243.832 47.5034L245.796 49.0503L246.691 47.9146L244.727 46.3678L242.763 44.821L241.868 45.9566L243.832 47.5034ZM244.727 46.3678L247.197 45.9838L246.99 44.6544L244.52 45.0384L242.05 45.4225L242.257 46.7518L244.727 46.3678ZM244.52 45.0384L247.01 44.8141L246.894 43.5221L244.404 43.7464L241.914 43.9707L242.03 45.2627L244.52 45.0384ZM244.404 43.7464L246.901 43.6252L246.839 42.3436L244.342 42.4648L241.845 42.586L241.907 43.8675L244.404 43.7464ZM244.342 42.4648L246.586 43.5667L247.234 42.2464L244.99 41.1445L242.746 40.0425L242.098 41.3628L244.342 42.4648ZM244.99 41.1445L247.486 41.2854L247.56 39.9668L245.064 39.8259L242.568 39.6849L242.494 41.0035L244.99 41.1445ZM245.064 39.8259L247.465 39.1266L247.092 37.8477L244.692 38.547L242.292 39.2462L242.664 40.5251L245.064 39.8259ZM244.692 38.547L246.89 37.3555L246.226 36.131L244.028 37.3224L241.83 38.5139L242.494 39.7385L244.692 38.547ZM244.028 37.3224L246.368 38.2032L246.892 36.8109L244.552 35.9302L242.212 35.0494L241.688 36.4417L244.028 37.3224ZM244.552 35.9302L246.402 34.2482L245.363 33.1056L243.513 34.7875L241.663 36.4695L242.702 37.6121L244.552 35.9302ZM243.513 34.7875L245.897 35.5399L246.34 34.1353L243.956 33.3829L241.572 32.6305L241.129 34.0351L243.513 34.7875ZM243.956 33.3829L246.429 33.0156L246.237 31.7223L243.764 32.0895L241.291 32.4567L241.483 33.7501L243.956 33.3829ZM243.764 32.0895L245.506 30.2957L244.393 29.2158L242.652 31.0096L240.91 32.8034L242.023 33.8833L243.764 32.0895ZM242.652 31.0096L245.118 31.4185L245.349 30.0285L242.882 29.6196L240.416 29.2106L240.186 30.6007L242.652 31.0096ZM242.882 29.6196L245.381 29.5322L245.334 28.198L242.836 28.2853L240.337 28.3726L240.384 29.7069L242.882 29.6196ZM242.836 28.2853L244.705 26.6258L243.745 25.5432L241.875 27.2027L240.005 28.8623L240.966 29.9448L242.836 28.2853ZM241.875 27.2027L244.364 26.9665L244.239 25.651L241.75 25.8872L239.261 26.1234L239.386 27.439L241.875 27.2027ZM241.75 25.8872L243.977 24.7509L243.379 23.5787L241.152 24.7149L238.925 25.8512L239.523 27.0234L241.75 25.8872ZM241.152 24.7149L243.622 25.0992L243.849 23.6389L241.379 23.2547L238.909 22.8704L238.682 24.3307L241.152 24.7149ZM241.379 23.2547L243.113 21.4539L242.082 20.4614L240.348 22.2622L238.614 24.063L239.645 25.0555L241.379 23.2547ZM240.348 22.2622L242.829 21.9553L242.661 20.5959L240.18 20.9028L237.699 21.2098L237.867 22.5692L240.348 22.2622ZM240.18 20.9028L241.596 18.8426L240.442 18.0493L239.026 20.1094L237.61 22.1696L238.764 22.963L240.18 20.9028ZM239.026 20.1094L241.415 19.3741L241.004 18.0389L238.615 18.7743L236.226 19.5097L236.637 20.8448L239.026 20.1094ZM238.615 18.7743L240.479 17.1086L239.89 16.4488L238.026 18.1145L236.161 19.7802L236.751 20.44L238.615 18.7743ZM238.026 18.1145L236.364 16.2467L236.209 16.3842L237.871 18.2519L239.533 20.1197L239.687 19.9823L238.026 18.1145Z" fill="#128FD2"/>
</svg>
