<svg width="161" height="87" viewBox="0 0 161 87" fill="none" xmlns="http://www.w3.org/2000/svg">
<path d="M31.7836 76.3045C30.2508 76.2407 28.9565 77.4315 28.8926 78.9643C28.8288 80.4971 30.0196 81.7914 31.5524 81.8552L31.668 79.0799L31.7836 76.3045ZM31.7679 79.084L32.9313 76.5616L32.4324 76.3315L31.8835 76.3087L31.7679 79.084ZM33.0663 79.6829L31.903 82.2053L33.0788 82.7476L34.2501 82.1958L33.0663 79.6829ZM34.5665 78.9762L34.3034 76.2109L33.821 76.2568L33.3826 76.4633L34.5665 78.9762ZM36.0137 78.8385L36.4957 76.1028L36.1252 76.0376L35.7507 76.0732L36.0137 78.8385ZM37.4443 79.0905L38.5328 76.5349L38.2398 76.4101L37.9263 76.3549L37.4443 79.0905ZM38.8607 79.6938L37.7723 82.2494L37.9783 82.3371L38.1956 82.3907L38.8607 79.6938ZM40.295 80.0475L39.63 82.7445L40.6684 83.0005L41.6104 82.4941L40.295 80.0475ZM41.7701 79.2545L42.5813 76.5978L41.4742 76.2598L40.4547 76.8079L41.7701 79.2545ZM43.2012 79.6915L42.39 82.3482L42.3964 82.3502L43.2012 79.6915ZM44.6293 80.1238L43.8245 82.7824L44.8419 83.0904L45.805 82.6405L44.6293 80.1238ZM46.0967 79.4383L47.3117 76.9403L46.1208 76.3611L44.9211 76.9216L46.0967 79.4383ZM47.5256 80.1332L46.3106 82.6312L46.5909 82.7675L46.8944 82.8383L47.5256 80.1332ZM48.9614 80.4683L48.3302 83.1734L48.783 83.279L49.2455 83.2315L48.9614 80.4683ZM50.4091 80.3194L50.166 77.5523L50.1455 77.5541L50.125 77.5562L50.4091 80.3194ZM51.8565 80.1923L52.0995 82.9594L52.1066 82.9588L52.1137 82.9581L51.8565 80.1923ZM53.3038 80.0576L54.3003 77.4647L53.6936 77.2316L53.0466 77.2918L53.3038 80.0576ZM54.7392 80.6092L53.7428 83.2022L55.2305 83.7739L56.4749 82.778L54.7392 80.6092ZM56.2033 79.4375L56.9968 76.7755L55.6031 76.36L54.4676 77.2688L56.2033 79.4375ZM57.6418 79.8663L58.5837 77.2531L58.5102 77.2266L58.4353 77.2043L57.6418 79.8663ZM59.084 80.3862L58.1422 82.9994L58.7956 83.2349L59.4829 83.1352L59.084 80.3862ZM60.5324 80.176L60.9313 82.925L61.151 82.8931L61.3629 82.8267L60.5324 80.176ZM61.9669 79.7265L63.1359 77.2067L62.1615 76.7546L61.1364 77.0758L61.9669 79.7265ZM63.436 80.4081L62.267 82.9279L63.5505 83.5233L64.7868 82.8353L63.436 80.4081ZM64.8435 79.6248L65.1284 76.8617L64.2576 76.7719L63.4926 77.1976L64.8435 79.6248ZM66.298 79.7748L66.0131 82.5379L66.0514 82.5418L66.0899 82.5447L66.298 79.7748ZM67.7563 79.8844L67.5481 82.6543L68.1505 82.6996L68.7173 82.4906L67.7563 79.8844ZM69.1583 79.3674L68.3321 76.7153L68.2641 76.7365L68.1973 76.7612L69.1583 79.3674ZM70.5599 78.9308L71.6159 76.3616L70.6897 75.9808L69.7336 76.2787L70.5599 78.9308ZM72.087 79.5585L71.0309 82.1277L72.4168 82.6974L73.6541 81.8521L72.087 79.5585ZM73.4257 78.6439L73.5729 75.87L72.6345 75.8202L71.8587 76.3503L73.4257 78.6439ZM74.8909 78.7216L75.1371 75.9548L75.0877 75.9504L75.0381 75.9477L74.8909 78.7216ZM76.3709 78.8533L76.1247 81.6201L76.7973 81.68L77.4222 81.4244L76.3709 78.8533ZM77.745 78.2914L77.8872 75.5173L77.2678 75.4856L76.6937 75.7203L77.745 78.2914ZM79.2209 78.3671L79.0788 81.1412L79.2645 81.1507L79.4499 81.1354L79.2209 78.3671ZM80.6662 78.2475L80.8951 81.0159L81.144 80.9953L81.3853 80.9306L80.6662 78.2475ZM82.0689 77.8716L82.1733 75.0958L81.7546 75.08L81.3498 75.1885L82.0689 77.8716ZM83.5462 77.9272L83.4418 80.703L83.6704 80.7116L83.8974 80.6826L83.5462 77.9272ZM84.984 77.7439L85.3351 80.4994L85.738 80.4481L86.1092 80.2836L84.984 77.7439ZM86.3416 77.1424L87.4669 79.682L87.5912 79.627L87.7095 79.56L86.3416 77.1424ZM87.6691 76.3913L87.1171 73.6689L86.685 73.7565L86.3012 73.9737L87.6691 76.3913ZM89.0849 76.1042L88.7953 73.3415L88.6631 73.3554L88.5328 73.3818L89.0849 76.1042ZM90.5255 75.9532L90.8151 78.7158L91.2765 78.6675L91.6973 78.4717L90.5255 75.9532ZM91.8708 75.3273L92.4131 72.603L91.5224 72.4257L90.6991 72.8087L91.8708 75.3273ZM93.4087 75.6334L92.8664 78.3577L93.7987 78.5433L94.6493 78.1187L93.4087 75.6334ZM94.7441 74.9668L93.8618 72.3329L93.6774 72.3946L93.5035 72.4814L94.7441 74.9668ZM96.1204 74.5057L95.4831 71.802L95.359 71.8313L95.2381 71.8718L96.1204 74.5057ZM97.5248 74.1747L97.5463 71.397L97.2124 71.3944L96.8875 71.471L97.5248 74.1747ZM99.0066 74.1862L98.9851 76.9639L99.1464 76.9651L99.3067 76.9477L99.0066 74.1862ZM100.452 74.0291L100.752 76.7906L100.936 76.7706L101.116 76.7264L100.452 74.0291ZM101.855 73.6839L101.763 70.9076L101.473 70.9172L101.191 70.9866L101.855 73.6839ZM103.328 73.6352L103.42 76.4114L104.136 76.3878L104.751 76.0208L103.328 73.6352ZM104.628 72.8599L105.264 70.1559L104.17 69.8988L103.205 70.4743L104.628 72.8599ZM106.206 73.2309L105.571 75.935L107.137 76.3032L108.236 75.1272L106.206 73.2309ZM107.383 71.9717L108.262 69.3368L106.571 68.7721L105.353 70.0753L107.383 71.9717ZM109.011 72.5151L108.131 75.15L109.042 75.4541L109.946 75.1307L109.011 72.5151ZM110.378 72.026L111.314 74.6415L111.524 74.5665L111.719 74.4591L110.378 72.026ZM111.684 71.3069L113.024 73.74L113.099 73.699L113.171 73.6535L111.684 71.3069ZM112.963 70.4966L111.877 67.9398L111.669 68.0285L111.477 68.15L112.963 70.4966ZM114.303 69.9276L115.179 67.2915L114.183 66.9606L113.217 67.3708L114.303 69.9276ZM115.952 70.4754L115.076 73.1115L115.955 73.4035L116.833 73.1097L115.952 70.4754ZM117.326 70.0156L117.098 67.2473L116.764 67.2748L116.445 67.3813L117.326 70.0156ZM118.798 69.8944L119.026 72.6628L120.352 72.5534L121.098 71.4514L118.798 69.8944ZM119.846 68.3458L120.554 65.6599L118.65 65.1574L117.545 66.7888L119.846 68.3458ZM121.486 68.7786L120.778 71.4645L122.413 71.8957L123.547 70.6417L121.486 68.7786ZM122.61 67.5362L123.214 64.825L121.635 64.4729L120.55 65.673L122.61 67.5362ZM124.244 67.9005L123.64 70.6117L124.163 70.7283L124.692 70.642L124.244 67.9005ZM125.689 67.6646L126.137 70.4061L127.236 70.2268L127.906 69.3383L125.689 67.6646ZM126.743 66.2697L125.731 63.6826L124.999 63.9687L124.526 64.596L126.743 66.2697ZM128.085 65.7451L129.096 68.3322L129.112 68.3259L129.128 68.3193L128.085 65.7451ZM129.418 65.2045L129.428 62.4267L128.881 62.4247L128.374 62.6302L129.418 65.2045ZM130.959 65.2102L130.949 67.9879L131.74 67.9909L132.415 67.576L130.959 65.2102ZM132.208 64.442L133.663 66.8078L133.732 66.7653L133.799 66.7189L132.208 64.442ZM133.418 63.5964L133.872 60.8561L132.755 60.6707L131.826 61.3195L133.418 63.5964ZM135.101 63.8758L134.647 66.6161L136.253 66.8826L137.27 65.6116L135.101 63.8758ZM136.119 62.6045L134.853 60.132L134.322 60.4035L133.95 60.8686L136.119 62.6045ZM137.398 61.9491L136.352 59.376L136.24 59.4215L136.132 59.4767L137.398 61.9491ZM138.731 61.4072L137.881 58.7626L137.782 58.7946L137.685 58.834L138.731 61.4072ZM140.118 60.9616L139.896 58.1927L139.575 58.2184L139.268 58.317L140.118 60.9616ZM141.683 60.8366L141.904 63.6055L142.774 63.536L143.447 62.982L141.683 60.8366ZM142.823 59.8987L144.588 62.0441L144.756 61.9056L144.901 61.7425L142.823 59.8987ZM143.832 58.7626L142.63 56.2581L142.126 56.5001L141.754 56.9187L143.832 58.7626ZM145.134 58.1377L144.739 55.3883L144.317 55.4489L143.933 55.6332L145.134 58.1377ZM146.719 57.9096L147.115 60.659L148.506 60.4589L149.169 59.2202L146.719 57.9096ZM147.483 56.4834L145.703 54.3503L145.288 54.6964L145.033 55.1728L147.483 56.4834ZM148.585 55.5638L150.364 57.6969L150.501 57.5827L150.622 57.452L148.585 55.5638ZM149.564 54.5072L148.842 51.8251L148.07 52.0329L147.527 52.6191L149.564 54.5072ZM151.125 54.0868L151.848 56.769L152.23 56.6661L152.568 56.4605L151.125 54.0868ZM152.408 53.3074L153.85 55.681L154.28 55.4198L154.591 55.0243L152.408 53.3074ZM153.317 52.1508L151.375 50.1646L151.245 50.2914L151.133 50.4339L153.317 52.1508ZM154.367 51.1245L156.309 53.1107L156.632 52.7943L156.839 52.3916L154.367 51.1245ZM155.065 49.7615L157.537 51.0286L157.639 50.8309L157.707 50.6196L155.065 49.7615ZM155.527 48.3394L158.169 49.1976L158.243 48.9693L158.277 48.7317L155.527 48.3394ZM155.735 46.8806L153.005 46.37L152.994 46.429L152.985 46.4884L155.735 46.8806ZM155.997 45.4799L153.703 43.9138L153.374 44.3957L153.267 44.9692L155.997 45.4799ZM156.894 44.1661L159.188 45.7321L159.693 44.992L159.671 44.0962L156.894 44.1661ZM156.857 42.6928L159.634 42.6229L159.619 42.0309L159.364 41.4965L156.857 42.6928ZM156.157 41.2265L153.691 39.9479L153.055 41.1751L153.65 42.4228L156.157 41.2265ZM156.904 39.7874L159.369 41.0661L160.076 39.7031L159.298 38.3796L156.904 39.7874ZM156.079 38.3849L153.301 38.3471L153.291 39.1235L153.684 39.7928L156.079 38.3849ZM156.098 36.9498L153.46 36.081L153.327 36.4859L153.321 36.9121L156.098 36.9498ZM156.592 35.4495L159.231 36.3183L159.486 35.5429L159.281 34.7526L156.592 35.4495ZM156.227 34.0402L153.535 34.723L153.536 34.7301L153.538 34.7371L156.227 34.0402ZM155.873 32.6429L153.095 32.6567L153.097 32.9964L153.18 33.3258L155.873 32.6429ZM155.865 31.1261L158.643 31.1123L158.637 29.9718L157.832 29.1643L155.865 31.1261ZM154.745 30.0033L152.153 31.0003L152.363 31.549L152.779 31.9651L154.745 30.0033ZM154.231 28.6659L151.55 29.3916L151.587 29.5295L151.638 29.6629L154.231 28.6659ZM153.846 27.2442L156.527 26.5185L156.399 26.043L156.114 25.6407L153.846 27.2442ZM153.007 26.0578L150.481 27.2119L150.589 27.4487L150.739 27.6613L153.007 26.0578ZM152.403 24.7337L154.929 23.5796L154.742 23.1687L154.433 22.8385L152.403 24.7337ZM151.403 23.6621L148.754 24.4982L148.943 25.0977L149.372 25.5573L151.403 23.6621ZM150.947 22.2182L153.596 21.3821L153.249 20.2844L152.228 19.7535L150.947 22.2182ZM149.516 21.4742L146.743 21.6513L146.843 23.2158L148.234 23.9389L149.516 21.4742ZM149.405 19.7408L152.177 19.5637L152.111 18.5395L151.396 17.8039L149.405 19.7408ZM148.355 18.6621L150.346 16.7252L150.318 16.6964L150.29 16.6685L148.355 18.6621ZM147.289 17.6277L149.223 15.6341L148.609 15.038L147.766 14.8912L147.289 17.6277ZM145.656 17.3433L143.289 18.7974L143.945 19.8649L145.179 20.0798L145.656 17.3433ZM144.847 16.0263L147.213 14.5722L146.825 13.9396L146.172 13.5853L144.847 16.0263ZM143.563 15.329L144.888 12.8879L144.857 12.8708L144.825 12.8545L143.563 15.329ZM142.278 14.6738L140.639 16.9167L140.818 17.0475L141.016 17.1483L142.278 14.6738ZM141.091 13.8068L142.73 11.5639L142.099 11.1027L141.32 11.0384L141.091 13.8068ZM139.575 13.6816L139.038 16.4071L139.191 16.4372L139.346 16.45L139.575 13.6816ZM138.144 13.4L135.801 14.8918L136.44 15.8956L137.607 16.1255L138.144 13.4ZM137.175 11.8776L139.518 10.3858L139.02 9.60311L138.151 9.27704L137.175 11.8776ZM135.817 11.368L136.793 8.76739L136.297 8.58116L135.767 8.59065L135.817 11.368ZM134.268 11.3957L133.355 14.0192L133.823 14.1819L134.318 14.1731L134.268 11.3957ZM132.908 10.9224L131.614 13.3806L131.798 13.4775L131.995 13.5459L132.908 10.9224ZM131.611 10.2403L130.3 12.6891L130.309 12.6938L130.318 12.6985L131.611 10.2403ZM130.321 9.54934L131.633 7.10061L131.005 6.76433L130.292 6.77171L130.321 9.54934ZM128.789 9.56522L127.832 12.1729L128.309 12.3481L128.818 12.3428L128.789 9.56522ZM127.434 9.06802L125.911 11.391L126.178 11.5658L126.477 11.6757L127.434 9.06802ZM126.183 8.24769L127.706 5.92473L127.319 5.6706L126.87 5.55607L126.183 8.24769ZM124.779 7.88955L125.465 5.19793L125.458 5.19606L125.451 5.19423L124.779 7.88955ZM123.372 7.53881L122.19 10.0525L122.436 10.1683L122.7 10.2341L123.372 7.53881ZM122.053 6.9185L123.235 4.4048L123.218 4.39681L123.201 4.38904L122.053 6.9185ZM120.728 6.31745L121.876 3.78799L121.715 3.71488L121.546 3.66279L120.728 6.31745ZM119.34 5.88983L120.158 3.23518L120.039 3.19844L119.917 3.17255L119.34 5.88983ZM117.91 5.58646L118.487 2.86918L117.668 2.69531L116.889 3.0034L117.91 5.58646ZM116.245 6.24519L114.597 8.48135L115.836 9.39423L117.267 8.82825L116.245 6.24519ZM114.987 5.31777L116.635 3.08162L115.929 2.56143L115.052 2.54077L114.987 5.31777ZM113.524 5.2833L112.211 7.73136L112.796 8.04468L113.459 8.06031L113.524 5.2833ZM112.181 4.56296L113.493 2.1149L113.127 1.91845L112.719 1.83787L112.181 4.56296ZM110.754 4.28106L111.292 1.55596L110.689 1.43679L110.092 1.58327L110.754 4.28106ZM109.256 4.64852L109.257 7.4263L109.592 7.4262L109.918 7.34631L109.256 4.64852ZM107.811 4.64894L106.15 6.8756L106.889 7.42699L107.811 7.42672L107.811 4.64894ZM106.439 3.62607L108.1 1.39942L106.508 0.211883L104.869 1.33456L106.439 3.62607ZM104.924 4.66424L103.098 6.75779L104.72 8.17157L106.494 6.95575L104.924 4.66424ZM103.543 3.46035L105.369 1.3668L103.926 0.108099L102.236 1.00949L103.543 3.46035ZM102.06 4.25197L101.367 6.94194L102.413 7.21155L103.367 6.70283L102.06 4.25197ZM100.63 3.88367L101.323 1.1937L101.28 1.18274L101.237 1.17313L100.63 3.88367ZM99.1943 3.56197L99.8017 0.851432L99.5304 0.790632L99.2525 0.784806L99.1943 3.56197ZM97.7496 3.5317L97.8078 0.754529L97.3874 0.745718L96.9832 0.861741L97.7496 3.5317ZM96.2936 3.94965L96.5427 6.71623L96.8059 6.69252L97.06 6.6196L96.2936 3.94965ZM94.8463 4.07998L93.7011 6.61073L94.3672 6.91214L95.0954 6.84657L94.8463 4.07998ZM93.4132 3.43153L94.5584 0.90079L93.9119 0.608268L93.2044 0.661618L93.4132 3.43153ZM91.9666 3.54061L91.7578 0.770691L91.4709 0.792318L91.1946 0.872257L91.9666 3.54061ZM90.5168 3.96006L89.5043 6.54672L90.3827 6.89056L91.2888 6.62841L90.5168 3.96006ZM89.0773 3.39658L90.0898 0.809914L89.1161 0.428752L88.1327 0.784338L89.0773 3.39658ZM87.6294 3.92014L86.3683 6.39513L87.4414 6.94194L88.574 6.53238L87.6294 3.92014ZM86.1872 3.18528L87.4484 0.71029L86.0544 1.57356e-05L84.7245 0.823844L86.1872 3.18528ZM84.7417 4.08072L83.8916 6.72524L85.1134 7.11796L86.2044 6.44216L84.7417 4.08072ZM83.2966 3.61623L82.3795 6.23825L82.4129 6.24993L82.4466 6.26075L83.2966 3.61623ZM81.8495 3.11006L82.7666 0.488049L81.455 0.0292757L80.3013 0.803749L81.8495 3.11006ZM80.411 4.07568L79.9241 6.81044L81.0281 7.00704L81.9592 6.38199L80.411 4.07568ZM78.9643 3.81807L77.9685 6.41121L78.2161 6.50632L78.4773 6.55283L78.9643 3.81807ZM77.5122 3.26041L78.508 0.667272L77.1553 0.14778L75.9552 0.959976L77.5122 3.26041ZM76.0852 4.22618L75.1962 6.85787L76.5013 7.29872L77.6422 6.52661L76.0852 4.22618ZM74.6306 3.73482L75.5196 1.10313L74.5743 0.783827L73.6419 1.13894L74.6306 3.73482ZM73.2014 4.27914L73.2422 7.05662L73.7321 7.04942L74.1901 6.87502L73.2014 4.27914ZM71.7585 4.30034L70.2048 6.60298L70.9276 7.09062L71.7993 7.07781L71.7585 4.30034ZM70.2722 3.29746L71.8258 0.994811L70.3668 0.0103729L68.8536 0.909226L70.2722 3.29746ZM68.8663 4.13251L69.4948 6.83826L69.9145 6.74077L70.2849 6.52074L68.8663 4.13251ZM67.4446 4.46275L66.7259 7.14594L67.3966 7.32561L68.0731 7.16849L67.4446 4.46275ZM65.9668 4.06692L66.6855 1.38373L65.5424 1.07754L64.5297 1.68978L65.9668 4.06692ZM64.6019 4.89208L64.7262 7.66707L65.4333 7.6354L66.039 7.26922L64.6019 4.89208ZM63.1662 4.95639L62.1449 7.53961L62.6972 7.75796L63.2905 7.73138L63.1662 4.95639ZM61.6245 4.34687L62.6458 1.76365L61.7423 1.40648L60.8132 1.6902L61.6245 4.34687ZM60.2261 4.7739L59.4148 2.11723L58.9468 2.26016L58.5557 2.55446L60.2261 4.7739ZM58.9309 5.74866L57.844 8.30495L59.3199 8.93249L60.6013 7.96809L58.9309 5.74866ZM57.3401 5.07225L58.427 2.51595L57.2703 2.02413L56.1373 2.56837L57.3401 5.07225ZM55.9903 5.72061L56.8697 8.35554L57.0355 8.30019L57.1931 8.22449L55.9903 5.72061ZM54.6074 6.18212L54.8837 8.94612L55.1924 8.91526L55.4867 8.81705L54.6074 6.18212ZM53.1635 6.32644L52.636 9.05367L53.0352 9.13089L53.4398 9.09045L53.1635 6.32644ZM51.6299 6.02981L52.1575 3.30258L51.1224 3.10237L50.2152 3.63929L51.6299 6.02981ZM50.3149 6.80806L50.0726 9.57525L50.9616 9.65309L51.7296 9.19858L50.3149 6.80806ZM48.8122 6.6765L49.0545 3.9093L48.2344 3.8375L47.5076 4.22412L48.8122 6.6765ZM47.4827 7.38373L47.8805 10.1329L48.3598 10.0635L48.7873 9.8361L47.4827 7.38373ZM46.0494 7.59113L45.6516 4.84199L45.559 4.85538L45.4676 4.87497L46.0494 7.59113ZM44.6378 7.89351L44.4479 10.6648L44.8376 10.6915L45.2196 10.6097L44.6378 7.89351ZM43.1271 7.79002L43.317 5.01873L42.2741 4.94728L41.4428 5.5811L43.1271 7.79002ZM41.8705 8.74817L43.4139 11.0577L43.4859 11.0096L43.5548 10.9571L41.8705 8.74817ZM40.5926 9.6021L39.5651 12.1829L40.9218 12.723L42.136 11.9117L40.5926 9.6021ZM38.9364 8.94268L39.9639 6.36192L38.8923 5.93528L37.8337 6.39315L38.9364 8.94268ZM37.5929 9.52375L36.4902 6.97422L36.46 6.98728L36.4301 7.00105L37.5929 9.52375ZM36.2619 10.1372L36.4173 12.9107L36.9448 12.8811L37.4247 12.6599L36.2619 10.1372ZM34.779 10.2204L34.6236 7.44693L33.4387 7.51334L32.6676 8.41541L34.779 10.2204ZM33.6722 11.5152L32.9725 14.2034L34.6544 14.6411L35.7836 13.3201L33.6722 11.5152ZM32.0046 11.0811L32.7042 8.39293L31.3461 8.03945L30.2557 8.92301L32.0046 11.0811ZM30.8216 12.0398L31.7163 14.6695L32.1854 14.5099L32.5705 14.1979L30.8216 12.0398ZM29.4492 12.5067L28.5545 9.87693L28.2531 9.97946L27.9828 10.1475L29.4492 12.5067ZM28.2154 13.2736L29.6232 15.6682L29.6527 15.6508L29.6818 15.6328L28.2154 13.2736ZM26.9684 14.0067L26.8467 16.7818L27.6678 16.8178L28.3763 16.4013L26.9684 14.0067ZM25.31 13.9339L25.4318 11.1588L23.5604 11.0767L22.7829 12.7808L25.31 13.9339ZM24.5538 15.5913L25.7177 18.1135L26.6532 17.6818L27.0809 16.7444L24.5538 15.5913ZM23.2463 16.1947L23.8508 18.9059L24.1406 18.8413L24.4102 18.7168L23.2463 16.1947ZM21.7745 16.5228L21.1701 13.8116L20.1947 14.029L19.5814 14.818L21.7745 16.5228ZM20.8276 17.7409L22.0731 20.2238L22.6349 19.942L23.0207 19.4457L20.8276 17.7409ZM19.5383 18.3877L18.2928 15.9047L18.1273 15.9878L17.9742 16.0921L19.5383 18.3877ZM18.3522 19.1958L18.6062 21.9619L19.3222 21.8962L19.9163 21.4914L18.3522 19.1958ZM16.7093 19.3467L16.4552 16.5805L15.9702 16.6251L15.5293 16.832L16.7093 19.3467ZM15.3706 19.9748L14.1906 17.4601L13.083 17.9798L12.7188 19.1478L15.3706 19.9748ZM14.8385 21.6809L16.5927 23.8347L17.2413 23.3064L17.4903 22.5079L14.8385 21.6809ZM13.7285 22.585L14.4688 25.2623L15.0307 25.107L15.4827 24.7388L13.7285 22.585ZM12.2037 23.0066L11.4634 20.3293L10.7512 20.5262L10.231 21.0509L12.2037 23.0066ZM11.1811 24.038L9.2085 22.0823L9.17596 22.1151L9.14454 22.149L11.1811 24.038ZM10.1962 25.0998L8.15964 23.2108L7.84033 23.5551L7.65191 23.9852L10.1962 25.0998ZM9.60282 26.4543L11.4188 28.5563L11.8948 28.1451L12.1471 27.569L9.60282 26.4543ZM8.47106 27.4321L6.65507 25.3302L6.10154 25.8084L5.85534 26.4972L8.47106 27.4321ZM7.97858 28.81L5.36286 27.8751L5.35299 27.9027L5.3437 27.9305L7.97858 28.81ZM7.52075 30.1817L9.36001 32.2633L9.91933 31.7691L10.1556 31.0611L7.52075 30.1817ZM6.32442 31.2387L4.48516 29.1571L3.26396 30.2361L3.60999 31.8286L6.32442 31.2387ZM6.69322 32.936L9.08024 34.3566L9.6401 33.4159L9.40765 32.3461L6.69322 32.936ZM5.94632 34.191L3.5593 32.7703L3.36259 33.1008L3.2631 33.4724L5.94632 34.191ZM5.57216 35.5881L7.67518 37.4029L8.09081 36.9212L8.25539 36.3067L5.57216 35.5881ZM4.55929 36.7619L2.45628 34.9471L1.7386 35.7788L1.78388 36.8764L4.55929 36.7619ZM4.62199 38.2815L7.3669 38.7075L7.40862 38.4387L7.3974 38.167L4.62199 38.2815ZM4.40495 39.6798L7.03318 40.5789L7.11234 40.3475L7.14986 40.1059L4.40495 39.6798ZM3.93821 41.0441L1.30998 40.145L1.24237 40.3426L1.20507 40.5481L3.93821 41.0441ZM3.68143 42.4591L6.37043 43.1557L6.39621 43.0562L6.41457 42.9551L3.68143 42.4591ZM3.31243 43.8834L0.623433 43.1867L0.414271 43.994L0.684392 44.7831L3.31243 43.8834ZM3.80971 45.3359L6.19843 46.7537L6.85336 45.6502L6.43775 44.4362L3.80971 45.3359ZM2.9494 46.7854L0.56068 45.3676L-0.000225782 46.3127L0.237258 47.3857L2.9494 46.7854ZM3.26868 48.228L6.04581 48.1683L6.03994 47.8948L5.98082 47.6277L3.26868 48.228ZM3.29976 49.6748L0.522622 49.7345L0.532548 50.1966L0.691566 50.6305L3.29976 49.6748ZM3.82025 51.0953L6.45569 51.9731L6.76262 51.0516L6.42845 50.1396L3.82025 51.0953ZM3.32864 52.5713L0.693198 51.6935L0.4419 52.448L0.627953 53.2212L3.32864 52.5713ZM3.67541 54.0124L0.974728 54.6623L1.06167 55.0236L1.24055 55.3494L3.67541 54.0124ZM4.39528 55.3234L7.16877 55.4776L7.21292 54.6836L6.83014 53.9864L4.39528 55.3234ZM4.30916 56.8722L1.53566 56.7179L1.49789 57.3972L1.77825 58.017L4.30916 56.8722ZM4.91107 58.2029L2.38016 59.3477L2.52759 59.6736L2.75279 59.9515L4.91107 58.2029ZM5.85652 59.3698L8.09652 57.7271L8.05693 57.6731L8.01479 57.6211L5.85652 59.3698ZM6.72695 60.5567L9.4872 60.8683L9.60897 59.7895L8.96695 58.914L6.72695 60.5567ZM6.53713 62.2383L3.77688 61.9267L3.60618 63.439L4.78882 64.3969L6.53713 62.2383ZM7.7824 63.2469L10.2309 61.9351L9.96625 61.4411L9.53072 61.0883L7.7824 63.2469ZM8.4652 64.5214L6.01668 65.8332L6.06296 65.9196L6.11521 66.0025L8.4652 64.5214ZM9.23764 65.747L11.993 66.0995L12.1196 65.11L11.5876 64.2659L9.23764 65.747ZM9.01237 67.5076L6.25705 67.1551L6.03683 68.8762L7.48701 69.8291L9.01237 67.5076ZM10.3522 68.388L12.9294 67.3515L12.6047 66.5443L11.8776 66.0665L10.3522 68.388ZM10.9083 69.7708L8.33113 70.8072L8.73116 71.802L9.69577 72.27L10.9083 69.7708ZM12.3238 70.4576L14.9596 69.5807L14.5899 68.4696L13.5364 67.9585L12.3238 70.4576ZM12.8272 71.9707L10.1915 72.8476L10.6343 74.1788L11.9686 74.6125L12.8272 71.9707ZM14.3258 72.4578L16.8062 71.2073L16.2851 70.1738L15.1844 69.816L14.3258 72.4578ZM15.0406 73.8755L12.5602 75.126L13.1875 76.3703L14.56 76.6114L15.0406 73.8755ZM16.6124 74.1516L18.0631 71.7827L17.6129 71.507L17.093 71.4157L16.6124 74.1516ZM17.8377 74.9019L20.2699 73.5603L19.915 72.9168L19.2884 72.5331L17.8377 74.9019ZM18.6306 76.3394L16.1983 77.681L16.8925 78.9396L18.3209 79.0998L18.6306 76.3394ZM20.2114 76.5167L22.315 74.7026L21.6036 73.8777L20.521 73.7562L20.2114 76.5167ZM21.2141 77.6794L19.1105 79.4935L19.2293 79.6313L19.3651 79.7524L21.2141 77.6794ZM22.3335 78.6778L20.4845 80.7509L21.3866 81.5555L22.5903 81.4437L22.3335 78.6778ZM24.022 78.5211L25.4166 76.1187L24.649 75.6731L23.7652 75.7552L24.022 78.5211ZM25.2718 79.2466L23.8773 81.6489L24.0039 81.7224L24.1375 81.7822L25.2718 79.2466ZM26.5868 79.8348L28.4313 77.7578L28.1115 77.4738L27.7211 77.2992L26.5868 79.8348ZM27.7325 80.8523L25.888 82.9293L26.5911 83.5537L27.5289 83.6226L27.7325 80.8523ZM29.2384 80.963L31.0566 78.863L30.3604 78.2602L29.442 78.1927L29.2384 80.963ZM30.4301 81.9948L28.6119 84.0948L29.2478 84.6454L30.0824 84.7507L30.4301 81.9948ZM31.8966 82.1798L32.391 79.4464L32.318 79.4332L32.2444 79.4239L31.8966 82.1798ZM33.3313 82.4393L33.8665 79.7136L33.8461 79.7096L33.8257 79.7059L33.3313 82.4393ZM34.7584 82.7195L34.2233 85.4452L34.7474 85.5481L35.2723 85.4493L34.7584 82.7195ZM36.2554 82.4377L37.3989 79.9062L36.6015 79.546L35.7416 79.7079L36.2554 82.4377ZM37.644 83.0649L36.5005 85.5964L37.6184 86.1014L38.7447 85.6153L37.644 83.0649ZM39.1358 82.421L40.2607 79.8812L39.1502 79.3894L38.035 79.8707L39.1358 82.421ZM40.546 83.0457L39.4211 85.5855L40.1108 85.891L40.8603 85.8056L40.546 83.0457ZM42 82.8802L42.5827 80.1642L42.1378 80.0687L41.6857 80.1202L42 82.8802ZM43.4297 83.1869L42.8469 85.9029L43.4465 86.0315L44.0445 85.8958L43.4297 83.1869ZM44.8836 82.8569L46.051 80.3363L45.192 79.9385L44.2687 80.148L44.8836 82.8569ZM46.3128 83.5188L45.1454 86.0394L46.2151 86.5348L47.3146 86.1097L46.3128 83.5188ZM47.7708 82.9551L48.2106 80.2123L47.4693 80.0934L46.769 80.3642L47.7708 82.9551ZM49.2108 83.1859L48.771 85.9287L48.8091 85.9348L48.8473 85.9398L49.2108 83.1859ZM50.6504 83.376L50.2869 86.1299L50.9991 86.2239L51.6676 85.9608L50.6504 83.376ZM52.1114 82.801L52.2452 80.0265L51.6493 79.9977L51.0942 80.2162L52.1114 82.801ZM53.5671 82.8712L55.1224 80.5697L54.4779 80.1341L53.7009 80.0967L53.5671 82.8712ZM54.9569 83.8104L53.4016 86.1119L54.2863 86.7098L55.3436 86.5611L54.9569 83.8104ZM56.4163 83.6052L59.1768 83.9141L59.575 80.356L56.0296 80.8545L56.4163 83.6052ZM53.6515 83.3344C53.4809 84.859 54.5785 86.2332 56.1031 86.4039C57.6277 86.5745 59.002 85.4768 59.1726 83.9522L56.412 83.6433L53.6515 83.3344ZM31.668 79.0799L31.5524 81.8552L31.6523 81.8594L31.7679 79.084L31.8835 76.3087L31.7836 76.3045L31.668 79.0799ZM31.7679 79.084L30.6046 81.6065L31.903 82.2053L33.0663 79.6829L34.2297 77.1604L32.9313 76.5616L31.7679 79.084ZM33.0663 79.6829L34.2501 82.1958L35.7503 81.4891L34.5665 78.9762L33.3826 76.4633L31.8825 77.17L33.0663 79.6829ZM34.5665 78.9762L34.8295 81.7415L36.2768 81.6038L36.0137 78.8385L35.7507 76.0732L34.3034 76.2109L34.5665 78.9762ZM36.0137 78.8385L35.5317 81.5741L36.9624 81.8262L37.4443 79.0905L37.9263 76.3549L36.4957 76.1028L36.0137 78.8385ZM37.4443 79.0905L36.3559 81.6462L37.7723 82.2494L38.8607 79.6938L39.9491 77.1381L38.5328 76.5349L37.4443 79.0905ZM38.8607 79.6938L38.1956 82.3907L39.63 82.7445L40.295 80.0475L40.9601 77.3505L39.5258 76.9968L38.8607 79.6938ZM40.295 80.0475L41.6104 82.4941L43.0854 81.7011L41.7701 79.2545L40.4547 76.8079L38.9797 77.6008L40.295 80.0475ZM41.7701 79.2545L40.9588 81.9112L42.39 82.3482L43.2012 79.6915L44.0124 77.0348L42.5813 76.5978L41.7701 79.2545ZM43.2012 79.6915L42.3964 82.3502L43.8245 82.7824L44.6293 80.1238L45.4341 77.4652L44.006 77.0329L43.2012 79.6915ZM44.6293 80.1238L45.805 82.6405L47.2724 81.955L46.0967 79.4383L44.9211 76.9216L43.4536 77.6071L44.6293 80.1238ZM46.0967 79.4383L44.8818 81.9363L46.3106 82.6312L47.5256 80.1332L48.7405 77.6352L47.3117 76.9403L46.0967 79.4383ZM47.5256 80.1332L46.8944 82.8383L48.3302 83.1734L48.9614 80.4683L49.5926 77.7631L48.1568 77.4281L47.5256 80.1332ZM48.9614 80.4683L49.2455 83.2315L50.6932 83.0826L50.4091 80.3194L50.125 77.5562L48.6773 77.705L48.9614 80.4683ZM50.4091 80.3194L50.6521 83.0865L52.0995 82.9594L51.8565 80.1923L51.6134 77.4252L50.166 77.5523L50.4091 80.3194ZM51.8565 80.1923L52.1137 82.9581L53.5611 82.8235L53.3038 80.0576L53.0466 77.2918L51.5992 77.4264L51.8565 80.1923ZM53.3038 80.0576L52.3074 82.6505L53.7428 83.2022L54.7392 80.6092L55.7357 78.0163L54.3003 77.4647L53.3038 80.0576ZM54.7392 80.6092L56.4749 82.778L57.939 81.6063L56.2033 79.4375L54.4676 77.2688L53.0035 78.4405L54.7392 80.6092ZM56.2033 79.4375L55.4098 82.0996L56.8483 82.5284L57.6418 79.8663L58.4353 77.2043L56.9968 76.7755L56.2033 79.4375ZM57.6418 79.8663L56.6999 82.4796L58.1422 82.9994L59.084 80.3862L60.0259 77.773L58.5837 77.2531L57.6418 79.8663ZM59.084 80.3862L59.4829 83.1352L60.9313 82.925L60.5324 80.176L60.1335 77.427L58.6851 77.6372L59.084 80.3862ZM60.5324 80.176L61.3629 82.8267L62.7975 82.3772L61.9669 79.7265L61.1364 77.0758L59.7018 77.5253L60.5324 80.176ZM61.9669 79.7265L60.7979 82.2463L62.267 82.9279L63.436 80.4081L64.605 77.8882L63.1359 77.2067L61.9669 79.7265ZM63.436 80.4081L64.7868 82.8353L66.1943 82.052L64.8435 79.6248L63.4926 77.1976L62.0852 77.9808L63.436 80.4081ZM64.8435 79.6248L64.5585 82.3879L66.0131 82.5379L66.298 79.7748L66.5829 77.0116L65.1284 76.8617L64.8435 79.6248ZM66.298 79.7748L66.0899 82.5447L67.5481 82.6543L67.7563 79.8844L67.9645 77.1144L66.5062 77.0048L66.298 79.7748ZM67.7563 79.8844L68.7173 82.4906L70.1193 81.9736L69.1583 79.3674L68.1973 76.7612L66.7953 77.2781L67.7563 79.8844ZM69.1583 79.3674L69.9845 82.0195L71.3861 81.5828L70.5599 78.9308L69.7336 76.2787L68.3321 76.7153L69.1583 79.3674ZM70.5599 78.9308L69.5038 81.4999L71.0309 82.1277L72.087 79.5585L73.1431 76.9893L71.6159 76.3616L70.5599 78.9308ZM72.087 79.5585L73.6541 81.8521L74.9927 80.9374L73.4257 78.6439L71.8587 76.3503L70.52 77.265L72.087 79.5585ZM73.4257 78.6439L73.2785 81.4178L74.7438 81.4955L74.8909 78.7216L75.0381 75.9477L73.5729 75.87L73.4257 78.6439ZM74.8909 78.7216L74.6448 81.4885L76.1247 81.6201L76.3709 78.8533L76.6171 76.0864L75.1371 75.9548L74.8909 78.7216ZM76.3709 78.8533L77.4222 81.4244L78.7963 80.8626L77.745 78.2914L76.6937 75.7203L75.3196 76.2822L76.3709 78.8533ZM77.745 78.2914L77.6029 81.0656L79.0788 81.1412L79.2209 78.3671L79.3631 75.5929L77.8872 75.5173L77.745 78.2914ZM79.2209 78.3671L79.4499 81.1354L80.8951 81.0159L80.6662 78.2475L80.4372 75.4792L78.992 75.5987L79.2209 78.3671ZM80.6662 78.2475L81.3853 80.9306L82.788 80.5547L82.0689 77.8716L81.3498 75.1885L79.9471 75.5645L80.6662 78.2475ZM82.0689 77.8716L81.9645 80.6474L83.4418 80.703L83.5462 77.9272L83.6506 75.1513L82.1733 75.0958L82.0689 77.8716ZM83.5462 77.9272L83.8974 80.6826L85.3351 80.4994L84.984 77.7439L84.6328 74.9884L83.1951 75.1717L83.5462 77.9272ZM84.984 77.7439L86.1092 80.2836L87.4669 79.682L86.3416 77.1424L85.2164 74.6027L83.8587 75.2043L84.984 77.7439ZM86.3416 77.1424L87.7095 79.56L89.037 78.8089L87.6691 76.3913L86.3012 73.9737L84.9737 74.7247L86.3416 77.1424ZM87.6691 76.3913L88.2212 79.1136L89.637 78.8265L89.0849 76.1042L88.5328 73.3818L87.1171 73.6689L87.6691 76.3913ZM89.0849 76.1042L89.3744 78.8668L90.8151 78.7158L90.5255 75.9532L90.236 73.1905L88.7953 73.3415L89.0849 76.1042ZM90.5255 75.9532L91.6973 78.4717L93.0425 77.8458L91.8708 75.3273L90.6991 72.8087L89.3538 73.4346L90.5255 75.9532ZM91.8708 75.3273L91.3286 78.0516L92.8664 78.3577L93.4087 75.6334L93.9509 72.909L92.4131 72.603L91.8708 75.3273ZM93.4087 75.6334L94.6493 78.1187L95.9847 77.4521L94.7441 74.9668L93.5035 72.4814L92.1681 73.148L93.4087 75.6334ZM94.7441 74.9668L95.6265 77.6007L97.0028 77.1396L96.1204 74.5057L95.2381 71.8718L93.8618 72.3329L94.7441 74.9668ZM96.1204 74.5057L96.7578 77.2094L98.1621 76.8784L97.5248 74.1747L96.8875 71.471L95.4831 71.802L96.1204 74.5057ZM97.5248 74.1747L97.5033 76.9524L98.9851 76.9639L99.0066 74.1862L99.0281 71.4085L97.5463 71.397L97.5248 74.1747ZM99.0066 74.1862L99.3067 76.9477L100.752 76.7906L100.452 74.0291L100.152 71.2675L98.7065 71.4246L99.0066 74.1862ZM100.452 74.0291L101.116 76.7264L102.519 76.3812L101.855 73.6839L101.191 70.9866L99.7886 71.3317L100.452 74.0291ZM101.855 73.6839L101.947 76.4602L103.42 76.4114L103.328 73.6352L103.237 70.8589L101.763 70.9076L101.855 73.6839ZM103.328 73.6352L104.751 76.0208L106.051 75.2456L104.628 72.8599L103.205 70.4743L101.905 71.2496L103.328 73.6352ZM104.628 72.8599L103.993 75.564L105.571 75.935L106.206 73.2309L106.842 70.5268L105.264 70.1559L104.628 72.8599ZM106.206 73.2309L108.236 75.1272L109.413 73.868L107.383 71.9717L105.353 70.0753L104.177 71.3346L106.206 73.2309ZM107.383 71.9717L106.503 74.6065L108.131 75.15L109.011 72.5151L109.89 69.8803L108.262 69.3368L107.383 71.9717ZM109.011 72.5151L109.946 75.1307L111.314 74.6415L110.378 72.026L109.443 69.4105L108.075 69.8996L109.011 72.5151ZM110.378 72.026L111.719 74.4591L113.024 73.74L111.684 71.3069L110.344 68.8737L109.038 69.5928L110.378 72.026ZM111.684 71.3069L113.171 73.6535L114.45 72.8432L112.963 70.4966L111.477 68.15L110.198 68.9603L111.684 71.3069ZM112.963 70.4966L114.049 73.0534L115.389 72.4844L114.303 69.9276L113.217 67.3708L111.877 67.9398L112.963 70.4966ZM114.303 69.9276L113.427 72.5636L115.076 73.1115L115.952 70.4754L116.828 67.8394L115.179 67.2915L114.303 69.9276ZM115.952 70.4754L116.833 73.1097L118.208 72.6499L117.326 70.0156L116.445 67.3813L115.071 67.8411L115.952 70.4754ZM117.326 70.0156L117.555 72.784L119.026 72.6628L118.798 69.8944L118.57 67.126L117.098 67.2473L117.326 70.0156ZM118.798 69.8944L121.098 71.4514L122.146 69.9028L119.846 68.3458L117.545 66.7888L116.497 68.3374L118.798 69.8944ZM119.846 68.3458L119.137 71.0317L120.778 71.4645L121.486 68.7786L122.195 66.0927L120.554 65.6599L119.846 68.3458ZM121.486 68.7786L123.547 70.6417L124.67 69.3993L122.61 67.5362L120.55 65.673L119.426 66.9154L121.486 68.7786ZM122.61 67.5362L122.006 70.2474L123.64 70.6117L124.244 67.9005L124.849 65.1893L123.214 64.825L122.61 67.5362ZM124.244 67.9005L124.692 70.642L126.137 70.4061L125.689 67.6646L125.242 64.9231L123.797 65.159L124.244 67.9005ZM125.689 67.6646L127.906 69.3383L128.959 67.9433L126.743 66.2697L124.526 64.596L123.472 65.991L125.689 67.6646ZM126.743 66.2697L127.754 68.8568L129.096 68.3322L128.085 65.7451L127.073 63.1579L125.731 63.6826L126.743 66.2697ZM128.085 65.7451L129.128 68.3193L130.462 67.7787L129.418 65.2045L128.374 62.6302L127.041 63.1708L128.085 65.7451ZM129.418 65.2045L129.408 67.9822L130.949 67.9879L130.959 65.2102L130.969 62.4324L129.428 62.4267L129.418 65.2045ZM130.959 65.2102L132.415 67.576L133.663 66.8078L132.208 64.442L130.752 62.0761L129.503 62.8443L130.959 65.2102ZM132.208 64.442L133.799 66.7189L135.009 65.8733L133.418 63.5964L131.826 61.3195L130.616 62.1651L132.208 64.442ZM133.418 63.5964L132.963 66.3367L134.647 66.6161L135.101 63.8758L135.556 61.1355L133.872 60.8561L133.418 63.5964ZM135.101 63.8758L137.27 65.6116L138.287 64.3403L136.119 62.6045L133.95 60.8686L132.933 62.1399L135.101 63.8758ZM136.119 62.6045L137.385 65.0769L138.665 64.4216L137.398 61.9491L136.132 59.4767L134.853 60.132L136.119 62.6045ZM137.398 61.9491L138.445 64.5223L139.778 63.9803L138.731 61.4072L137.685 58.834L136.352 59.376L137.398 61.9491ZM138.731 61.4072L139.581 64.0518L140.967 63.6062L140.118 60.9616L139.268 58.317L137.881 58.7626L138.731 61.4072ZM140.118 60.9616L140.339 63.7306L141.904 63.6055L141.683 60.8366L141.462 58.0676L139.896 58.1927L140.118 60.9616ZM141.683 60.8366L143.447 62.982L144.588 62.0441L142.823 59.8987L141.059 57.7532L139.919 58.6911L141.683 60.8366ZM142.823 59.8987L144.901 61.7425L145.909 60.6065L143.832 58.7626L141.754 56.9187L140.746 58.0548L142.823 59.8987ZM143.832 58.7626L145.033 61.2671L146.336 60.6422L145.134 58.1377L143.933 55.6332L142.63 56.2581L143.832 58.7626ZM145.134 58.1377L145.53 60.8871L147.115 60.659L146.719 57.9096L146.324 55.1601L144.739 55.3883L145.134 58.1377ZM146.719 57.9096L149.169 59.2202L149.932 57.794L147.483 56.4834L145.033 55.1728L144.27 56.599L146.719 57.9096ZM147.483 56.4834L149.262 58.6165L150.364 57.6969L148.585 55.5638L146.806 53.4307L145.703 54.3503L147.483 56.4834ZM148.585 55.5638L150.622 57.452L151.602 56.3954L149.564 54.5072L147.527 52.6191L146.548 53.6757L148.585 55.5638ZM149.564 54.5072L150.287 57.1894L151.848 56.769L151.125 54.0868L150.403 51.4046L148.842 51.8251L149.564 54.5072ZM151.125 54.0868L152.568 56.4605L153.85 55.681L152.408 53.3074L150.965 50.9337L149.682 51.7131L151.125 54.0868ZM152.408 53.3074L154.591 55.0243L155.5 53.8678L153.317 52.1508L151.133 50.4339L150.224 51.5904L152.408 53.3074ZM153.317 52.1508L155.259 54.1371L156.309 53.1107L154.367 51.1245L152.425 49.1383L151.375 50.1646L153.317 52.1508ZM154.367 51.1245L156.839 52.3916L157.537 51.0286L155.065 49.7615L152.593 48.4944L151.895 49.8574L154.367 51.1245ZM155.065 49.7615L157.707 50.6196L158.169 49.1976L155.527 48.3394L152.885 47.4813L152.423 48.9033L155.065 49.7615ZM155.527 48.3394L158.277 48.7317L158.485 47.2728L155.735 46.8806L152.985 46.4884L152.777 47.9472L155.527 48.3394ZM155.735 46.8806L158.466 47.3913L158.728 45.9905L155.997 45.4799L153.267 44.9692L153.005 46.37L155.735 46.8806ZM155.997 45.4799L158.292 47.0459L159.188 45.7321L156.894 44.1661L154.6 42.6L153.703 43.9138L155.997 45.4799ZM156.894 44.1661L159.671 44.0962L159.634 42.6229L156.857 42.6928L154.08 42.7627L154.117 44.236L156.894 44.1661ZM156.857 42.6928L159.364 41.4965L158.664 40.0303L156.157 41.2265L153.65 42.4228L154.35 43.8891L156.857 42.6928ZM156.157 41.2265L158.623 42.5052L159.369 41.0661L156.904 39.7874L154.438 38.5088L153.691 39.9479L156.157 41.2265ZM156.904 39.7874L159.298 38.3796L158.473 36.9771L156.079 38.3849L153.684 39.7928L154.509 41.1953L156.904 39.7874ZM156.079 38.3849L158.856 38.4227L158.876 36.9876L156.098 36.9498L153.321 36.9121L153.301 38.3471L156.079 38.3849ZM156.098 36.9498L158.737 37.8187L159.231 36.3183L156.592 35.4495L153.954 34.5807L153.46 36.081L156.098 36.9498ZM156.592 35.4495L159.281 34.7526L158.916 33.3433L156.227 34.0402L153.538 34.7371L153.904 36.1464L156.592 35.4495ZM156.227 34.0402L158.92 33.3573L158.565 31.96L155.873 32.6429L153.18 33.3258L153.535 34.723L156.227 34.0402ZM155.873 32.6429L158.651 32.6291L158.643 31.1123L155.865 31.1261L153.088 31.1399L153.095 32.6567L155.873 32.6429ZM155.865 31.1261L157.832 29.1643L156.712 28.0415L154.745 30.0033L152.779 31.9651L153.899 33.0879L155.865 31.1261ZM154.745 30.0033L157.338 29.0064L156.824 27.6689L154.231 28.6659L151.638 29.6629L152.153 31.0003L154.745 30.0033ZM154.231 28.6659L156.912 27.9402L156.527 26.5185L153.846 27.2442L151.165 27.9699L151.55 29.3916L154.231 28.6659ZM153.846 27.2442L156.114 25.6407L155.276 24.4543L153.007 26.0578L150.739 27.6613L151.578 28.8477L153.846 27.2442ZM153.007 26.0578L155.534 24.9037L154.929 23.5796L152.403 24.7337L149.876 25.8878L150.481 27.2119L153.007 26.0578ZM152.403 24.7337L154.433 22.8385L153.433 21.7669L151.403 23.6621L149.372 25.5573L150.372 26.6289L152.403 24.7337ZM151.403 23.6621L154.052 22.826L153.596 21.3821L150.947 22.2182L148.298 23.0543L148.754 24.4982L151.403 23.6621ZM150.947 22.2182L152.228 19.7535L150.797 19.0095L149.516 21.4742L148.234 23.9389L149.666 24.6829L150.947 22.2182ZM149.516 21.4742L152.288 21.2971L152.177 19.5637L149.405 19.7408L146.633 19.918L146.743 21.6513L149.516 21.4742ZM149.405 19.7408L151.396 17.8039L150.346 16.7252L148.355 18.6621L146.364 20.5991L147.414 21.6778L149.405 19.7408ZM148.355 18.6621L150.29 16.6685L149.223 15.6341L147.289 17.6277L145.355 19.6214L146.421 20.6558L148.355 18.6621ZM147.289 17.6277L147.766 14.8912L146.132 14.6067L145.656 17.3433L145.179 20.0798L146.813 20.3643L147.289 17.6277ZM145.656 17.3433L148.022 15.8891L147.213 14.5722L144.847 16.0263L142.48 17.4805L143.289 18.7974L145.656 17.3433ZM144.847 16.0263L146.172 13.5853L144.888 12.8879L143.563 15.329L142.237 17.7701L143.521 18.4674L144.847 16.0263ZM143.563 15.329L144.825 12.8545L143.54 12.1993L142.278 14.6738L141.016 17.1483L142.3 17.8035L143.563 15.329ZM142.278 14.6738L143.917 12.4308L142.73 11.5639L141.091 13.8068L139.452 16.0497L140.639 16.9167L142.278 14.6738ZM141.091 13.8068L141.32 11.0384L139.803 10.9132L139.575 13.6816L139.346 16.45L140.863 16.5751L141.091 13.8068ZM139.575 13.6816L140.111 10.9561L138.68 10.6745L138.144 13.4L137.607 16.1255L139.038 16.4071L139.575 13.6816ZM138.144 13.4L140.487 11.9082L139.518 10.3858L137.175 11.8776L134.832 13.3695L135.801 14.8918L138.144 13.4ZM137.175 11.8776L138.151 9.27704L136.793 8.76739L135.817 11.368L134.841 13.9686L136.199 14.4782L137.175 11.8776ZM135.817 11.368L135.767 8.59065L134.218 8.6184L134.268 11.3957L134.318 14.1731L135.867 14.1453L135.817 11.368ZM134.268 11.3957L135.181 8.77223L133.82 8.29886L132.908 10.9224L131.995 13.5459L133.355 14.0192L134.268 11.3957ZM132.908 10.9224L134.201 8.46416L132.905 7.78213L131.611 10.2403L130.318 12.6985L131.614 13.3806L132.908 10.9224ZM131.611 10.2403L132.923 7.7916L131.633 7.10061L130.321 9.54934L129.01 11.9981L130.3 12.6891L131.611 10.2403ZM130.321 9.54934L130.292 6.77171L128.76 6.78759L128.789 9.56522L128.818 12.3428L130.35 12.327L130.321 9.54934ZM128.789 9.56522L129.746 6.95753L128.391 6.46034L127.434 9.06802L126.477 11.6757L127.832 12.1729L128.789 9.56522ZM127.434 9.06802L128.957 6.74506L127.706 5.92473L126.183 8.24769L124.66 10.5707L125.911 11.391L127.434 9.06802ZM126.183 8.24769L126.87 5.55607L125.465 5.19793L124.779 7.88955L124.092 10.5812L125.497 10.9393L126.183 8.24769ZM124.779 7.88955L125.451 5.19423L124.043 4.84349L123.372 7.53881L122.7 10.2341L124.107 10.5849L124.779 7.88955ZM123.372 7.53881L124.554 5.02511L123.235 4.4048L122.053 6.9185L120.87 9.4322L122.19 10.0525L123.372 7.53881ZM122.053 6.9185L123.201 4.38904L121.876 3.78799L120.728 6.31745L119.58 8.8469L120.905 9.44796L122.053 6.9185ZM120.728 6.31745L121.546 3.66279L120.158 3.23518L119.34 5.88983L118.522 8.54448L119.91 8.9721L120.728 6.31745ZM119.34 5.88983L119.917 3.17255L118.487 2.86918L117.91 5.58646L117.334 8.30373L118.764 8.60711L119.34 5.88983ZM117.91 5.58646L116.889 3.0034L115.223 3.66214L116.245 6.24519L117.267 8.82825L118.932 8.16951L117.91 5.58646ZM116.245 6.24519L117.893 4.00904L116.635 3.08162L114.987 5.31777L113.339 7.55392L114.597 8.48135L116.245 6.24519ZM114.987 5.31777L115.052 2.54077L113.59 2.50629L113.524 5.2833L113.459 8.06031L114.921 8.09478L114.987 5.31777ZM113.524 5.2833L114.837 2.83524L113.493 2.1149L112.181 4.56296L110.868 7.01102L112.211 7.73136L113.524 5.2833ZM112.181 4.56296L112.719 1.83787L111.292 1.55596L110.754 4.28106L110.215 7.00615L111.642 7.28806L112.181 4.56296ZM110.754 4.28106L110.092 1.58327L108.594 1.95074L109.256 4.64852L109.918 7.34631L111.416 6.97884L110.754 4.28106ZM109.256 4.64852L109.255 1.87074L107.81 1.87116L107.811 4.64894L107.811 7.42672L109.257 7.4263L109.256 4.64852ZM107.811 4.64894L109.471 2.42228L108.1 1.39942L106.439 3.62607L104.779 5.85273L106.15 6.8756L107.811 4.64894ZM106.439 3.62607L104.869 1.33456L103.354 2.37273L104.924 4.66424L106.494 6.95575L108.009 5.91758L106.439 3.62607ZM104.924 4.66424L106.75 2.5707L105.369 1.3668L103.543 3.46035L101.718 5.55389L103.098 6.75779L104.924 4.66424ZM103.543 3.46035L102.236 1.00949L100.752 1.80111L102.06 4.25197L103.367 6.70283L104.851 5.91121L103.543 3.46035ZM102.06 4.25197L102.752 1.562L101.323 1.1937L100.63 3.88367L99.9368 6.57365L101.367 6.94194L102.06 4.25197ZM100.63 3.88367L101.237 1.17313L99.8017 0.851432L99.1943 3.56197L98.5868 6.27252L100.022 6.59422L100.63 3.88367ZM99.1943 3.56197L99.2525 0.784806L97.8078 0.754529L97.7496 3.5317L97.6914 6.30887L99.1361 6.33914L99.1943 3.56197ZM97.7496 3.5317L96.9832 0.861741L95.5272 1.27969L96.2936 3.94965L97.06 6.6196L98.516 6.20165L97.7496 3.5317ZM96.2936 3.94965L96.0444 1.18306L94.5971 1.3134L94.8463 4.07998L95.0954 6.84657L96.5427 6.71623L96.2936 3.94965ZM94.8463 4.07998L95.9914 1.54924L94.5584 0.90079L93.4132 3.43153L92.2681 5.96228L93.7011 6.61073L94.8463 4.07998ZM93.4132 3.43153L93.2044 0.661618L91.7578 0.770691L91.9666 3.54061L92.1755 6.31052L93.6221 6.20145L93.4132 3.43153ZM91.9666 3.54061L91.1946 0.872257L89.7448 1.29171L90.5168 3.96006L91.2888 6.62841L92.7386 6.20896L91.9666 3.54061ZM90.5168 3.96006L91.5293 1.37339L90.0898 0.809914L89.0773 3.39658L88.0648 5.98325L89.5043 6.54672L90.5168 3.96006ZM89.0773 3.39658L88.1327 0.784338L86.6848 1.3079L87.6294 3.92014L88.574 6.53238L90.0219 6.00882L89.0773 3.39658ZM87.6294 3.92014L88.8905 1.44515L87.4484 0.71029L86.1872 3.18528L84.9261 5.66028L86.3683 6.39513L87.6294 3.92014ZM86.1872 3.18528L84.7245 0.823844L83.2789 1.71928L84.7417 4.08072L86.2044 6.44216L87.65 5.54672L86.1872 3.18528ZM84.7417 4.08072L85.5917 1.4362L84.1466 0.971714L83.2966 3.61623L82.4466 6.26075L83.8916 6.72524L84.7417 4.08072ZM83.2966 3.61623L84.2137 0.994221L82.7666 0.488049L81.8495 3.11006L80.9324 5.73208L82.3795 6.23825L83.2966 3.61623ZM81.8495 3.11006L80.3013 0.803749L78.8628 1.76937L80.411 4.07568L81.9592 6.38199L83.3977 5.41638L81.8495 3.11006ZM80.411 4.07568L80.898 1.34092L79.4513 1.08331L78.9643 3.81807L78.4773 6.55283L79.9241 6.81044L80.411 4.07568ZM78.9643 3.81807L79.9602 1.22494L78.508 0.667272L77.5122 3.26041L76.5163 5.85354L77.9685 6.41121L78.9643 3.81807ZM77.5122 3.26041L75.9552 0.959976L74.5283 1.92575L76.0852 4.22618L77.6422 6.52661L79.0691 5.56084L77.5122 3.26041ZM76.0852 4.22618L76.9742 1.59449L75.5196 1.10313L74.6306 3.73482L73.7416 6.3665L75.1962 6.85787L76.0852 4.22618ZM74.6306 3.73482L73.6419 1.13894L72.2127 1.68326L73.2014 4.27914L74.1901 6.87502L75.6193 6.3307L74.6306 3.73482ZM73.2014 4.27914L73.1606 1.50166L71.7177 1.52286L71.7585 4.30034L71.7993 7.07781L73.2422 7.05662L73.2014 4.27914ZM71.7585 4.30034L73.3122 1.99769L71.8258 0.994811L70.2722 3.29746L68.7185 5.6001L70.2048 6.60298L71.7585 4.30034ZM70.2722 3.29746L68.8536 0.909226L67.4477 1.74428L68.8663 4.13251L70.2849 6.52074L71.6908 5.68569L70.2722 3.29746ZM68.8663 4.13251L68.2379 1.42676L66.8161 1.757L67.4446 4.46275L68.0731 7.16849L69.4948 6.83826L68.8663 4.13251ZM67.4446 4.46275L68.1633 1.77956L66.6855 1.38373L65.9668 4.06692L65.2481 6.75011L66.7259 7.14594L67.4446 4.46275ZM65.9668 4.06692L64.5297 1.68978L63.1648 2.51494L64.6019 4.89208L66.039 7.26922L67.4039 6.44406L65.9668 4.06692ZM64.6019 4.89208L64.4776 2.11708L63.0419 2.18139L63.1662 4.95639L63.2905 7.73138L64.7262 7.66707L64.6019 4.89208ZM63.1662 4.95639L64.1875 2.37316L62.6458 1.76365L61.6245 4.34687L60.6032 6.9301L62.1449 7.53961L63.1662 4.95639ZM61.6245 4.34687L60.8132 1.6902L59.4148 2.11723L60.2261 4.7739L61.0374 7.43057L62.4357 7.00355L61.6245 4.34687ZM60.2261 4.7739L58.5557 2.55446L57.2606 3.52922L58.9309 5.74866L60.6013 7.96809L61.8965 6.99333L60.2261 4.7739ZM58.9309 5.74866L60.0178 3.19236L58.427 2.51595L57.3401 5.07225L56.2532 7.62854L57.844 8.30495L58.9309 5.74866ZM57.3401 5.07225L56.1373 2.56837L54.7876 3.21674L55.9903 5.72061L57.1931 8.22449L58.5429 7.57612L57.3401 5.07225ZM55.9903 5.72061L55.111 3.08569L53.7281 3.54719L54.6074 6.18212L55.4867 8.81705L56.8697 8.35554L55.9903 5.72061ZM54.6074 6.18212L54.3312 3.41811L52.8872 3.56244L53.1635 6.32644L53.4398 9.09045L54.8837 8.94612L54.6074 6.18212ZM53.1635 6.32644L53.691 3.59922L52.1575 3.30258L51.6299 6.02981L51.1024 8.75703L52.636 9.05367L53.1635 6.32644ZM51.6299 6.02981L50.2152 3.63929L48.9002 4.41754L50.3149 6.80806L51.7296 9.19858L53.0447 8.42032L51.6299 6.02981ZM50.3149 6.80806L50.5572 4.04087L49.0545 3.9093L48.8122 6.6765L48.5699 9.44369L50.0726 9.57525L50.3149 6.80806ZM48.8122 6.6765L47.5076 4.22412L46.1781 4.93135L47.4827 7.38373L48.7873 9.8361L50.1168 9.12887L48.8122 6.6765ZM47.4827 7.38373L47.0849 4.63458L45.6516 4.84199L46.0494 7.59113L46.4472 10.3403L47.8805 10.1329L47.4827 7.38373ZM46.0494 7.59113L45.4676 4.87497L44.056 5.17735L44.6378 7.89351L45.2196 10.6097L46.6312 10.3073L46.0494 7.59113ZM44.6378 7.89351L44.8276 5.12223L43.317 5.01873L43.1271 7.79002L42.9372 10.5613L44.4479 10.6648L44.6378 7.89351ZM43.1271 7.79002L41.4428 5.5811L40.1862 6.53926L41.8705 8.74817L43.5548 10.9571L44.8114 9.99893L43.1271 7.79002ZM41.8705 8.74817L40.3271 6.43861L39.0493 7.29254L40.5926 9.6021L42.136 11.9117L43.4139 11.0577L41.8705 8.74817ZM40.5926 9.6021L41.6201 7.02135L39.9639 6.36192L38.9364 8.94268L37.9089 11.5234L39.5651 12.1829L40.5926 9.6021ZM38.9364 8.94268L37.8337 6.39315L36.4902 6.97422L37.5929 9.52375L38.6956 12.0733L40.0391 11.4922L38.9364 8.94268ZM37.5929 9.52375L36.4301 7.00105L35.0991 7.61455L36.2619 10.1372L37.4247 12.6599L38.7557 12.0465L37.5929 9.52375ZM36.2619 10.1372L36.1064 7.36382L34.6236 7.44693L34.779 10.2204L34.9345 12.9938L36.4173 12.9107L36.2619 10.1372ZM34.779 10.2204L32.6676 8.41541L31.5607 9.71022L33.6722 11.5152L35.7836 13.3201L36.8905 12.0253L34.779 10.2204ZM33.6722 11.5152L34.3718 8.82694L32.7042 8.39293L32.0046 11.0811L31.3049 13.7694L32.9725 14.2034L33.6722 11.5152ZM32.0046 11.0811L30.2557 8.92301L29.0728 9.88163L30.8216 12.0398L32.5705 14.1979L33.7534 13.2393L32.0046 11.0811ZM30.8216 12.0398L29.9269 9.41001L28.5545 9.87693L29.4492 12.5067L30.3438 15.1364L31.7163 14.6695L30.8216 12.0398ZM29.4492 12.5067L27.9828 10.1475L26.749 10.9144L28.2154 13.2736L29.6818 15.6328L30.9156 14.8659L29.4492 12.5067ZM28.2154 13.2736L26.8075 10.879L25.5606 11.6121L26.9684 14.0067L28.3763 16.4013L29.6232 15.6682L28.2154 13.2736ZM26.9684 14.0067L27.0902 11.2316L25.4318 11.1588L25.31 13.9339L25.1883 16.709L26.8467 16.7818L26.9684 14.0067ZM25.31 13.9339L22.7829 12.7808L22.0266 14.4382L24.5538 15.5913L27.0809 16.7444L27.8371 15.087L25.31 13.9339ZM24.5538 15.5913L23.3898 13.0691L22.0824 13.6725L23.2463 16.1947L24.4102 18.7168L25.7177 18.1135L24.5538 15.5913ZM23.2463 16.1947L22.6419 13.4834L21.1701 13.8116L21.7745 16.5228L22.379 19.234L23.8508 18.9059L23.2463 16.1947ZM21.7745 16.5228L19.5814 14.818L18.6345 16.0361L20.8276 17.7409L23.0207 19.4457L23.9676 18.2276L21.7745 16.5228ZM20.8276 17.7409L19.5821 15.258L18.2928 15.9047L19.5383 18.3877L20.7838 20.8706L22.0731 20.2238L20.8276 17.7409ZM19.5383 18.3877L17.9742 16.0921L16.7881 16.9002L18.3522 19.1958L19.9163 21.4914L21.1024 20.6832L19.5383 18.3877ZM18.3522 19.1958L18.0982 16.4297L16.4552 16.5805L16.7093 19.3467L16.9633 22.1128L18.6062 21.9619L18.3522 19.1958ZM16.7093 19.3467L15.5293 16.832L14.1906 17.4601L15.3706 19.9748L16.5505 22.4895L17.8892 21.8614L16.7093 19.3467ZM15.3706 19.9748L12.7188 19.1478L12.1867 20.8539L14.8385 21.6809L17.4903 22.5079L18.0224 20.8018L15.3706 19.9748ZM14.8385 21.6809L13.0843 19.5271L11.9743 20.4312L13.7285 22.585L15.4827 24.7388L16.5927 23.8347L14.8385 21.6809ZM13.7285 22.585L12.9882 19.9077L11.4634 20.3293L12.2037 23.0066L12.9439 25.6839L14.4688 25.2623L13.7285 22.585ZM12.2037 23.0066L10.231 21.0509L9.2085 22.0823L11.1811 24.038L13.1537 25.9937L14.1763 24.9623L12.2037 23.0066ZM11.1811 24.038L9.14454 22.149L8.15964 23.2108L10.1962 25.0998L12.2328 26.9889L13.2177 25.927L11.1811 24.038ZM10.1962 25.0998L7.65191 23.9852L7.0585 25.3397L9.60282 26.4543L12.1471 27.569L12.7405 26.2145L10.1962 25.0998ZM9.60282 26.4543L7.78684 24.3524L6.65507 25.3302L8.47106 27.4321L10.287 29.5341L11.4188 28.5563L9.60282 26.4543ZM8.47106 27.4321L5.85534 26.4972L5.36286 27.8751L7.97858 28.81L10.5943 29.7449L11.0868 28.367L8.47106 27.4321ZM7.97858 28.81L5.3437 27.9305L4.88586 29.3022L7.52075 30.1817L10.1556 31.0611L10.6135 29.6894L7.97858 28.81ZM7.52075 30.1817L5.68148 28.1001L4.48516 29.1571L6.32442 31.2387L8.16368 33.3204L9.36001 32.2633L7.52075 30.1817ZM6.32442 31.2387L3.60999 31.8286L3.97879 33.5258L6.69322 32.936L9.40765 32.3461L9.03886 30.6489L6.32442 31.2387ZM6.69322 32.936L4.3062 31.5153L3.5593 32.7703L5.94632 34.191L8.33335 35.6116L9.08024 34.3566L6.69322 32.936ZM5.94632 34.191L3.2631 33.4724L2.88893 34.8695L5.57216 35.5881L8.25539 36.3067L8.62955 34.9095L5.94632 34.191ZM5.57216 35.5881L3.46914 33.7733L2.45628 34.9471L4.55929 36.7619L6.66231 38.5766L7.67518 37.4029L5.57216 35.5881ZM4.55929 36.7619L1.78388 36.8764L1.84657 38.396L4.62199 38.2815L7.3974 38.167L7.33471 36.6474L4.55929 36.7619ZM4.62199 38.2815L1.87708 37.8554L1.66004 39.2538L4.40495 39.6798L7.14986 40.1059L7.3669 38.7075L4.62199 38.2815ZM4.40495 39.6798L1.77671 38.7807L1.30998 40.145L3.93821 41.0441L6.56644 41.9432L7.03318 40.5789L4.40495 39.6798ZM3.93821 41.0441L1.20507 40.5481L0.948292 41.9631L3.68143 42.4591L6.41457 42.9551L6.67135 41.5401L3.93821 41.0441ZM3.68143 42.4591L0.992433 41.7624L0.623433 43.1867L3.31243 43.8834L6.00143 44.58L6.37043 43.1557L3.68143 42.4591ZM3.31243 43.8834L0.684392 44.7831L1.18167 46.2356L3.80971 45.3359L6.43775 44.4362L5.94047 42.9837L3.31243 43.8834ZM3.80971 45.3359L1.42099 43.9182L0.56068 45.3676L2.9494 46.7854L5.33812 48.2032L6.19843 46.7537L3.80971 45.3359ZM2.9494 46.7854L0.237258 47.3857L0.556534 48.8282L3.26868 48.228L5.98082 47.6277L5.66155 46.1851L2.9494 46.7854ZM3.26868 48.228L0.49154 48.2876L0.522622 49.7345L3.29976 49.6748L6.0769 49.6152L6.04581 48.1683L3.26868 48.228ZM3.29976 49.6748L0.691566 50.6305L1.21206 52.051L3.82025 51.0953L6.42845 50.1396L5.90795 48.7191L3.29976 49.6748ZM3.82025 51.0953L1.18481 50.2175L0.693198 51.6935L3.32864 52.5713L5.96408 53.4491L6.45569 51.9731L3.82025 51.0953ZM3.32864 52.5713L0.627953 53.2212L0.974728 54.6623L3.67541 54.0124L6.3761 53.3625L6.02932 51.9214L3.32864 52.5713ZM3.67541 54.0124L1.24055 55.3494L1.96041 56.6604L4.39528 55.3234L6.83014 53.9864L6.11028 52.6754L3.67541 54.0124ZM4.39528 55.3234L1.62178 55.1692L1.53566 56.7179L4.30916 56.8722L7.08265 57.0264L7.16877 55.4776L4.39528 55.3234ZM4.30916 56.8722L1.77825 58.017L2.38016 59.3477L4.91107 58.2029L7.44197 57.058L6.84006 55.7274L4.30916 56.8722ZM4.91107 58.2029L2.75279 59.9515L3.69824 61.1184L5.85652 59.3698L8.01479 57.6211L7.06934 56.4542L4.91107 58.2029ZM5.85652 59.3698L3.61652 61.0124L4.48695 62.1994L6.72695 60.5567L8.96695 58.914L8.09652 57.7271L5.85652 59.3698ZM6.72695 60.5567L3.9667 60.2451L3.77688 61.9267L6.53713 62.2383L9.29738 62.5499L9.4872 60.8683L6.72695 60.5567ZM6.53713 62.2383L4.78882 64.3969L6.03409 65.4055L7.7824 63.2469L9.53072 61.0883L8.28545 60.0797L6.53713 62.2383ZM7.7824 63.2469L5.33388 64.5587L6.01668 65.8332L8.4652 64.5214L10.9137 63.2096L10.2309 61.9351L7.7824 63.2469ZM8.4652 64.5214L6.11521 66.0025L6.88764 67.2281L9.23764 65.747L11.5876 64.2659L10.8152 63.0403L8.4652 64.5214ZM9.23764 65.747L6.48232 65.3945L6.25705 67.1551L9.01237 67.5076L11.7677 67.8601L11.993 66.0995L9.23764 65.747ZM9.01237 67.5076L7.48701 69.8291L8.82683 70.7094L10.3522 68.388L11.8776 66.0665L10.5377 65.1861L9.01237 67.5076ZM10.3522 68.388L7.775 69.4244L8.33113 70.8072L10.9083 69.7708L13.4855 68.7344L12.9294 67.3515L10.3522 68.388ZM10.9083 69.7708L9.69577 72.27L11.1113 72.9568L12.3238 70.4576L13.5364 67.9585L12.1209 67.2717L10.9083 69.7708ZM12.3238 70.4576L9.68808 71.3345L10.1915 72.8476L12.8272 71.9707L15.4629 71.0938L14.9596 69.5807L12.3238 70.4576ZM12.8272 71.9707L11.9686 74.6125L13.4672 75.0995L14.3258 72.4578L15.1844 69.816L13.6858 69.329L12.8272 71.9707ZM14.3258 72.4578L11.8454 73.7083L12.5602 75.126L15.0406 73.8755L17.5209 72.6249L16.8062 71.2073L14.3258 72.4578ZM15.0406 73.8755L14.56 76.6114L16.1318 76.8875L16.6124 74.1516L17.093 71.4157L15.5212 71.1396L15.0406 73.8755ZM16.6124 74.1516L15.1617 76.5204L16.3869 77.2708L17.8377 74.9019L19.2884 72.5331L18.0631 71.7827L16.6124 74.1516ZM17.8377 74.9019L15.4054 76.2436L16.1983 77.681L18.6306 76.3394L21.0628 74.9977L20.2699 73.5603L17.8377 74.9019ZM18.6306 76.3394L18.3209 79.0998L19.9017 79.2772L20.2114 76.5167L20.521 73.7562L18.9402 73.5789L18.6306 76.3394ZM20.2114 76.5167L18.1078 78.3308L19.1105 79.4935L21.2141 77.6794L23.3177 75.8654L22.315 74.7026L20.2114 76.5167ZM21.2141 77.6794L19.3651 79.7524L20.4845 80.7509L22.3335 78.6778L24.1824 76.6048L23.063 75.6064L21.2141 77.6794ZM22.3335 78.6778L22.5903 81.4437L24.2788 81.287L24.022 78.5211L23.7652 75.7552L22.0767 75.912L22.3335 78.6778ZM24.022 78.5211L22.6275 80.9234L23.8773 81.6489L25.2718 79.2466L26.6664 76.8442L25.4166 76.1187L24.022 78.5211ZM25.2718 79.2466L24.1375 81.7822L25.4524 82.3704L26.5868 79.8348L27.7211 77.2992L26.4062 76.7109L25.2718 79.2466ZM26.5868 79.8348L24.7423 81.9118L25.888 82.9293L27.7325 80.8523L29.577 78.7753L28.4313 77.7578L26.5868 79.8348ZM27.7325 80.8523L27.5289 83.6226L29.0348 83.7333L29.2384 80.963L29.442 78.1927L27.9361 78.082L27.7325 80.8523ZM29.2384 80.963L27.4202 83.063L28.6119 84.0948L30.4301 81.9948L32.2483 79.8948L31.0566 78.863L29.2384 80.963ZM30.4301 81.9948L30.0824 84.7507L31.5489 84.9358L31.8966 82.1798L32.2444 79.4239L30.7778 79.2389L30.4301 81.9948ZM31.8966 82.1798L31.4022 84.9133L32.8369 85.1727L33.3313 82.4393L33.8257 79.7059L32.391 79.4464L31.8966 82.1798ZM33.3313 82.4393L32.7962 85.1651L34.2233 85.4452L34.7584 82.7195L35.2936 79.9938L33.8665 79.7136L33.3313 82.4393ZM34.7584 82.7195L35.2723 85.4493L36.7693 85.1675L36.2554 82.4377L35.7416 79.7079L34.2446 79.9897L34.7584 82.7195ZM36.2554 82.4377L35.112 84.9692L36.5005 85.5964L37.644 83.0649L38.7874 80.5334L37.3989 79.9062L36.2554 82.4377ZM37.644 83.0649L38.7447 85.6153L40.2365 84.9714L39.1358 82.421L38.035 79.8707L36.5432 80.5145L37.644 83.0649ZM39.1358 82.421L38.0108 84.9608L39.4211 85.5855L40.546 83.0457L41.671 80.5059L40.2607 79.8812L39.1358 82.421ZM40.546 83.0457L40.8603 85.8056L42.3142 85.6401L42 82.8802L41.6857 80.1202L40.2318 80.2857L40.546 83.0457ZM42 82.8802L41.4172 85.5961L42.8469 85.9029L43.4297 83.1869L44.0124 80.471L42.5827 80.1642L42 82.8802ZM43.4297 83.1869L44.0445 85.8958L45.4985 85.5658L44.8836 82.8569L44.2687 80.148L42.8148 80.4781L43.4297 83.1869ZM44.8836 82.8569L43.7162 85.3775L45.1454 86.0394L46.3128 83.5188L47.4802 80.9983L46.051 80.3363L44.8836 82.8569ZM46.3128 83.5188L47.3146 86.1097L48.7726 85.5459L47.7708 82.9551L46.769 80.3642L45.311 80.928L46.3128 83.5188ZM47.7708 82.9551L47.3311 85.6978L48.771 85.9287L49.2108 83.1859L49.6506 80.4432L48.2106 80.2123L47.7708 82.9551ZM49.2108 83.1859L48.8473 85.9398L50.2869 86.1299L50.6504 83.376L51.0139 80.6221L49.5743 80.432L49.2108 83.1859ZM50.6504 83.376L51.6676 85.9608L53.1286 85.3859L52.1114 82.801L51.0942 80.2162L49.6332 80.7911L50.6504 83.376ZM52.1114 82.801L51.9776 85.5756L53.4333 85.6458L53.5671 82.8712L53.7009 80.0967L52.2452 80.0265L52.1114 82.801ZM53.5671 82.8712L52.0118 85.1728L53.4016 86.1119L54.9569 83.8104L56.5122 81.5088L55.1224 80.5697L53.5671 82.8712ZM54.9569 83.8104L55.3436 86.5611L56.803 86.3559L56.4163 83.6052L56.0296 80.8545L54.5702 81.0597L54.9569 83.8104ZM56.4163 83.6052L53.6557 83.2963L53.6515 83.3344L56.412 83.6433L59.1726 83.9522L59.1768 83.9141L56.4163 83.6052Z" fill="#128FD2"/>
</svg>
