<svg width="69" height="86" viewBox="0 0 69 86" fill="none" xmlns="http://www.w3.org/2000/svg">
<path fill-rule="evenodd" clip-rule="evenodd" d="M47.7048 4.72277C35.3733 -0.631676 21.4342 2.05241 12.3978 11.5218C10.5851 13.4214 7.84895 17.7093 6.74843 20.3751C3.27359 28.7934 1.66664 41.6674 2.05738 57.9612C2.28662 67.5238 3.41577 80.7413 4.11371 82.0329C4.55409 82.8478 5.69247 83.5384 6.60723 83.5459C7.96608 83.557 18.5189 79.1283 27.1902 74.908C42.4844 67.4645 53.73 59.7134 59.8179 52.419C61.5392 50.3566 63.7034 46.6849 64.652 44.2177C68.6552 33.8073 66.4528 21.7004 59.0003 13.148C56.6533 10.4547 55.1406 9.17847 51.8139 7.08562C50.181 6.05834 48.332 4.99493 47.7048 4.72277ZM46.8415 21.1339C49.2646 23.4834 50.8524 26.2852 51.6051 29.5395C52.615 33.9067 51.7995 38.3876 49.3483 41.9383C46.8755 45.5203 43.5402 47.699 39.1513 48.5988C34.5516 49.5419 29.8739 48.4633 25.8116 45.523C21.3585 42.2998 18.7122 36.7 19.0452 31.2052C19.4082 25.2182 23.1558 19.9857 28.7552 17.6479C30.3711 16.9733 33.1178 16.3972 34.8304 16.3738C36.4834 16.3512 39.0621 16.7638 40.6097 17.2988C42.4165 17.9232 45.4656 19.7997 46.8415 21.1339Z" fill="url(#paint0_linear_74_95)" fill-opacity="0.32"/>
<path d="M52.3464 6.23962C55.7474 8.37926 57.3367 9.71756 59.7538 12.4913C67.4445 21.3169 69.7247 33.8135 65.5858 44.577C64.5971 47.1482 62.3759 50.9148 60.5856 53.0601C54.3616 60.5174 42.9639 68.3436 27.6275 75.8076C23.2748 77.9261 18.4514 80.0957 14.543 81.7359C12.59 82.5555 10.8568 83.2467 9.52015 83.7339C8.85311 83.9769 8.27313 84.1734 7.80909 84.3101C7.39288 84.4327 6.94003 84.5489 6.59908 84.5461C5.91425 84.5405 5.2258 84.2878 4.66414 83.947C4.10179 83.6058 3.56021 83.1116 3.23425 82.5087C3.13436 82.3238 3.06471 82.1051 3.01362 81.9189C2.95795 81.7159 2.90429 81.4764 2.8526 81.211C2.74897 80.679 2.64389 79.9964 2.53888 79.2021C2.32852 77.6108 2.11347 75.5222 1.91373 73.184C1.51411 68.5062 1.17284 62.7903 1.05764 57.9853C0.665796 41.6452 2.2694 28.6044 5.82385 19.9933C6.40532 18.5848 7.39836 16.7914 8.4627 15.1234C9.52483 13.4589 10.7029 11.8501 11.6744 10.832C21.0107 1.04844 35.4012 -1.70956 48.1032 3.80575C48.8111 4.11306 50.7218 5.2176 52.3464 6.23962ZM43.3632 19.8015C42.2308 19.1046 41.0872 18.5221 40.2828 18.2441C38.8459 17.7474 36.3828 17.3529 34.8444 17.3739C33.2624 17.3955 30.6409 17.9442 29.14 18.5707C23.8877 20.7638 20.3834 25.6653 20.0437 31.2656C19.7314 36.4194 22.2227 41.6902 26.398 44.7125C30.2505 47.5009 34.6455 48.5021 38.9502 47.6195C43.0946 46.7698 46.2036 44.7326 48.5252 41.3697C50.8095 38.0605 51.5803 33.8697 50.631 29.7645C49.9222 26.7001 48.4319 24.069 46.1457 21.8521C45.5326 21.2576 44.4955 20.4983 43.3632 19.8015Z" stroke="url(#paint1_linear_74_95)" stroke-opacity="0.4" stroke-width="2"/>
<defs>
<linearGradient id="paint0_linear_74_95" x1="64.1739" y1="-11.3409" x2="5.19537" y2="83.0999" gradientUnits="userSpaceOnUse">
<stop offset="0.211538" stop-color="#CDEAFF"/>
<stop offset="0.620192" stop-color="#C5E4FF"/>
<stop offset="1" stop-color="#5EB7FD"/>
</linearGradient>
<linearGradient id="paint1_linear_74_95" x1="51.1797" y1="6.6875" x2="5.19537" y2="83.0999" gradientUnits="userSpaceOnUse">
<stop stop-color="white"/>
</linearGradient>
</defs>
</svg>
