<svg width="187" height="80" viewBox="0 0 187 80" fill="none" xmlns="http://www.w3.org/2000/svg">
<path d="M46.3189 73.5774C44.9382 73.5826 43.8232 74.7062 43.8285 76.0869C43.8338 77.4676 44.9574 78.5826 46.3381 78.5773L46.3285 76.0774L46.3189 73.5774ZM46.4285 76.077L46.4381 78.577L46.5948 78.5764L46.7503 78.5562L46.4285 76.077ZM47.6417 75.9195L47.6775 73.4198L47.498 73.4172L47.3199 73.4403L47.6417 75.9195ZM48.931 75.938L50.3078 73.8513L49.6977 73.4487L48.9668 73.4383L48.931 75.938ZM50.2091 76.7814L48.8323 78.868L49.5032 79.3107L50.3063 79.2795L50.2091 76.7814ZM51.5136 76.7306L51.6109 79.2287L51.8362 79.2199L52.0563 79.171L51.5136 76.7306ZM52.8164 76.4409L53.3713 74.0033L52.8228 73.8784L52.2737 74.0005L52.8164 76.4409ZM54.1166 76.7369L53.5617 79.1745L54.1297 79.3039L54.6964 79.1687L54.1166 76.7369ZM55.4193 76.4263L55.4218 73.9263L55.1266 73.926L54.8395 73.9945L55.4193 76.4263ZM56.7183 76.4276L57.0795 73.9539L56.9011 73.9278L56.7209 73.9276L56.7183 76.4276ZM58.0231 76.6181L57.6619 79.0919L58.4666 79.2094L59.1864 78.831L58.0231 76.6181ZM59.3101 75.9416L60.4571 73.7203L59.2997 73.1226L58.1468 73.7287L59.3101 75.9416ZM60.6295 76.6229L59.4824 78.8442L59.9649 79.0934L60.5073 79.1199L60.6295 76.6229ZM61.935 76.6868L61.8128 79.1838L62.2529 79.2054L62.6738 79.0751L61.935 76.6868ZM63.2214 76.2888L63.9602 78.6772L64.0504 78.6493L64.1383 78.6146L63.2214 76.2888ZM64.498 75.7856L65.2244 73.3934L64.3912 73.1404L63.5811 73.4598L64.498 75.7856ZM65.8209 76.1873L65.0944 78.5794L65.6928 78.7612L66.3063 78.6397L65.8209 76.1873ZM67.1089 75.9324L67.5943 78.3848L67.6297 78.3778L67.6648 78.3698L67.1089 75.9324ZM68.3914 75.6399L69.4208 73.3616L68.6549 73.0156L67.8355 73.2025L68.3914 75.6399ZM69.7408 76.2496L68.7114 78.5278L69.4849 78.8773L70.3113 78.6836L69.7408 76.2496ZM71.024 75.9488L71.1226 73.4508L70.7837 73.4374L70.4536 73.5148L71.024 75.9488ZM72.336 76.0006L72.2375 78.4986L72.9486 78.5267L73.5679 78.176L72.336 76.0006ZM73.5758 75.2986L74.1195 72.8584L73.1808 72.6493L72.344 73.1231L73.5758 75.2986ZM74.9148 75.5969L74.3711 78.0371L75.1217 78.2043L75.8366 77.9207L74.9148 75.5969ZM76.1679 75.0998L77.0897 77.4236L77.0997 77.4197L77.1097 77.4156L76.1679 75.0998ZM77.4147 74.5928L78.4995 72.3404L77.5003 71.8592L76.473 72.2769L77.4147 74.5928ZM78.812 75.2657L77.7271 77.5181L78.9721 78.1177L80.1421 77.3825L78.812 75.2657ZM80.0211 74.5059L79.0157 72.217L78.847 72.2911L78.691 72.3892L80.0211 74.5059ZM81.254 73.9644L81.4509 71.4721L80.8241 71.4226L80.2485 71.6755L81.254 73.9644ZM82.5816 74.0692L82.3847 76.5615L82.8504 76.5983L83.298 76.4644L82.5816 74.0692ZM83.8361 73.6939L84.0799 71.2058L83.5906 71.1579L83.1197 71.2988L83.8361 73.6939ZM85.1755 73.8252L84.9318 76.3132L84.9599 76.316L84.988 76.3181L85.1755 73.8252ZM86.5148 73.9259L86.3273 76.4188L86.8632 76.4591L87.3684 76.2756L86.5148 73.9259ZM87.7553 73.4752L88.0208 70.9893L87.4455 70.9279L86.9017 71.1255L87.7553 73.4752ZM89.1113 73.62L88.8459 76.1059L89.7157 76.1987L90.4537 75.729L89.1113 73.62ZM90.2868 72.8719L90.4726 70.3788L89.6448 70.3171L88.9444 70.7628L90.2868 72.8719ZM91.6377 72.9726L91.4518 75.4657L92.0694 75.5117L92.6371 75.2641L91.6377 72.9726ZM92.8547 72.4418L91.9638 70.1059L91.909 70.1268L91.8552 70.1503L92.8547 72.4418ZM94.0828 71.9734L94.4667 69.5031L93.8115 69.4012L93.192 69.6375L94.0828 71.9734ZM95.4698 72.1889L95.086 74.6593L96.1119 74.8187L96.9489 74.2044L95.4698 72.1889ZM96.6068 71.3546L96.7272 68.8575L95.8421 68.8148L95.1276 69.3391L96.6068 71.3546ZM97.9622 71.4199L97.8418 73.917L98.0907 73.929L98.337 73.8917L97.9622 71.4199ZM99.2557 71.2238L99.6306 73.6955L100.378 73.5821L100.937 73.0736L99.2557 71.2238ZM100.342 70.236L99.998 67.7598L99.2325 67.8663L98.6606 68.3861L100.342 70.236ZM101.639 70.0558L101.983 72.532L102.108 72.5145L102.231 72.4846L101.639 70.0558ZM102.902 69.7477L103.494 72.1765L103.628 72.1439L103.757 72.0969L102.902 69.7477ZM104.126 69.3019L104.981 71.6511L105.014 71.6393L105.046 71.6266L104.126 69.3019ZM105.34 68.8216L105.388 66.322L104.887 66.3125L104.421 66.4969L105.34 68.8216ZM106.702 68.8475L106.654 71.3471L106.789 71.3497L106.924 71.3376L106.702 68.8475ZM108.024 68.7293L108.247 71.2194L108.777 71.172L109.242 70.9128L108.024 68.7293ZM109.188 68.0805L110.405 70.264L110.626 70.1411L110.817 69.9766L109.188 68.0805ZM110.264 67.156L110.598 64.6785L109.486 64.5282L108.634 65.2599L110.264 67.156ZM111.684 67.3479L111.349 69.8254L112.045 69.9194L112.688 69.6376L111.684 67.3479ZM112.882 66.8227L113.886 69.1124L113.913 69.1004L113.94 69.0879L112.882 66.8227ZM114.07 66.2681L113.457 63.8444L113.227 63.9026L113.012 64.003L114.07 66.2681ZM115.333 65.9486L114.82 63.5017L114.77 63.5123L114.719 63.525L115.333 65.9486ZM116.613 65.6806L117.125 68.1276L117.371 68.0762L117.601 67.9771L116.613 65.6806ZM117.812 65.1649L117.854 62.6652L117.317 62.6562L116.824 62.8683L117.812 65.1649ZM119.191 65.188L119.149 67.6876L119.545 67.6943L119.924 67.5779L119.191 65.188ZM120.435 64.806L121.169 67.1959L121.717 67.0276L122.138 66.6369L120.435 64.806ZM121.479 63.8358L121.771 61.353L120.623 61.2178L119.776 62.0049L121.479 63.8358ZM122.912 64.0046L122.62 66.4874L123.481 66.5888L124.22 66.1354L122.912 64.0046ZM124.048 63.3078L123.75 60.8255L123.207 60.8907L122.74 61.177L124.048 63.3078ZM125.371 63.1491L125.669 65.6313L126.411 65.5422L126.983 65.0597L125.371 63.1491ZM126.434 62.2521L125.318 60.0148L125.05 60.1484L124.821 60.3415L126.434 62.2521ZM127.606 61.6677L127.938 59.1899L127.177 59.0879L126.49 59.4305L127.606 61.6677ZM129.057 61.8623L128.725 64.3402L130.355 64.5586L131.201 63.1485L129.057 61.8623ZM129.92 60.4249L130.572 58.0114L128.748 57.5187L127.776 59.1387L129.92 60.4249ZM131.455 60.8396L130.803 63.2531L131.53 63.4496L132.245 63.2115L131.455 60.8396ZM132.69 60.4282L133.48 62.8L133.716 62.7215L133.932 62.598L132.69 60.4282ZM133.835 59.7732L135.077 61.943L135.469 61.7182L135.758 61.3699L133.835 59.7732ZM134.792 58.6206L134.76 56.1208L133.606 56.1352L132.868 57.0238L134.792 58.6206ZM136.174 58.6034L136.295 56.1063L136.219 56.1026L136.143 56.1036L136.174 58.6034ZM137.592 58.6722L137.47 61.1693L138.236 61.2065L138.891 60.8078L137.592 58.6722ZM138.722 57.9845L140.021 60.12L140.357 59.9156L140.614 59.6179L138.722 57.9845ZM139.684 56.8694L139.763 54.3706L138.571 54.3331L137.791 55.236L139.684 56.8694ZM141.096 56.9139L141.017 59.4126L141.526 59.4287L142.001 59.2444L141.096 56.9139ZM142.307 56.4436L143.212 58.7742L143.365 58.715L143.508 58.6363L142.307 56.4436ZM143.455 55.8151L142.675 53.44L142.456 53.5119L142.254 53.6224L143.455 55.8151ZM144.696 55.4074L145.476 57.7825L145.711 57.7055L145.925 57.5841L144.696 55.4074ZM145.837 54.7625L144.652 52.5611L144.63 52.5733L144.608 52.5859L145.837 54.7625ZM146.984 54.1452L145.818 51.934L145.809 51.9389L145.799 51.9438L146.984 54.1452ZM148.139 53.536L147.011 51.3049L146.992 51.3147L146.972 51.3248L148.139 53.536ZM149.297 52.9504L149.755 50.4927L148.924 50.3377L148.169 50.7193L149.297 52.9504ZM150.844 53.2387L150.386 55.6964L151.838 55.9671L152.776 54.8257L150.844 53.2387ZM151.766 52.1171L151.416 49.6416L150.452 49.7777L149.834 50.5302L151.766 52.1171ZM153.107 51.9278L153.457 54.4032L154.054 54.3189L154.547 53.9713L153.107 51.9278ZM154.187 51.1671L152.929 49.0066L152.835 49.0611L152.747 49.1235L154.187 51.1671ZM155.312 50.5118L155.259 48.0124L154.613 48.0262L154.054 48.3514L155.312 50.5118ZM156.762 50.4808L156.815 52.9802L157.457 52.9665L158.013 52.6452L156.762 50.4808ZM157.895 49.8256L159.146 51.99L159.587 51.7354L159.893 51.3289L157.895 49.8256ZM158.751 48.6879L158.059 46.2856L157.256 46.5169L156.754 47.1846L158.751 48.6879ZM160.043 48.3158L160.735 50.7181L161.445 50.5135L161.93 49.9558L160.043 48.3158ZM160.935 47.2898L159.3 45.3985L159.165 45.5152L159.048 45.6497L160.935 47.2898ZM161.923 46.4356L161.822 43.9376L160.949 43.9728L160.288 44.5444L161.923 46.4356ZM163.457 46.3738L163.558 48.8718L165.338 48.8001L165.851 47.0939L163.457 46.3738ZM163.931 44.7986L162.703 42.6208L161.827 43.115L161.537 44.0785L163.931 44.7986ZM165.064 44.1598L166.292 46.3375L166.372 46.2923L166.448 46.2414L165.064 44.1598ZM166.144 43.4415L165.056 41.1908L164.902 41.2652L164.759 41.3598L166.144 43.4415ZM167.342 42.8619L168.431 45.1126L168.45 45.1032L168.47 45.0933L167.342 42.8619ZM168.536 42.2588L169.664 44.4902L169.76 44.4415L169.852 44.3847L168.536 42.2588ZM169.663 41.5617L170.978 43.6875L171.945 43.089L172.13 41.9666L169.663 41.5617ZM169.932 39.9186L169.606 37.44L167.766 37.6823L167.465 39.5136L169.932 39.9186ZM171.516 39.71L171.842 42.1886L173.418 41.981L173.899 40.4653L171.516 39.71ZM171.962 38.3018L170.968 36.0076L169.923 36.4604L169.579 37.5465L171.962 38.3018ZM173.246 37.7457L174.239 40.0399L175.207 39.6208L175.582 38.6352L173.246 37.7457ZM173.748 36.4274L172.125 34.5254L171.639 34.9404L171.411 35.538L173.748 36.4274ZM174.741 35.5805L176.363 37.4825L176.486 37.3776L176.595 37.2576L174.741 35.5805ZM175.611 34.6184L177.465 36.2955L177.514 36.2409L177.561 36.1834L175.611 34.6184ZM176.423 33.6063L178.373 35.1713L178.412 35.1228L178.448 35.0724L176.423 33.6063ZM177.185 32.5543L179.21 34.0203L179.26 33.9515L179.305 33.8794L177.185 32.5543ZM177.877 31.4477L176.209 29.5854L175.945 29.822L175.757 30.1226L177.877 31.4477ZM178.853 30.5735L180.521 32.4357L180.642 32.3268L180.749 32.2029L178.853 30.5735ZM179.703 29.5847L181.599 31.2141L181.783 30.999L181.915 30.748L179.703 29.5847ZM180.307 28.434L178.228 27.0459L178.156 27.1548L178.095 27.2707L180.307 28.434ZM181.027 27.3558L183.107 28.7439L183.111 28.7372L183.115 28.7305L181.027 27.3558ZM181.747 26.2623L183.835 27.637L183.993 27.3972L184.093 27.1278L181.747 26.2623ZM182.199 25.0392L184.544 25.9047L184.631 25.6686L184.669 25.4199L182.199 25.0392ZM182.398 23.7426L180.029 22.9462L179.96 23.1497L179.928 23.3619L182.398 23.7426ZM182.811 22.5146L180.636 21.2822L180.518 21.4909L180.441 21.7182L182.811 22.5146ZM183.508 21.285L185.683 22.5174L185.945 22.0543L185.996 21.5243L183.508 21.285ZM183.636 19.9581L186.124 20.1975L186.194 19.4687L185.86 18.8172L183.636 19.9581ZM182.961 18.6431L180.515 18.1266L180.332 18.9946L180.737 19.784L182.961 18.6431ZM183.236 17.342L185.682 17.8584L185.803 17.2862L185.657 16.7197L183.236 17.342ZM182.909 16.0702L180.433 16.4165L180.453 16.5561L180.488 16.6925L182.909 16.0702ZM182.73 14.7901L185.206 14.4439L185.153 14.0671L184.991 13.723L182.73 14.7901ZM182.176 13.617L184.437 12.5499L184.339 12.3414L184.204 12.1544L182.176 13.617ZM181.418 12.5665L179.179 13.6789L179.271 13.8627L179.391 14.0292L181.418 12.5665ZM180.834 11.3913L183.073 10.2789L182.76 9.64786L182.163 9.27343L180.834 11.3913ZM179.684 10.67L177.436 11.763L177.749 12.4073L178.356 12.7879L179.684 10.67ZM179.094 9.45465L181.342 8.36163L181.305 8.28486L181.262 8.21082L179.094 9.45465ZM178.415 8.27137L180.584 7.02753L179.943 5.91112L178.663 5.78366L178.415 8.27137ZM176.853 8.11592L175.343 10.1082L175.904 10.5338L176.606 10.6036L176.853 8.11592ZM175.862 7.36472L177.372 5.37241L177.328 5.33862L177.282 5.30686L175.862 7.36472ZM174.812 6.64054L176.232 4.58268L175.927 4.37217L175.574 4.25928L174.812 6.64054ZM173.594 6.25111L172.278 8.37652L172.54 8.53863L172.833 8.63238L173.594 6.25111ZM172.461 5.54904L173.777 3.42363L173.139 3.0287L172.389 3.05005L172.461 5.54904ZM171.114 5.58739L169.446 7.44996L170.189 8.11475L171.185 8.08638L171.114 5.58739ZM170.008 4.59783L171.676 2.73526L171.141 2.25603L170.433 2.1341L170.008 4.59783ZM168.726 4.3769L167.748 6.67804L168.015 6.79141L168.301 6.84064L168.726 4.3769ZM167.505 3.85848L168.482 1.55734L167.495 1.1384L166.512 1.56421L167.505 3.85848ZM166.059 4.48441L164.682 6.5711L165.811 7.31595L167.052 6.77868L166.059 4.48441ZM164.864 3.69595L166.241 1.60926L165.921 1.39848L165.553 1.29292L164.864 3.69595ZM163.586 3.32917L164.275 0.926147L163.242 0.629582L162.315 1.17585L163.586 3.32917ZM162.211 4.14004L162.053 6.63508L162.82 6.68345L163.481 6.29337L162.211 4.14004ZM160.92 4.05856L160.495 6.52213L160.628 6.54509L160.762 6.5536L160.92 4.05856ZM159.636 3.83691L160.061 1.37335L159.716 1.31376L159.368 1.35134L159.636 3.83691ZM158.333 3.97755L157.272 6.24118L157.905 6.5382L158.601 6.46311L158.333 3.97755ZM157.051 3.37679L158.112 1.11316L157.252 0.709673L156.34 0.98001L157.051 3.37679ZM155.745 3.76423L154.327 5.8233L155.311 6.50067L156.456 6.16101L155.745 3.76423ZM154.462 2.88057L155.88 0.821504L154.686 -0.00010848L153.38 0.626613L154.462 2.88057ZM153.148 3.51093L152.267 5.85069L153.267 6.22684L154.23 5.76489L153.148 3.51093ZM151.853 3.02343L152.733 0.68367L152.267 0.508257L151.77 0.524816L151.853 3.02343ZM150.554 3.06666L150.471 0.568042L149.821 0.589643L149.265 0.924565L150.554 3.06666ZM149.254 3.8486L149.049 6.34017L149.852 6.40633L150.543 5.9907L149.254 3.8486ZM147.956 3.74166L148.161 1.2501L148.096 1.24475L148.031 1.24279L147.956 3.74166ZM146.656 3.70257L146.731 1.2037L146.531 1.19769L146.333 1.22348L146.656 3.70257ZM145.357 3.87166L144.64 6.26677L145.151 6.41954L145.68 6.35074L145.357 3.87166ZM144.051 3.48087L144.767 1.08576L144.74 1.0775L144.712 1.06988L144.051 3.48087ZM142.747 3.12324L143.408 0.712247L142.484 0.459028L141.628 0.887427L142.747 3.12324ZM141.459 3.76715L140.394 6.02873L141.492 6.54616L142.578 6.00297L141.459 3.76715ZM140.15 3.14999L141.215 0.888415L139.925 0.2809L138.746 1.08119L140.15 3.14999ZM138.866 4.02102L138.512 6.49587L139.469 6.63267L140.269 6.08982L138.866 4.02102ZM137.559 3.83424L136.709 6.18524L136.95 6.2727L137.205 6.30909L137.559 3.83424ZM136.248 3.36034L137.098 1.00934L136.067 0.63632L135.094 1.14276L136.248 3.36034ZM134.967 4.02717L134.443 6.47167L135.323 6.66024L136.121 6.24474L134.967 4.02717ZM133.659 3.74678L134.183 1.30228L133.777 1.21528L133.364 1.26417L133.659 3.74678ZM132.359 3.90089L132.065 1.41829L132.056 1.41929L132.048 1.42035L132.359 3.90089ZM131.067 4.06307L130.001 6.3245L130.658 6.63403L131.378 6.54361L131.067 4.06307ZM129.747 3.44113L130.813 1.17971L129.759 0.683002L128.701 1.17059L129.747 3.44113ZM128.464 4.03272L127.867 6.46038L128.716 6.66921L129.51 6.30326L128.464 4.03272ZM127.153 3.71038L127.75 1.28272L127.096 1.12188L126.45 1.31132L127.153 3.71038ZM125.867 4.08744L125.375 6.53874L125.979 6.65965L126.57 6.4865L125.867 4.08744ZM124.554 3.82449L125.045 1.37319L124.343 1.23261L123.673 1.48469L124.554 3.82449ZM123.272 4.30672L123.219 6.80614L123.701 6.8165L124.153 6.64652L123.272 4.30672ZM121.971 4.2788L121.516 6.73702L121.715 6.77388L121.918 6.77822L121.971 4.2788ZM120.658 4.03574L121.113 1.57751L120.994 1.55532L120.872 1.5449L120.658 4.03574ZM119.353 3.92371L118.958 6.39232L119.049 6.40674L119.14 6.41454L119.353 3.92371ZM118.042 3.71401L118.437 1.24539L117.47 1.09072L116.655 1.63396L118.042 3.71401ZM116.778 4.55724L116.106 6.96539L117.211 7.2733L118.165 6.63729L116.778 4.55724ZM115.46 4.18997L116.132 1.78182L115.278 1.54384L114.465 1.89652L115.46 4.18997ZM114.185 4.74314L114.155 7.24296L114.69 7.24939L115.18 7.03659L114.185 4.74314ZM112.883 4.72747L112.913 2.22765L112.792 2.22619L112.671 2.23647L112.883 4.72747ZM111.588 4.83767L110.346 7.00743L111.023 7.39478L111.8 7.32867L111.588 4.83767ZM110.245 4.06908L111.487 1.89932L110.4 1.27728L109.251 1.7752L110.245 4.06908ZM108.972 4.62046L109.528 7.05784L109.754 7.00637L109.966 6.91434L108.972 4.62046ZM107.687 4.91377L106.861 7.27346L107.541 7.51132L108.243 7.35115L107.687 4.91377ZM106.358 4.44874L107.184 2.08906L106.09 1.70641L105.091 2.29329L106.358 4.44874ZM105.099 5.18851L104.237 7.53536L105.347 7.94259L106.365 7.34396L105.099 5.18851ZM103.767 4.69943L104.628 2.35258L103.478 1.9305L102.44 2.58026L103.767 4.69943ZM102.514 5.48355L101.741 7.86113L102.851 8.22183L103.84 7.60272L102.514 5.48355ZM101.183 5.05094L101.955 2.67336L101.457 2.51128L100.935 2.56325L101.183 5.05094ZM99.8885 5.17985L99.2584 7.59914L99.6912 7.71188L100.136 7.66754L99.8885 5.17985ZM98.562 4.83436L99.1921 2.41508L98.488 2.23169L97.7955 2.45478L98.562 4.83436ZM97.2857 5.24549L96.7926 7.69637L97.4317 7.82497L98.0523 7.62507L97.2857 5.24549ZM95.9637 4.97947L96.4568 2.52859L95.3889 2.31371L94.5044 2.94958L95.9637 4.97947ZM94.7252 5.86982L95.0792 8.34463L95.6864 8.25776L96.1845 7.89971L94.7252 5.86982ZM93.4351 6.05437L92.9737 8.51142L93.38 8.58771L93.7891 8.52918L93.4351 6.05437ZM92.114 5.80627L91.3957 8.20086L91.5225 8.23889L91.6526 8.26332L92.114 5.80627ZM90.7758 5.40486L91.4941 3.01027L90.898 2.83147L90.2877 2.95297L90.7758 5.40486ZM89.4904 5.66074L89.0023 3.20885L88.7608 3.25693L88.5333 3.35121L89.4904 5.66074ZM88.2321 6.18219L89.1047 8.52498L89.1472 8.50912L89.1892 8.49172L88.2321 6.18219ZM86.9685 6.65279L86.0382 8.97324L86.9353 9.33292L87.8411 8.99558L86.9685 6.65279ZM85.6119 6.10889L86.5423 3.78845L85.6169 3.41743L84.6901 3.78505L85.6119 6.10889ZM84.3546 6.60765L85.2276 8.95029L85.2521 8.94115L85.2764 8.93149L84.3546 6.60765ZM83.0971 7.07624L81.7162 9.16027L82.7773 9.86334L83.9701 9.41887L83.0971 7.07624ZM81.6928 6.14576L83.0737 4.06173L82.1651 3.45966L81.1056 3.71572L81.6928 6.14576ZM80.4166 6.4542L80.5127 8.95235L80.7617 8.94277L81.0039 8.88424L80.4166 6.4542ZM79.1153 6.50429L79.0192 4.00614L78.586 4.02281L78.1837 4.18437L79.1153 6.50429ZM77.8629 7.00726L77.7065 9.50236L78.2703 9.53769L78.7945 9.32717L77.8629 7.00726ZM76.5411 6.92442L76.6974 4.42932L76.3889 4.40998L76.0849 4.4664L76.5411 6.92442ZM75.2589 7.16239L74.8027 4.70437L74.3983 4.77943L74.0392 4.98012L75.2589 7.16239ZM74.0364 7.84569L73.8713 10.3402L74.6099 10.3891L75.2561 10.028L74.0364 7.84569ZM72.7167 7.75836L72.8818 5.26381L72.2993 5.22526L71.76 5.44866L72.7167 7.75836ZM71.4752 8.27262L70.8197 10.6852L71.6434 10.9089L72.4319 10.5823L71.4752 8.27262ZM70.1085 7.90131L70.7639 5.48876L70.3654 5.38051L69.9533 5.40613L70.1085 7.90131ZM68.8044 7.9824L68.6492 5.48722L68.5292 5.49468L68.4105 5.51363L68.8044 7.9824ZM67.5188 8.1875L67.125 5.71872L66.7451 5.77932L66.4011 5.95129L67.5188 8.1875ZM66.2991 8.79717L66.4828 11.2904L66.9752 11.2541L67.4169 11.0334L66.2991 8.79717ZM64.9983 8.89302L64.8145 6.39978L64.2184 6.44371L63.7066 6.75255L64.9983 8.89302ZM63.8049 9.61317L63.3569 12.0727L64.287 12.2421L65.0965 11.7536L63.8049 9.61317ZM62.4426 9.36504L62.8906 6.90551L62.1582 6.77209L61.4721 7.06112L62.4426 9.36504ZM61.2175 9.88111L61.4577 12.3695L61.8369 12.3329L62.188 12.185L61.2175 9.88111ZM59.9198 10.0064L59.6796 7.51794L59.6726 7.51864L59.9198 10.0064ZM58.6209 10.1355L58.3737 7.64771L58.2884 7.65619L58.2038 7.67049L58.6209 10.1355ZM57.3384 10.3524L57.4308 12.8507L57.5942 12.8447L57.7554 12.8174L57.3384 10.3524ZM56.018 10.4013L55.9256 7.90299L55.7014 7.91129L55.4823 7.95936L56.018 10.4013ZM54.7462 10.6803L54.2105 8.23837L53.6841 8.35386L53.252 8.67598L54.7462 10.6803ZM53.6086 11.5284L53.6648 14.0278L54.4629 14.0098L55.1028 13.5327L53.6086 11.5284ZM52.2803 11.5583L52.224 9.0589L51.7718 9.06907L51.3519 9.23704L52.2803 11.5583ZM51.0632 12.045L51.8627 14.4138L51.9278 14.3918L51.9916 14.3663L51.0632 12.045ZM49.8308 12.461L49.9178 14.9595L50.2835 14.9467L50.6302 14.8297L49.8308 12.461ZM48.4995 12.5074L48.4125 10.0089L47.7292 10.0327L47.1531 10.401L48.4995 12.5074ZM47.3561 13.2383L47.0826 15.7233L47.9594 15.8198L48.7026 15.3447L47.3561 13.2383ZM45.9612 13.0848L46.2347 10.5998L45.7982 10.5518L45.3714 10.6554L45.9612 13.0848ZM44.6947 13.3923L44.1049 10.9628L44.0721 10.9708L44.0396 10.9796L44.6947 13.3923ZM43.4379 13.7335L42.7828 11.3208L42.2895 11.4548L41.8884 11.7716L43.4379 13.7335ZM42.3469 14.5951L41.9604 17.0651L43.0393 17.2339L43.8964 16.557L42.3469 14.5951ZM40.9077 14.3699L41.2942 11.9L40.5895 11.7897L39.9326 12.0679L40.9077 14.3699ZM39.7039 14.8798L38.7289 12.5778L38.3365 12.744L38.0213 13.0308L39.7039 14.8798ZM38.6559 15.8335L39.853 18.0283L40.1165 17.8845L40.3385 17.6825L38.6559 15.8335ZM37.5027 16.4626L37.1351 18.9354L37.9641 19.0586L38.6998 18.6573L37.5027 16.4626ZM36.0451 16.2459L36.4127 13.7731L36.1083 13.7278L35.802 13.7578L36.0451 16.2459ZM34.7034 16.377L34.4603 13.8888L33.5133 13.9814L32.8675 14.6801L34.7034 16.377ZM33.7159 17.4453L34.8833 19.656L35.2615 19.4563L35.5518 19.1423L33.7159 17.4453ZM32.5608 18.0553L33.5336 20.3583L33.6329 20.3163L33.7282 20.266L32.5608 18.0553ZM31.3636 18.561L31.7095 21.037L32.0343 20.9916L32.3365 20.864L31.3636 18.561ZM30.038 18.7462L30.1575 21.2433L30.2711 21.2379L30.3839 21.2221L30.038 18.7462ZM28.6559 18.8123L28.5365 16.3151L27.7637 16.3521L27.1468 16.8192L28.6559 18.8123ZM27.5848 19.6233L28.3883 21.9907L28.7714 21.8606L29.0939 21.6164L27.5848 19.6233ZM26.3481 20.0431L25.5446 17.6757L24.9708 17.8705L24.5498 18.3064L26.3481 20.0431ZM25.3726 21.0532L25.7093 23.5304L26.5685 23.4137L27.1709 22.7899L25.3726 21.0532ZM24.0294 21.2358L23.6927 18.7585L23.3923 18.7994L23.1103 18.9109L24.0294 21.2358ZM22.8188 21.7143L21.8997 19.3894L21.4445 19.5694L21.0907 19.9078L22.8188 21.7143ZM21.8266 22.6635L22.9917 24.8754L23.3016 24.7122L23.5547 24.47L21.8266 22.6635ZM20.6762 23.2694L21.4671 25.641L21.6607 25.5765L21.8412 25.4813L20.6762 23.2694ZM19.4341 23.6836L19.4592 26.1835L19.8522 26.1795L20.225 26.0552L19.4341 23.6836ZM17.993 23.6981L17.9679 21.1982L16.5518 21.2124L15.836 22.4343L17.993 23.6981ZM17.2074 25.0389L16.8663 27.5155L18.5204 27.7434L19.3645 26.3027L17.2074 25.0389ZM15.6353 24.8224L15.9765 22.3458L14.7694 22.1795L13.8948 23.0278L15.6353 24.8224ZM14.6598 25.7686L15.5271 28.1133L16.0217 27.9303L16.4003 27.5631L14.6598 25.7686ZM13.4216 26.2265L12.5543 23.8818L11.6087 24.2315L11.1703 25.1395L13.4216 26.2265ZM12.7429 27.6322L13.2124 30.0877L14.4474 29.8516L14.9942 28.7192L12.7429 27.6322ZM11.3807 27.8926L10.9112 25.4371L10.5759 25.5012L10.2701 25.6529L11.3807 27.8926ZM10.2044 28.476L9.09372 26.2362L8.87443 26.345L8.6804 26.4942L10.2044 28.476ZM9.16905 29.2721L7.64506 27.2903L7.33637 27.5277L7.1145 27.8478L9.16905 29.2721ZM8.39912 30.3827L9.12302 32.7756L9.95716 32.5232L10.4537 31.807L8.39912 30.3827ZM7.02323 30.7989L6.29933 28.406L5.11542 28.7642L4.68185 29.9226L7.02323 30.7989ZM6.52381 32.1333L8.39956 33.786L8.70385 33.4407L8.86519 33.0096L6.52381 32.1333ZM5.67614 33.0953L3.80039 31.4426L3.77636 31.4699L3.75314 31.4978L5.67614 33.0953ZM4.85218 34.0872L2.92917 32.4897L2.89554 32.5301L2.86364 32.572L4.85218 34.0872ZM4.05689 35.1309L2.06835 33.6158L2.02478 33.6729L1.98457 33.7325L4.05689 35.1309ZM3.28894 36.269L1.21661 34.8706L0.961325 35.2489L0.856182 35.6931L3.28894 36.269ZM2.979 37.5782L0.546244 37.0022L0.351123 37.8264L0.697136 38.5995L2.979 37.5782ZM3.60496 38.9767L5.76965 40.2273L6.40866 39.1213L5.88682 37.9554L3.60496 38.9767ZM2.87941 40.2325L0.714709 38.9819L-0.000188112 40.2193L0.70331 41.4632L2.87941 40.2325ZM3.61142 41.5269L6.11134 41.5465L6.1166 40.8781L5.78752 40.2962L3.61142 41.5269ZM3.60131 42.8123L1.10139 42.7926L1.09936 43.0507L1.15012 43.3038L3.60131 42.8123ZM3.85616 44.083L6.08523 45.215L6.47787 44.4417L6.30735 43.5915L3.85616 44.083ZM3.15697 45.4599L0.927899 44.328L0.412216 45.3435L0.840062 46.3991L3.15697 45.4599ZM3.66313 46.7087L1.34623 47.6478L1.3794 47.7296L1.41825 47.8089L3.66313 46.7087ZM4.23807 47.8818L1.99319 48.982L2.00026 48.9964L2.00751 49.0108L4.23807 47.8818ZM4.81225 49.0162L7.30492 49.2075L7.35839 48.5107L7.04281 47.8872L4.81225 49.0162ZM4.70057 50.4713L2.2079 50.28L2.15377 50.9853L2.47729 51.6145L4.70057 50.4713ZM5.29884 51.6347L7.55847 50.5651L7.5409 50.528L7.52213 50.4915L5.29884 51.6347ZM5.85998 52.8202L3.60036 53.8898L3.80683 54.326L4.16081 54.654L5.85998 52.8202ZM6.85238 53.7397L8.96742 52.4068L8.79237 52.1291L8.55155 51.9059L6.85238 53.7397ZM7.54416 54.8374L5.42912 56.1703L5.66387 56.5428L6.01176 56.8127L7.54416 54.8374ZM8.61342 55.6669L10.9281 54.7224L10.675 54.1022L10.1458 53.6916L8.61342 55.6669ZM9.11699 56.9009L6.80231 57.8455L6.87787 58.0307L6.9819 58.2015L9.11699 56.9009ZM9.79594 58.0156L7.66085 59.3161L7.95465 59.7985L8.42728 60.1077L9.79594 58.0156ZM10.913 58.7464L13.0285 57.4143L12.738 56.9528L12.2816 56.6543L10.913 58.7464ZM11.6192 59.8679L9.50359 61.1999L9.65523 61.4408L9.85711 61.6413L11.6192 59.8679ZM12.5414 60.7842L10.7794 62.5577L10.9423 62.7195L11.1319 62.849L12.5414 60.7842ZM13.6219 61.5217L15.3245 59.6911L15.1867 59.563L15.0313 59.4569L13.6219 61.5217ZM14.573 62.4064L16.6055 60.9508L16.4594 60.7467L16.2756 60.5758L14.573 62.4064ZM15.3585 63.5033L13.326 64.9589L13.7651 65.572L14.47 65.84L15.3585 63.5033ZM16.6323 63.9876L18.063 61.9375L17.8096 61.7607L17.5208 61.6508L16.6323 63.9876ZM17.6971 64.7307L16.2664 66.7808L16.3876 66.8654L16.5178 66.9351L17.6971 64.7307ZM18.8454 65.345L17.6661 67.5494L17.6769 67.5552L17.6878 67.5609L18.8454 65.345ZM19.9929 65.9445L22.3403 65.0845L22.0077 64.1764L21.1504 63.7286L19.9929 65.9445ZM20.5597 67.4919L18.2123 68.3518L18.9 70.2293L20.8827 69.971L20.5597 67.4919ZM22.1888 67.2797L23.793 65.3623L22.9525 64.659L21.8658 64.8006L22.1888 67.2797ZM23.1969 68.1232L24.8207 66.2223L24.811 66.214L24.8012 66.2058L23.1969 68.1232ZM24.213 68.9912L22.5892 70.8921L22.6515 70.9453L22.7172 70.9943L24.213 68.9912ZM25.2823 69.7897L23.7864 71.7928L23.8785 71.8615L23.9764 71.9215L25.2823 69.7897ZM26.4126 70.4821L25.1067 72.6139L25.2885 72.7252L25.4865 72.8042L26.4126 70.4821ZM27.6354 70.9697L26.7093 73.2919L27.1911 73.484L27.7095 73.4686L27.6354 70.9697ZM29.0437 70.928L30.2628 68.7454L29.6599 68.4086L28.9697 68.4291L29.0437 70.928ZM30.2018 71.5749L28.9828 73.7575L29.5596 74.0797L30.2203 74.0748L30.2018 71.5749ZM31.5668 71.5648L33.0504 69.5526L32.3805 69.0587L31.5484 69.0649L31.5668 71.5648ZM32.6937 72.3957L31.2101 74.4079L31.9222 74.9329L32.806 74.8931L32.6937 72.3957ZM34.0462 72.3348L33.9976 69.8353L33.9657 69.8359L33.9339 69.8373L34.0462 72.3348ZM35.3757 72.309L35.4753 69.8109L35.4012 69.808L35.3271 69.8094L35.3757 72.309ZM36.6814 72.361L38.4453 70.5893L37.7547 69.9018L36.781 69.863L36.6814 72.361ZM37.8094 73.484L36.0455 75.2557L36.9211 76.1274L38.1455 75.9613L37.8094 73.484ZM39.1565 73.3012L39.3169 70.8064L39.0677 70.7904L38.8204 70.8239L39.1565 73.3012ZM40.4571 73.3849L40.2967 75.8797L40.3459 75.8829L40.3951 75.8841L40.4571 73.3849ZM41.761 73.4172L42.9078 71.1958L42.3973 70.9322L41.823 70.918L41.761 73.4172ZM42.9997 74.0567L41.8529 76.2781L42.1516 76.4324L42.4806 76.5022L42.9997 74.0567ZM44.283 74.3291L43.7639 76.7746L44.4786 76.9264L45.1625 76.6693L44.283 74.3291ZM45.6366 73.8204L46.8995 71.6628L45.8718 71.0613L44.7571 71.4802L45.6366 73.8204ZM46.8815 74.5491L45.6187 76.7066L46.4318 77.1826L47.3568 77.0035L46.8815 74.5491ZM48.2062 74.2925L48.4492 71.8044L48.0876 71.7691L47.7309 71.8381L48.2062 74.2925ZM49.5012 74.419L49.2582 76.9072L49.405 76.9215L49.5524 76.9185L49.5012 74.419ZM50.8063 74.3923L50.8575 76.8918L50.9583 76.8897L51.0585 76.8795L50.8063 74.3923ZM52.1172 74.2594L52.2662 71.7638L52.0652 71.7518L51.8649 71.7721L52.1172 74.2594ZM53.4145 74.3369L53.2655 76.8324L53.5015 76.8465L53.736 76.8161L53.4145 74.3369ZM54.7259 74.1668L55.6348 71.8379L55.0389 71.6053L54.4045 71.6876L54.7259 74.1668ZM56.0004 74.6641L56.9181 72.3387L56.9092 72.3352L56.0004 74.6641ZM57.2758 75.1675L56.358 77.4929L57.2659 77.8512L58.1764 77.4996L57.2758 75.1675ZM58.6042 74.6544L58.1805 72.1906L57.9355 72.2327L57.7035 72.3223L58.6042 74.6544ZM59.917 74.4287L61.4735 72.4723L60.5971 71.7751L59.4934 71.9649L59.917 74.4287ZM61.169 75.4248L59.6125 77.3811L60.855 78.3697L62.278 77.6653L61.169 75.4248ZM62.5035 74.7642L63.8611 72.6649L62.6679 71.8933L61.3945 72.5237L62.5035 74.7642ZM63.7651 75.5801L62.4075 77.6794L63.0545 78.0978L63.8249 78.0794L63.7651 75.5801ZM64.6163 75.5597L64.6761 78.059L66.9999 78.0033L67.1133 75.6817L64.6163 75.5597ZM67.1363 75.2111C67.2037 73.832 66.1404 72.6595 64.7613 72.5921C63.3822 72.5247 62.2096 73.588 62.1423 74.9671L64.6393 75.0891L67.1363 75.2111ZM46.3285 76.0774L46.3381 78.5773L46.4381 78.577L46.4285 76.077L46.4189 73.577L46.3189 73.5774L46.3285 76.0774ZM46.4285 76.077L46.7503 78.5562L47.9634 78.3987L47.6417 75.9195L47.3199 73.4403L46.1068 73.5978L46.4285 76.077ZM47.6417 75.9195L47.6059 78.4193L48.8951 78.4378L48.931 75.938L48.9668 73.4383L47.6775 73.4198L47.6417 75.9195ZM48.931 75.938L47.5541 78.0247L48.8323 78.868L50.2091 76.7814L51.586 74.6947L50.3078 73.8513L48.931 75.938ZM50.2091 76.7814L50.3063 79.2795L51.6109 79.2287L51.5136 76.7306L51.4164 74.2325L50.1119 74.2832L50.2091 76.7814ZM51.5136 76.7306L52.0563 79.171L53.359 78.8813L52.8164 76.4409L52.2737 74.0005L50.971 74.2902L51.5136 76.7306ZM52.8164 76.4409L52.2615 78.8785L53.5617 79.1745L54.1166 76.7369L54.6715 74.2993L53.3713 74.0033L52.8164 76.4409ZM54.1166 76.7369L54.6964 79.1687L55.9991 78.8582L55.4193 76.4263L54.8395 73.9945L53.5368 74.3051L54.1166 76.7369ZM55.4193 76.4263L55.4167 78.9263L56.7158 78.9276L56.7183 76.4276L56.7209 73.9276L55.4218 73.9263L55.4193 76.4263ZM56.7183 76.4276L56.3571 78.9014L57.6619 79.0919L58.0231 76.6181L58.3843 74.1444L57.0795 73.9539L56.7183 76.4276ZM58.0231 76.6181L59.1864 78.831L60.4734 78.1544L59.3101 75.9416L58.1468 73.7287L56.8598 74.4053L58.0231 76.6181ZM59.3101 75.9416L58.163 78.1629L59.4824 78.8442L60.6295 76.6229L61.7766 74.4016L60.4571 73.7203L59.3101 75.9416ZM60.6295 76.6229L60.5073 79.1199L61.8128 79.1838L61.935 76.6868L62.0572 74.1898L60.7517 74.1259L60.6295 76.6229ZM61.935 76.6868L62.6738 79.0751L63.9602 78.6772L63.2214 76.2888L62.4825 73.9005L61.1961 74.2985L61.935 76.6868ZM63.2214 76.2888L64.1383 78.6146L65.4149 78.1114L64.498 75.7856L63.5811 73.4598L62.3045 73.9631L63.2214 76.2888ZM64.498 75.7856L63.7715 78.1777L65.0944 78.5794L65.8209 76.1873L66.5474 73.7952L65.2244 73.3934L64.498 75.7856ZM65.8209 76.1873L66.3063 78.6397L67.5943 78.3848L67.1089 75.9324L66.6234 73.48L65.3354 73.7349L65.8209 76.1873ZM67.1089 75.9324L67.6648 78.3698L68.9473 78.0773L68.3914 75.6399L67.8355 73.2025L66.553 73.495L67.1089 75.9324ZM68.3914 75.6399L67.362 77.9181L68.7114 78.5278L69.7408 76.2496L70.7702 73.9714L69.4208 73.3616L68.3914 75.6399ZM69.7408 76.2496L70.3113 78.6836L71.5945 78.3829L71.024 75.9488L70.4536 73.5148L69.1703 73.8155L69.7408 76.2496ZM71.024 75.9488L70.9255 78.4469L72.2375 78.4986L72.336 76.0006L72.4346 73.5025L71.1226 73.4508L71.024 75.9488ZM72.336 76.0006L73.5679 78.176L74.8076 77.474L73.5758 75.2986L72.344 73.1231L71.1042 73.8251L72.336 76.0006ZM73.5758 75.2986L73.0321 77.7387L74.3711 78.0371L74.9148 75.5969L75.4584 73.1567L74.1195 72.8584L73.5758 75.2986ZM74.9148 75.5969L75.8366 77.9207L77.0897 77.4236L76.1679 75.0998L75.2461 72.7759L73.993 73.273L74.9148 75.5969ZM76.1679 75.0998L77.1097 77.4156L78.3565 76.9086L77.4147 74.5928L76.473 72.2769L75.2262 72.784L76.1679 75.0998ZM77.4147 74.5928L76.3299 76.8452L77.7271 77.5181L78.812 75.2657L79.8968 73.0134L78.4995 72.3404L77.4147 74.5928ZM78.812 75.2657L80.1421 77.3825L81.3513 76.6227L80.0211 74.5059L78.691 72.3892L77.4818 73.149L78.812 75.2657ZM80.0211 74.5059L81.0266 76.7948L82.2595 76.2533L81.254 73.9644L80.2485 71.6755L79.0157 72.217L80.0211 74.5059ZM81.254 73.9644L81.0571 76.4566L82.3847 76.5615L82.5816 74.0692L82.7784 71.577L81.4509 71.4721L81.254 73.9644ZM82.5816 74.0692L83.298 76.4644L84.5526 76.0891L83.8361 73.6939L83.1197 71.2988L81.8651 71.6741L82.5816 74.0692ZM83.8361 73.6939L83.5924 76.182L84.9318 76.3132L85.1755 73.8252L85.4193 71.3371L84.0799 71.2058L83.8361 73.6939ZM85.1755 73.8252L84.988 76.3181L86.3273 76.4188L86.5148 73.9259L86.7022 71.4329L85.363 71.3322L85.1755 73.8252ZM86.5148 73.9259L87.3684 76.2756L88.6089 75.825L87.7553 73.4752L86.9017 71.1255L85.6611 71.5761L86.5148 73.9259ZM87.7553 73.4752L87.4899 75.9611L88.8459 76.1059L89.1113 73.62L89.3768 71.1341L88.0208 70.9893L87.7553 73.4752ZM89.1113 73.62L90.4537 75.729L91.6291 74.9809L90.2868 72.8719L88.9444 70.7628L87.769 71.5109L89.1113 73.62ZM90.2868 72.8719L90.1009 75.365L91.4518 75.4657L91.6377 72.9726L91.8236 70.4795L90.4726 70.3788L90.2868 72.8719ZM91.6377 72.9726L92.6371 75.2641L93.8541 74.7333L92.8547 72.4418L91.8552 70.1503L90.6382 70.6811L91.6377 72.9726ZM92.8547 72.4418L93.7455 74.7777L94.9737 74.3093L94.0828 71.9734L93.192 69.6375L91.9638 70.1059L92.8547 72.4418ZM94.0828 71.9734L93.699 74.4438L95.086 74.6593L95.4698 72.1889L95.8537 69.7186L94.4667 69.5031L94.0828 71.9734ZM95.4698 72.1889L96.9489 74.2044L98.0859 73.3701L96.6068 71.3546L95.1276 69.3391L93.9907 70.1734L95.4698 72.1889ZM96.6068 71.3546L96.4863 73.8517L97.8418 73.917L97.9622 71.4199L98.0826 68.9228L96.7272 68.8575L96.6068 71.3546ZM97.9622 71.4199L98.337 73.8917L99.6306 73.6955L99.2557 71.2238L98.8809 68.752L97.5873 68.9482L97.9622 71.4199ZM99.2557 71.2238L100.937 73.0736L102.024 72.0859L100.342 70.236L98.6606 68.3861L97.5741 69.3739L99.2557 71.2238ZM100.342 70.236L100.687 72.7122L101.983 72.532L101.639 70.0558L101.294 67.5796L99.998 67.7598L100.342 70.236ZM101.639 70.0558L102.231 72.4846L103.494 72.1765L102.902 69.7477L102.309 67.3189L101.046 67.627L101.639 70.0558ZM102.902 69.7477L103.757 72.0969L104.981 71.6511L104.126 69.3019L103.271 66.9527L102.047 67.3985L102.902 69.7477ZM104.126 69.3019L105.046 71.6266L106.26 71.1462L105.34 68.8216L104.421 66.4969L103.207 66.9772L104.126 69.3019ZM105.34 68.8216L105.293 71.3211L106.654 71.3471L106.702 68.8475L106.749 66.348L105.388 66.322L105.34 68.8216ZM106.702 68.8475L106.924 71.3376L108.247 71.2194L108.024 68.7293L107.801 66.2392L106.479 66.3575L106.702 68.8475ZM108.024 68.7293L109.242 70.9128L110.405 70.264L109.188 68.0805L107.97 65.897L106.807 66.5458L108.024 68.7293ZM109.188 68.0805L110.817 69.9766L111.893 69.0521L110.264 67.156L108.634 65.2599L107.558 66.1844L109.188 68.0805ZM110.264 67.156L109.929 69.6335L111.349 69.8254L111.684 67.3479L112.019 64.8704L110.598 64.6785L110.264 67.156ZM111.684 67.3479L112.688 69.6376L113.886 69.1124L112.882 66.8227L111.879 64.5331L110.68 65.0583L111.684 67.3479ZM112.882 66.8227L113.94 69.0879L115.128 68.5332L114.07 66.2681L113.012 64.003L111.824 64.5576L112.882 66.8227ZM114.07 66.2681L114.683 68.6917L115.946 68.3723L115.333 65.9486L114.719 63.525L113.457 63.8444L114.07 66.2681ZM115.333 65.9486L115.845 68.3956L117.125 68.1276L116.613 65.6806L116.101 63.2337L114.82 63.5017L115.333 65.9486ZM116.613 65.6806L117.601 67.9771L118.8 67.4614L117.812 65.1649L116.824 62.8683L115.625 63.3841L116.613 65.6806ZM117.812 65.1649L117.77 67.6645L119.149 67.6876L119.191 65.188L119.233 62.6883L117.854 62.6652L117.812 65.1649ZM119.191 65.188L119.924 67.5779L121.169 67.1959L120.435 64.806L119.702 62.416L118.457 62.798L119.191 65.188ZM120.435 64.806L122.138 66.6369L123.181 65.6667L121.479 63.8358L119.776 62.0049L118.733 62.9751L120.435 64.806ZM121.479 63.8358L121.186 66.3187L122.62 66.4874L122.912 64.0046L123.205 61.5217L121.771 61.353L121.479 63.8358ZM122.912 64.0046L124.22 66.1354L125.355 65.4385L124.048 63.3078L122.74 61.177L121.605 61.8738L122.912 64.0046ZM124.048 63.3078L124.345 65.79L125.669 65.6313L125.371 63.1491L125.073 60.6669L123.75 60.8255L124.048 63.3078ZM125.371 63.1491L126.983 65.0597L128.046 64.1627L126.434 62.2521L124.821 60.3415L123.759 61.2384L125.371 63.1491ZM126.434 62.2521L127.549 64.4894L128.721 63.905L127.606 61.6677L126.49 59.4305L125.318 60.0148L126.434 62.2521ZM127.606 61.6677L127.274 64.1456L128.725 64.3402L129.057 61.8623L129.39 59.3845L127.938 59.1899L127.606 61.6677ZM129.057 61.8623L131.201 63.1485L132.064 61.7111L129.92 60.4249L127.776 59.1387L126.914 60.5761L129.057 61.8623ZM129.92 60.4249L129.268 62.8384L130.803 63.2531L131.455 60.8396L132.107 58.4262L130.572 58.0114L129.92 60.4249ZM131.455 60.8396L132.245 63.2115L133.48 62.8L132.69 60.4282L131.9 58.0563L130.665 58.4678L131.455 60.8396ZM132.69 60.4282L133.932 62.598L135.077 61.943L133.835 59.7732L132.593 57.6033L131.448 58.2584L132.69 60.4282ZM133.835 59.7732L135.758 61.3699L136.715 60.2174L134.792 58.6206L132.868 57.0238L131.911 58.1764L133.835 59.7732ZM134.792 58.6206L134.823 61.1204L136.205 61.1032L136.174 58.6034L136.143 56.1036L134.76 56.1208L134.792 58.6206ZM136.174 58.6034L136.052 61.1004L137.47 61.1693L137.592 58.6722L137.713 56.1752L136.295 56.1063L136.174 58.6034ZM137.592 58.6722L138.891 60.8078L140.021 60.12L138.722 57.9845L137.422 55.8489L136.292 56.5367L137.592 58.6722ZM138.722 57.9845L140.614 59.6179L141.577 58.5028L139.684 56.8694L137.791 55.236L136.829 56.3511L138.722 57.9845ZM139.684 56.8694L139.605 59.3681L141.017 59.4126L141.096 56.9139L141.175 54.4151L139.763 54.3706L139.684 56.8694ZM141.096 56.9139L142.001 59.2444L143.212 58.7742L142.307 56.4436L141.403 54.1131L140.191 54.5833L141.096 56.9139ZM142.307 56.4436L143.508 58.6363L144.656 58.0078L143.455 55.8151L142.254 53.6224L141.106 54.251L142.307 56.4436ZM143.455 55.8151L144.235 58.1902L145.476 57.7825L144.696 55.4074L143.915 53.0323L142.675 53.44L143.455 55.8151ZM144.696 55.4074L145.925 57.5841L147.067 56.9391L145.837 54.7625L144.608 52.5859L143.466 53.2308L144.696 55.4074ZM145.837 54.7625L147.022 56.9639L148.169 56.3466L146.984 54.1452L145.799 51.9438L144.652 52.5611L145.837 54.7625ZM146.984 54.1452L148.151 56.3563L149.305 55.7471L148.139 53.536L146.972 51.3248L145.818 51.934L146.984 54.1452ZM148.139 53.536L149.267 55.767L150.425 55.1814L149.297 52.9504L148.169 50.7193L147.011 51.3049L148.139 53.536ZM149.297 52.9504L148.839 55.408L150.386 55.6964L150.844 53.2387L151.302 50.7811L149.755 50.4927L149.297 52.9504ZM150.844 53.2387L152.776 54.8257L153.697 53.704L151.766 52.1171L149.834 50.5302L148.913 51.6518L150.844 53.2387ZM151.766 52.1171L152.115 54.5926L153.457 54.4032L153.107 51.9278L152.758 49.4523L151.416 49.6416L151.766 52.1171ZM153.107 51.9278L154.547 53.9713L155.627 53.2106L154.187 51.1671L152.747 49.1235L151.667 49.8842L153.107 51.9278ZM154.187 51.1671L155.445 53.3275L156.57 52.6723L155.312 50.5118L154.054 48.3514L152.929 49.0066L154.187 51.1671ZM155.312 50.5118L155.366 53.0112L156.815 52.9802L156.762 50.4808L156.708 47.9814L155.259 48.0124L155.312 50.5118ZM156.762 50.4808L158.013 52.6452L159.146 51.99L157.895 49.8256L156.644 47.6612L155.511 48.3163L156.762 50.4808ZM157.895 49.8256L159.893 51.3289L160.749 50.1912L158.751 48.6879L156.754 47.1846L155.898 48.3223L157.895 49.8256ZM158.751 48.6879L159.443 51.0902L160.735 50.7181L160.043 48.3158L159.351 45.9134L158.059 46.2856L158.751 48.6879ZM160.043 48.3158L161.93 49.9558L162.822 48.9298L160.935 47.2898L159.048 45.6497L158.156 46.6757L160.043 48.3158ZM160.935 47.2898L162.57 49.181L163.558 48.3269L161.923 46.4356L160.288 44.5444L159.3 45.3985L160.935 47.2898ZM161.923 46.4356L162.024 48.9336L163.558 48.8718L163.457 46.3738L163.356 43.8759L161.822 43.9376L161.923 46.4356ZM163.457 46.3738L165.851 47.0939L166.325 45.5187L163.931 44.7986L161.537 44.0785L161.063 45.6537L163.457 46.3738ZM163.931 44.7986L165.159 46.9763L166.292 46.3375L165.064 44.1598L163.836 41.982L162.703 42.6208L163.931 44.7986ZM165.064 44.1598L166.448 46.2414L167.528 45.5231L166.144 43.4415L164.759 41.3598L163.679 42.0781L165.064 44.1598ZM166.144 43.4415L167.232 45.6922L168.431 45.1126L167.342 42.8619L166.254 40.6113L165.056 41.1908L166.144 43.4415ZM167.342 42.8619L168.47 45.0933L169.664 44.4902L168.536 42.2588L167.409 40.0274L166.215 40.6306L167.342 42.8619ZM168.536 42.2588L169.852 44.3847L170.978 43.6875L169.663 41.5617L168.347 39.4358L167.221 40.133L168.536 42.2588ZM169.663 41.5617L172.13 41.9666L172.399 40.3235L169.932 39.9186L167.465 39.5136L167.196 41.1567L169.663 41.5617ZM169.932 39.9186L170.259 42.3972L171.842 42.1886L171.516 39.71L171.189 37.2315L169.606 37.44L169.932 39.9186ZM171.516 39.71L173.899 40.4653L174.345 39.057L171.962 38.3018L169.579 37.5465L169.132 38.9548L171.516 39.71ZM171.962 38.3018L172.955 40.5959L174.239 40.0399L173.246 37.7457L172.253 35.4516L170.968 36.0076L171.962 38.3018ZM173.246 37.7457L175.582 38.6352L176.084 37.3169L173.748 36.4274L171.411 35.538L170.91 36.8563L173.246 37.7457ZM173.748 36.4274L175.37 38.3295L176.363 37.4825L174.741 35.5805L173.118 33.6785L172.125 34.5254L173.748 36.4274ZM174.741 35.5805L176.595 37.2576L177.465 36.2955L175.611 34.6184L173.757 32.9413L172.887 33.9034L174.741 35.5805ZM175.611 34.6184L177.561 36.1834L178.373 35.1713L176.423 33.6063L174.474 32.0413L173.661 33.0534L175.611 34.6184ZM176.423 33.6063L178.448 35.0724L179.21 34.0203L177.185 32.5543L175.16 31.0882L174.398 32.1403L176.423 33.6063ZM177.185 32.5543L179.305 33.8794L179.997 32.7728L177.877 31.4477L175.757 30.1226L175.065 31.2291L177.185 32.5543ZM177.877 31.4477L179.545 33.31L180.521 32.4357L178.853 30.5735L177.185 28.7112L176.209 29.5854L177.877 31.4477ZM178.853 30.5735L180.749 32.2029L181.599 31.2141L179.703 29.5847L177.807 27.9553L176.957 28.944L178.853 30.5735ZM179.703 29.5847L181.915 30.748L182.52 29.5974L180.307 28.434L178.095 27.2707L177.49 28.4214L179.703 29.5847ZM180.307 28.434L182.387 29.8222L183.107 28.7439L181.027 27.3558L178.948 25.9677L178.228 27.0459L180.307 28.434ZM181.027 27.3558L183.115 28.7305L183.835 27.637L181.747 26.2623L179.659 24.8876L178.939 25.9811L181.027 27.3558ZM181.747 26.2623L184.093 27.1278L184.544 25.9047L182.199 25.0392L179.853 24.1736L179.402 25.3967L181.747 26.2623ZM182.199 25.0392L184.669 25.4199L184.869 24.1234L182.398 23.7426L179.928 23.3619L179.728 24.6584L182.199 25.0392ZM182.398 23.7426L184.768 24.539L185.181 23.311L182.811 22.5146L180.441 21.7182L180.029 22.9462L182.398 23.7426ZM182.811 22.5146L184.986 23.7471L185.683 22.5174L183.508 21.285L181.333 20.0525L180.636 21.2822L182.811 22.5146ZM183.508 21.285L185.996 21.5243L186.124 20.1975L183.636 19.9581L181.147 19.7188L181.019 21.0456L183.508 21.285ZM183.636 19.9581L185.86 18.8172L185.186 17.5022L182.961 18.6431L180.737 19.784L181.411 21.099L183.636 19.9581ZM182.961 18.6431L185.407 19.1595L185.682 17.8584L183.236 17.342L180.79 16.8255L180.515 18.1266L182.961 18.6431ZM183.236 17.342L185.657 16.7197L185.33 15.4479L182.909 16.0702L180.488 16.6925L180.814 17.9643L183.236 17.342ZM182.909 16.0702L185.385 15.724L185.206 14.4439L182.73 14.7901L180.254 15.1364L180.433 16.4165L182.909 16.0702ZM182.73 14.7901L184.991 13.723L184.437 12.5499L182.176 13.617L179.915 14.6842L180.469 15.8573L182.73 14.7901ZM182.176 13.617L184.204 12.1544L183.446 11.1039L181.418 12.5665L179.391 14.0292L180.149 15.0796L182.176 13.617ZM181.418 12.5665L183.657 11.4542L183.073 10.2789L180.834 11.3913L178.596 12.5037L179.179 13.6789L181.418 12.5665ZM180.834 11.3913L182.163 9.27343L181.013 8.55214L179.684 10.67L178.356 12.7879L179.506 13.5092L180.834 11.3913ZM179.684 10.67L181.933 9.57699L181.342 8.36163L179.094 9.45465L176.845 10.5477L177.436 11.763L179.684 10.67ZM179.094 9.45465L181.262 8.21082L180.584 7.02753L178.415 8.27137L176.246 9.5152L176.925 10.6985L179.094 9.45465ZM178.415 8.27137L178.663 5.78366L177.101 5.62821L176.853 8.11592L176.606 10.6036L178.167 10.7591L178.415 8.27137ZM176.853 8.11592L178.363 6.12361L177.372 5.37241L175.862 7.36472L174.352 9.35703L175.343 10.1082L176.853 8.11592ZM175.862 7.36472L177.282 5.30686L176.232 4.58268L174.812 6.64054L173.393 8.69841L174.443 9.42259L175.862 7.36472ZM174.812 6.64054L175.574 4.25928L174.355 3.86984L173.594 6.25111L172.833 8.63238L174.051 9.02181L174.812 6.64054ZM173.594 6.25111L174.911 4.12571L173.777 3.42363L172.461 5.54904L171.144 7.67444L172.278 8.37652L173.594 6.25111ZM172.461 5.54904L172.389 3.05005L171.043 3.0884L171.114 5.58739L171.185 8.08638L172.532 8.04802L172.461 5.54904ZM171.114 5.58739L172.781 3.72482L171.676 2.73526L170.008 4.59783L168.341 6.4604L169.446 7.44996L171.114 5.58739ZM170.008 4.59783L170.433 2.1341L169.15 1.91317L168.726 4.3769L168.301 6.84064L169.584 7.06157L170.008 4.59783ZM168.726 4.3769L169.703 2.07576L168.482 1.55734L167.505 3.85848L166.528 6.15961L167.748 6.67804L168.726 4.3769ZM167.505 3.85848L166.512 1.56421L165.066 2.19014L166.059 4.48441L167.052 6.77868L168.498 6.15274L167.505 3.85848ZM166.059 4.48441L167.436 2.39772L166.241 1.60926L164.864 3.69595L163.487 5.78264L164.682 6.5711L166.059 4.48441ZM164.864 3.69595L165.553 1.29292L164.275 0.926147L163.586 3.32917L162.896 5.7322L164.174 6.09898L164.864 3.69595ZM163.586 3.32917L162.315 1.17585L160.941 1.98672L162.211 4.14004L163.481 6.29337L164.856 5.4825L163.586 3.32917ZM162.211 4.14004L162.368 1.64501L161.077 1.56353L160.92 4.05856L160.762 6.5536L162.053 6.63508L162.211 4.14004ZM160.92 4.05856L161.345 1.595L160.061 1.37335L159.636 3.83691L159.211 6.30048L160.495 6.52213L160.92 4.05856ZM159.636 3.83691L159.368 1.35134L158.065 1.49198L158.333 3.97755L158.601 6.46311L159.904 6.32248L159.636 3.83691ZM158.333 3.97755L159.394 1.71392L158.112 1.11316L157.051 3.37679L155.99 5.64041L157.272 6.24118L158.333 3.97755ZM157.051 3.37679L156.34 0.98001L155.034 1.36746L155.745 3.76423L156.456 6.16101L157.762 5.77356L157.051 3.37679ZM155.745 3.76423L157.163 1.70516L155.88 0.821504L154.462 2.88057L153.044 4.93964L154.327 5.8233L155.745 3.76423ZM154.462 2.88057L153.38 0.626613L152.067 1.25697L153.148 3.51093L154.23 5.76489L155.543 5.13453L154.462 2.88057ZM153.148 3.51093L154.029 1.17116L152.733 0.68367L151.853 3.02343L150.972 5.3632L152.267 5.85069L153.148 3.51093ZM151.853 3.02343L151.77 0.524816L150.471 0.568042L150.554 3.06666L150.637 5.56528L151.936 5.52205L151.853 3.02343ZM150.554 3.06666L149.265 0.924565L147.965 1.70651L149.254 3.8486L150.543 5.9907L151.843 5.20875L150.554 3.06666ZM149.254 3.8486L149.459 1.35704L148.161 1.2501L147.956 3.74166L147.75 6.23323L149.049 6.34017L149.254 3.8486ZM147.956 3.74166L148.031 1.24279L146.731 1.2037L146.656 3.70257L146.581 6.20144L147.88 6.24053L147.956 3.74166ZM146.656 3.70257L146.333 1.22348L145.034 1.39257L145.357 3.87166L145.68 6.35074L146.979 6.18166L146.656 3.70257ZM145.357 3.87166L146.074 1.47654L144.767 1.08576L144.051 3.48087L143.334 5.87599L144.64 6.26677L145.357 3.87166ZM144.051 3.48087L144.712 1.06988L143.408 0.712247L142.747 3.12324L142.085 5.53423L143.39 5.89186L144.051 3.48087ZM142.747 3.12324L141.628 0.887427L140.341 1.53134L141.459 3.76715L142.578 6.00297L143.865 5.35905L142.747 3.12324ZM141.459 3.76715L142.525 1.50558L141.215 0.888415L140.15 3.14999L139.084 5.41157L140.394 6.02873L141.459 3.76715ZM140.15 3.14999L138.746 1.08119L137.462 1.95222L138.866 4.02102L140.269 6.08982L141.553 5.2188L140.15 3.14999ZM138.866 4.02102L139.219 1.54617L137.912 1.35939L137.559 3.83424L137.205 6.30909L138.512 6.49587L138.866 4.02102ZM137.559 3.83424L138.409 1.48324L137.098 1.00934L136.248 3.36034L135.398 5.71133L136.709 6.18524L137.559 3.83424ZM136.248 3.36034L135.094 1.14276L133.813 1.8096L134.967 4.02717L136.121 6.24474L137.403 5.57791L136.248 3.36034ZM134.967 4.02717L135.491 1.58267L134.183 1.30228L133.659 3.74678L133.135 6.19127L134.443 6.47167L134.967 4.02717ZM133.659 3.74678L133.364 1.26417L132.065 1.41829L132.359 3.90089L132.654 6.3835L133.953 6.22938L133.659 3.74678ZM132.359 3.90089L132.048 1.42035L130.756 1.58253L131.067 4.06307L131.378 6.54361L132.67 6.38143L132.359 3.90089ZM131.067 4.06307L132.133 1.80165L130.813 1.17971L129.747 3.44113L128.682 5.70256L130.001 6.3245L131.067 4.06307ZM129.747 3.44113L128.701 1.17059L127.417 1.76218L128.464 4.03272L129.51 6.30326L130.794 5.71168L129.747 3.44113ZM128.464 4.03272L129.061 1.60506L127.75 1.28272L127.153 3.71038L126.556 6.13804L127.867 6.46038L128.464 4.03272ZM127.153 3.71038L126.45 1.31132L125.163 1.68838L125.867 4.08744L126.57 6.4865L127.856 6.10944L127.153 3.71038ZM125.867 4.08744L126.358 1.63614L125.045 1.37319L124.554 3.82449L124.063 6.27579L125.375 6.53874L125.867 4.08744ZM124.554 3.82449L123.673 1.48469L122.392 1.96692L123.272 4.30672L124.153 6.64652L125.434 6.16429L124.554 3.82449ZM123.272 4.30672L123.326 1.8073L122.025 1.77937L121.971 4.2788L121.918 6.77822L123.219 6.80614L123.272 4.30672ZM121.971 4.2788L122.426 1.82057L121.113 1.57751L120.658 4.03574L120.203 6.49396L121.516 6.73702L121.971 4.2788ZM120.658 4.03574L120.872 1.5449L119.567 1.43287L119.353 3.92371L119.14 6.41454L120.445 6.52657L120.658 4.03574ZM119.353 3.92371L119.748 1.45509L118.437 1.24539L118.042 3.71401L117.647 6.18263L118.958 6.39232L119.353 3.92371ZM118.042 3.71401L116.655 1.63396L115.391 2.47719L116.778 4.55724L118.165 6.63729L119.429 5.79406L118.042 3.71401ZM116.778 4.55724L117.449 2.14909L116.132 1.78182L115.46 4.18997L114.789 6.59813L116.106 6.96539L116.778 4.55724ZM115.46 4.18997L114.465 1.89652L113.19 2.44969L114.185 4.74314L115.18 7.03659L116.455 6.48343L115.46 4.18997ZM114.185 4.74314L114.215 2.24332L112.913 2.22765L112.883 4.72747L112.853 7.22729L114.155 7.24296L114.185 4.74314ZM112.883 4.72747L112.671 2.23647L111.376 2.34667L111.588 4.83767L111.8 7.32867L113.095 7.21847L112.883 4.72747ZM111.588 4.83767L112.83 2.66792L111.487 1.89932L110.245 4.06908L109.003 6.23884L110.346 7.00743L111.588 4.83767ZM110.245 4.06908L109.251 1.7752L107.978 2.32658L108.972 4.62046L109.966 6.91434L111.239 6.36297L110.245 4.06908ZM108.972 4.62046L108.416 2.18308L107.131 2.47639L107.687 4.91377L108.243 7.35115L109.528 7.05784L108.972 4.62046ZM107.687 4.91377L108.512 2.55409L107.184 2.08906L106.358 4.44874L105.532 6.80843L106.861 7.27346L107.687 4.91377ZM106.358 4.44874L105.091 2.29329L103.832 3.03306L105.099 5.18851L106.365 7.34396L107.624 6.6042L106.358 4.44874ZM105.099 5.18851L105.96 2.84166L104.628 2.35258L103.767 4.69943L102.905 7.04628L104.237 7.53536L105.099 5.18851ZM103.767 4.69943L102.44 2.58026L101.187 3.36437L102.514 5.48355L103.84 7.60272L105.093 6.8186L103.767 4.69943ZM102.514 5.48355L103.286 3.10596L101.955 2.67336L101.183 5.05094L100.41 7.42852L101.741 7.86113L102.514 5.48355ZM101.183 5.05094L100.935 2.56325L99.6407 2.69216L99.8885 5.17985L100.136 7.66754L101.43 7.53863L101.183 5.05094ZM99.8885 5.17985L100.519 2.76057L99.1921 2.41508L98.562 4.83436L97.9319 7.25365L99.2584 7.59914L99.8885 5.17985ZM98.562 4.83436L97.7955 2.45478L96.5192 2.8659L97.2857 5.24549L98.0523 7.62507L99.3285 7.21395L98.562 4.83436ZM97.2857 5.24549L97.7789 2.79461L96.4568 2.52859L95.9637 4.97947L95.4705 7.43035L96.7926 7.69637L97.2857 5.24549ZM95.9637 4.97947L94.5044 2.94958L93.2659 3.83993L94.7252 5.86982L96.1845 7.89971L97.423 7.00936L95.9637 4.97947ZM94.7252 5.86982L94.3711 3.39501L93.0811 3.57957L93.4351 6.05437L93.7891 8.52918L95.0792 8.34463L94.7252 5.86982ZM93.4351 6.05437L93.8965 3.59732L92.5754 3.34922L92.114 5.80627L91.6526 8.26332L92.9737 8.51142L93.4351 6.05437ZM92.114 5.80627L92.8323 3.41168L91.4941 3.01027L90.7758 5.40486L90.0575 7.79945L91.3957 8.20086L92.114 5.80627ZM90.7758 5.40486L90.2877 2.95297L89.0023 3.20885L89.4904 5.66074L89.9785 8.11263L91.2639 7.85675L90.7758 5.40486ZM89.4904 5.66074L88.5333 3.35121L87.275 3.87266L88.2321 6.18219L89.1892 8.49172L90.4475 7.97027L89.4904 5.66074ZM88.2321 6.18219L87.3596 3.8394L86.096 4.31L86.9685 6.65279L87.8411 8.99558L89.1047 8.52498L88.2321 6.18219ZM86.9685 6.65279L87.8989 4.33234L86.5423 3.78845L85.6119 6.10889L84.6816 8.42934L86.0382 8.97324L86.9685 6.65279ZM85.6119 6.10889L84.6901 3.78505L83.4328 4.2838L84.3546 6.60765L85.2764 8.93149L86.5338 8.43274L85.6119 6.10889ZM84.3546 6.60765L83.4817 4.26501L82.2242 4.7336L83.0971 7.07624L83.9701 9.41887L85.2276 8.95029L84.3546 6.60765ZM83.0971 7.07624L84.478 4.9922L83.0737 4.06173L81.6928 6.14576L80.312 8.2298L81.7162 9.16027L83.0971 7.07624ZM81.6928 6.14576L81.1056 3.71572L79.8293 4.02416L80.4166 6.4542L81.0039 8.88424L82.2801 8.5758L81.6928 6.14576ZM80.4166 6.4542L80.3204 3.95605L79.0192 4.00614L79.1153 6.50429L79.2115 9.00244L80.5127 8.95235L80.4166 6.4542ZM79.1153 6.50429L78.1837 4.18437L76.9312 4.68734L77.8629 7.00726L78.7945 9.32717L80.047 8.82421L79.1153 6.50429ZM77.8629 7.00726L78.0192 4.51215L76.6974 4.42932L76.5411 6.92442L76.3847 9.41953L77.7065 9.50236L77.8629 7.00726ZM76.5411 6.92442L76.0849 4.4664L74.8027 4.70437L75.2589 7.16239L75.7151 9.62041L76.9973 9.38244L76.5411 6.92442ZM75.2589 7.16239L74.0392 4.98012L72.8167 5.66342L74.0364 7.84569L75.2561 10.028L76.4786 9.34466L75.2589 7.16239ZM74.0364 7.84569L74.2015 5.35115L72.8818 5.26381L72.7167 7.75836L72.5516 10.2529L73.8713 10.3402L74.0364 7.84569ZM72.7167 7.75836L71.76 5.44866L70.5185 5.96292L71.4752 8.27262L72.4319 10.5823L73.6734 10.0681L72.7167 7.75836ZM71.4752 8.27262L72.1306 5.86007L70.7639 5.48876L70.1085 7.90131L69.453 10.3139L70.8197 10.6852L71.4752 8.27262ZM70.1085 7.90131L69.9533 5.40613L68.6492 5.48722L68.8044 7.9824L68.9595 10.4776L70.2636 10.3965L70.1085 7.90131ZM68.8044 7.9824L68.4105 5.51363L67.125 5.71872L67.5188 8.1875L67.9127 10.6563L69.1982 10.4512L68.8044 7.9824ZM67.5188 8.1875L66.4011 5.95129L65.1814 6.56096L66.2991 8.79717L67.4169 11.0334L68.6366 10.4237L67.5188 8.1875ZM66.2991 8.79717L66.1154 6.30393L64.8145 6.39978L64.9983 8.89302L65.182 11.3863L66.4828 11.2904L66.2991 8.79717ZM64.9983 8.89302L63.7066 6.75255L62.5132 7.4727L63.8049 9.61317L65.0965 11.7536L66.2899 11.0335L64.9983 8.89302ZM63.8049 9.61317L64.2529 7.15364L62.8906 6.90551L62.4426 9.36504L61.9946 11.8246L63.3569 12.0727L63.8049 9.61317ZM62.4426 9.36504L61.4721 7.06112L60.247 7.57719L61.2175 9.88111L62.188 12.185L63.4131 11.669L62.4426 9.36504ZM61.2175 9.88111L60.9773 7.39268L59.6796 7.51795L59.9198 10.0064L60.16 12.4948L61.4577 12.3695L61.2175 9.88111ZM59.9198 10.0064L59.6726 7.51864L58.3737 7.64771L58.6209 10.1355L58.8681 12.6232L60.167 12.4941L59.9198 10.0064ZM58.6209 10.1355L58.2038 7.67049L56.9213 7.88747L57.3384 10.3524L57.7554 12.8174L59.0379 12.6004L58.6209 10.1355ZM57.3384 10.3524L57.2459 7.85415L55.9256 7.90299L56.018 10.4013L56.1105 12.8996L57.4308 12.8507L57.3384 10.3524ZM56.018 10.4013L55.4823 7.95936L54.2105 8.23837L54.7462 10.6803L55.2819 13.1222L56.5538 12.8432L56.018 10.4013ZM54.7462 10.6803L53.252 8.67598L52.1144 9.52407L53.6086 11.5284L55.1028 13.5327L56.2404 12.6846L54.7462 10.6803ZM53.6086 11.5284L53.5524 9.02902L52.224 9.0589L52.2803 11.5583L52.3365 14.0576L53.6648 14.0278L53.6086 11.5284ZM52.2803 11.5583L51.3519 9.23704L50.1348 9.72382L51.0632 12.045L51.9916 14.3663L53.2087 13.8795L52.2803 11.5583ZM51.0632 12.045L50.2637 9.67632L49.0313 10.0923L49.8308 12.461L50.6302 14.8297L51.8627 14.4138L51.0632 12.045ZM49.8308 12.461L49.7437 9.96251L48.4125 10.0089L48.4995 12.5074L48.5866 15.0059L49.9178 14.9595L49.8308 12.461ZM48.4995 12.5074L47.1531 10.401L46.0096 11.1319L47.3561 13.2383L48.7026 15.3447L49.846 14.6138L48.4995 12.5074ZM47.3561 13.2383L47.6296 10.7533L46.2347 10.5998L45.9612 13.0848L45.6877 15.5698L47.0826 15.7233L47.3561 13.2383ZM45.9612 13.0848L45.3714 10.6554L44.1049 10.9628L44.6947 13.3923L45.2845 15.8217L46.551 15.5142L45.9612 13.0848ZM44.6947 13.3923L44.0396 10.9796L42.7828 11.3208L43.4379 13.7335L44.0929 16.1461L45.3497 15.8049L44.6947 13.3923ZM43.4379 13.7335L41.8884 11.7716L40.7974 12.6333L42.3469 14.5951L43.8964 16.557L44.9874 15.6954L43.4379 13.7335ZM42.3469 14.5951L42.7334 12.1252L41.2942 11.9L40.9077 14.3699L40.5212 16.8399L41.9604 17.0651L42.3469 14.5951ZM40.9077 14.3699L39.9326 12.0679L38.7289 12.5778L39.7039 14.8798L40.6789 17.1818L41.8827 16.672L40.9077 14.3699ZM39.7039 14.8798L38.0213 13.0308L36.9732 13.9846L38.6559 15.8335L40.3385 17.6825L41.3866 16.7288L39.7039 14.8798ZM38.6559 15.8335L37.4588 13.6388L36.3056 14.2678L37.5027 16.4626L38.6998 18.6573L39.853 18.0283L38.6559 15.8335ZM37.5027 16.4626L37.8703 13.9897L36.4127 13.7731L36.0451 16.2459L35.6775 18.7187L37.1351 18.9354L37.5027 16.4626ZM36.0451 16.2459L35.802 13.7578L34.4603 13.8888L34.7034 16.377L34.9464 18.8651L36.2882 18.7341L36.0451 16.2459ZM34.7034 16.377L32.8675 14.6801L31.88 15.7484L33.7159 17.4453L35.5518 19.1423L36.5392 18.0739L34.7034 16.377ZM33.7159 17.4453L32.5484 15.2347L31.3933 15.8447L32.5608 18.0553L33.7282 20.266L34.8833 19.656L33.7159 17.4453ZM32.5608 18.0553L31.588 15.7524L30.3908 16.2581L31.3636 18.561L32.3365 20.864L33.5336 20.3583L32.5608 18.0553ZM31.3636 18.561L31.0178 16.0851L29.6922 16.2702L30.038 18.7462L30.3839 21.2221L31.7095 21.037L31.3636 18.561ZM30.038 18.7462L29.9186 16.249L28.5365 16.3151L28.6559 18.8123L28.7754 21.3094L30.1575 21.2433L30.038 18.7462ZM28.6559 18.8123L27.1468 16.8192L26.0757 17.6302L27.5848 19.6233L29.0939 21.6164L30.1651 20.8054L28.6559 18.8123ZM27.5848 19.6233L26.7812 17.256L25.5446 17.6757L26.3481 20.0431L27.1517 22.4104L28.3883 21.9907L27.5848 19.6233ZM26.3481 20.0431L24.5498 18.3064L23.5743 19.3165L25.3726 21.0532L27.1709 22.7899L28.1464 21.7798L26.3481 20.0431ZM25.3726 21.0532L25.0359 18.576L23.6927 18.7585L24.0294 21.2358L24.3661 23.713L25.7093 23.5304L25.3726 21.0532ZM24.0294 21.2358L23.1103 18.9109L21.8997 19.3894L22.8188 21.7143L23.7379 24.0393L24.9485 23.5607L24.0294 21.2358ZM22.8188 21.7143L21.0907 19.9078L20.0985 20.8569L21.8266 22.6635L23.5547 24.47L24.5469 23.5209L22.8188 21.7143ZM21.8266 22.6635L20.6615 20.4515L19.5111 21.0575L20.6762 23.2694L21.8412 25.4813L22.9917 24.8754L21.8266 22.6635ZM20.6762 23.2694L19.8853 20.8978L18.6433 21.312L19.4341 23.6836L20.225 26.0552L21.4671 25.641L20.6762 23.2694ZM19.4341 23.6836L19.4091 21.1837L17.9679 21.1982L17.993 23.6981L18.0181 26.1979L19.4592 26.1835L19.4341 23.6836ZM17.993 23.6981L15.836 22.4343L15.0504 23.7752L17.2074 25.0389L19.3645 26.3027L20.1501 24.9618L17.993 23.6981ZM17.2074 25.0389L17.5486 22.5623L15.9765 22.3458L15.6353 24.8224L15.2942 27.299L16.8663 27.5155L17.2074 25.0389ZM15.6353 24.8224L13.8948 23.0278L12.9193 23.974L14.6598 25.7686L16.4003 27.5631L17.3759 26.617L15.6353 24.8224ZM14.6598 25.7686L13.7925 23.4238L12.5543 23.8818L13.4216 26.2265L14.2889 28.5713L15.5271 28.1133L14.6598 25.7686ZM13.4216 26.2265L11.1703 25.1395L10.4916 26.5451L12.7429 27.6322L14.9942 28.7192L15.6729 27.3136L13.4216 26.2265ZM12.7429 27.6322L12.2734 25.1767L10.9112 25.4371L11.3807 27.8926L11.8502 30.3481L13.2124 30.0877L12.7429 27.6322ZM11.3807 27.8926L10.2701 25.6529L9.09372 26.2362L10.2044 28.476L11.315 30.7157L12.4914 30.1324L11.3807 27.8926ZM10.2044 28.476L8.6804 26.4942L7.64506 27.2903L9.16905 29.2721L10.693 31.2539L11.7284 30.4577L10.2044 28.476ZM9.16905 29.2721L7.1145 27.8478L6.34457 28.9583L8.39912 30.3827L10.4537 31.807L11.2236 30.6965L9.16905 29.2721ZM8.39912 30.3827L7.67523 27.9898L6.29933 28.406L7.02323 30.7989L7.74713 33.1918L9.12302 32.7756L8.39912 30.3827ZM7.02323 30.7989L4.68185 29.9226L4.18243 31.257L6.52381 32.1333L8.86519 33.0096L9.36461 31.6752L7.02323 30.7989ZM6.52381 32.1333L4.64806 30.4805L3.80039 31.4426L5.67614 33.0953L7.55189 34.7481L8.39956 33.786L6.52381 32.1333ZM5.67614 33.0953L3.75314 31.4978L2.92917 32.4897L4.85218 34.0872L6.77518 35.6847L7.59915 34.6928L5.67614 33.0953ZM4.85218 34.0872L2.86364 32.572L2.06835 33.6158L4.05689 35.1309L6.04543 36.6461L6.84071 35.6023L4.85218 34.0872ZM4.05689 35.1309L1.98457 33.7325L1.21661 34.8706L3.28894 36.269L5.36126 37.6674L6.12922 36.5293L4.05689 35.1309ZM3.28894 36.269L0.856182 35.6931L0.546244 37.0022L2.979 37.5782L5.41175 38.1541L5.72169 36.8449L3.28894 36.269ZM2.979 37.5782L0.697136 38.5995L1.32309 39.998L3.60496 38.9767L5.88682 37.9554L5.26086 36.5568L2.979 37.5782ZM3.60496 38.9767L1.44026 37.7261L0.714709 38.9819L2.87941 40.2325L5.04411 41.4832L5.76965 40.2273L3.60496 38.9767ZM2.87941 40.2325L0.70331 41.4632L1.43532 42.7576L3.61142 41.5269L5.78752 40.2962L5.0555 39.0018L2.87941 40.2325ZM3.61142 41.5269L1.1115 41.5072L1.10139 42.7926L3.60131 42.8123L6.10124 42.8319L6.11134 41.5465L3.61142 41.5269ZM3.60131 42.8123L1.15012 43.3038L1.40496 44.5746L3.85616 44.083L6.30735 43.5915L6.05251 42.3207L3.60131 42.8123ZM3.85616 44.083L1.62709 42.9511L0.927899 44.328L3.15697 45.4599L5.38603 46.5919L6.08523 45.215L3.85616 44.083ZM3.15697 45.4599L0.840062 46.3991L1.34623 47.6478L3.66313 46.7087L5.98004 45.7696L5.47387 44.5208L3.15697 45.4599ZM3.66313 46.7087L1.41825 47.8089L1.99319 48.982L4.23807 47.8818L6.48296 46.7816L5.90802 45.6085L3.66313 46.7087ZM4.23807 47.8818L2.00751 49.0108L2.58169 50.1452L4.81225 49.0162L7.04281 47.8872L6.46863 46.7528L4.23807 47.8818ZM4.81225 49.0162L2.31958 48.8249L2.2079 50.28L4.70057 50.4713L7.19324 50.6626L7.30492 49.2075L4.81225 49.0162ZM4.70057 50.4713L2.47729 51.6145L3.07556 52.778L5.29884 51.6347L7.52213 50.4915L6.92386 49.328L4.70057 50.4713ZM5.29884 51.6347L3.03922 52.7044L3.60036 53.8898L5.85998 52.8202L8.11961 51.7506L7.55847 50.5651L5.29884 51.6347ZM5.85998 52.8202L4.16081 54.654L5.15321 55.5735L6.85238 53.7397L8.55155 51.9059L7.55915 50.9864L5.85998 52.8202ZM6.85238 53.7397L4.73735 55.0726L5.42912 56.1703L7.54416 54.8374L9.65919 53.5045L8.96742 52.4068L6.85238 53.7397ZM7.54416 54.8374L6.01176 56.8127L7.08102 57.6422L8.61342 55.6669L10.1458 53.6916L9.07655 52.8621L7.54416 54.8374ZM8.61342 55.6669L6.29874 56.6115L6.80231 57.8455L9.11699 56.9009L11.4317 55.9564L10.9281 54.7224L8.61342 55.6669ZM9.11699 56.9009L6.9819 58.2015L7.66085 59.3161L9.79594 58.0156L11.931 56.7151L11.2521 55.6004L9.11699 56.9009ZM9.79594 58.0156L8.42728 60.1077L9.54432 60.8384L10.913 58.7464L12.2816 56.6543L11.1646 55.9235L9.79594 58.0156ZM10.913 58.7464L8.79743 60.0784L9.50359 61.1999L11.6192 59.8679L13.7347 58.5358L13.0285 57.4143L10.913 58.7464ZM11.6192 59.8679L9.85711 61.6413L10.7794 62.5577L12.5414 60.7842L14.3034 59.0107L13.3812 58.0944L11.6192 59.8679ZM12.5414 60.7842L11.1319 62.849L12.2124 63.5865L13.6219 61.5217L15.0313 59.4569L13.9509 58.7194L12.5414 60.7842ZM13.6219 61.5217L11.9192 63.3523L12.8704 64.237L14.573 62.4064L16.2756 60.5758L15.3245 59.6911L13.6219 61.5217ZM14.573 62.4064L12.5405 63.862L13.326 64.9589L15.3585 63.5033L17.3911 62.0477L16.6055 60.9508L14.573 62.4064ZM15.3585 63.5033L14.47 65.84L15.7438 66.3244L16.6323 63.9876L17.5208 61.6508L16.2471 61.1665L15.3585 63.5033ZM16.6323 63.9876L15.2016 66.0378L16.2664 66.7808L17.6971 64.7307L19.1278 62.6805L18.063 61.9375L16.6323 63.9876ZM17.6971 64.7307L16.5178 66.9351L17.6661 67.5494L18.8454 65.345L20.0247 63.1406L18.8764 62.5263L17.6971 64.7307ZM18.8454 65.345L17.6878 67.5609L18.8353 68.1603L19.9929 65.9445L21.1504 63.7286L20.0029 63.1291L18.8454 65.345ZM19.9929 65.9445L17.6454 66.8043L18.2123 68.3518L20.5597 67.4919L22.9072 66.632L22.3403 65.0845L19.9929 65.9445ZM20.5597 67.4919L20.8827 69.971L22.5118 69.7587L22.1888 67.2797L21.8658 64.8006L20.2367 65.0129L20.5597 67.4919ZM22.1888 67.2797L20.5845 69.1971L21.5926 70.0406L23.1969 68.1232L24.8012 66.2058L23.793 65.3623L22.1888 67.2797ZM23.1969 68.1232L21.5731 70.0241L22.5892 70.8921L24.213 68.9912L25.8368 67.0903L24.8207 66.2223L23.1969 68.1232ZM24.213 68.9912L22.7172 70.9943L23.7864 71.7928L25.2823 69.7897L26.7781 67.7866L25.7088 66.9881L24.213 68.9912ZM25.2823 69.7897L23.9764 71.9215L25.1067 72.6139L26.4126 70.4821L27.7185 68.3502L26.5882 67.6578L25.2823 69.7897ZM26.4126 70.4821L25.4865 72.8042L26.7093 73.2919L27.6354 70.9697L28.5615 68.6476L27.3387 68.1599L26.4126 70.4821ZM27.6354 70.9697L27.7095 73.4686L29.1178 73.4269L29.0437 70.928L28.9697 68.4291L27.5614 68.4708L27.6354 70.9697ZM29.0437 70.928L27.8246 73.1106L28.9828 73.7575L30.2018 71.5749L31.4209 69.3922L30.2628 68.7454L29.0437 70.928ZM30.2018 71.5749L30.2203 74.0748L31.5852 74.0647L31.5668 71.5648L31.5484 69.0649L30.1834 69.0749L30.2018 71.5749ZM31.5668 71.5648L30.0832 73.577L31.2101 74.4079L32.6937 72.3957L34.1773 70.3834L33.0504 69.5526L31.5668 71.5648ZM32.6937 72.3957L32.806 74.8931L34.1585 74.8323L34.0462 72.3348L33.9339 69.8373L32.5814 69.8982L32.6937 72.3957ZM34.0462 72.3348L34.0948 74.8343L35.4243 74.8085L35.3757 72.309L35.3271 69.8094L33.9976 69.8353L34.0462 72.3348ZM35.3757 72.309L35.2762 74.807L36.5819 74.859L36.6814 72.361L36.781 69.863L35.4753 69.8109L35.3757 72.309ZM36.6814 72.361L34.9175 74.1327L36.0455 75.2557L37.8094 73.484L39.5732 71.7123L38.4453 70.5893L36.6814 72.361ZM37.8094 73.484L38.1455 75.9613L39.4925 75.7785L39.1565 73.3012L38.8204 70.8239L37.4733 71.0067L37.8094 73.484ZM39.1565 73.3012L38.9961 75.7961L40.2967 75.8797L40.4571 73.3849L40.6175 70.89L39.3169 70.8064L39.1565 73.3012ZM40.4571 73.3849L40.3951 75.8841L41.699 75.9164L41.761 73.4172L41.823 70.918L40.5191 70.8856L40.4571 73.3849ZM41.761 73.4172L40.6141 75.6386L41.8529 76.2781L42.9997 74.0567L44.1466 71.8353L42.9078 71.1958L41.761 73.4172ZM42.9997 74.0567L42.4806 76.5022L43.7639 76.7746L44.283 74.3291L44.8021 71.8836L43.5188 71.6112L42.9997 74.0567ZM44.283 74.3291L45.1625 76.6693L46.5161 76.1606L45.6366 73.8204L44.7571 71.4802L43.4035 71.989L44.283 74.3291ZM45.6366 73.8204L44.3737 75.978L45.6187 76.7066L46.8815 74.5491L48.1444 72.3915L46.8995 71.6628L45.6366 73.8204ZM46.8815 74.5491L47.3568 77.0035L48.6816 76.7469L48.2062 74.2925L47.7309 71.8381L46.4062 72.0947L46.8815 74.5491ZM48.2062 74.2925L47.9633 76.7807L49.2582 76.9072L49.5012 74.419L49.7442 71.9308L48.4492 71.8044L48.2062 74.2925ZM49.5012 74.419L49.5524 76.9185L50.8575 76.8918L50.8063 74.3923L50.7552 71.8928L49.45 71.9195L49.5012 74.419ZM50.8063 74.3923L51.0585 76.8795L52.3694 76.7466L52.1172 74.2594L51.8649 71.7721L50.5541 71.905L50.8063 74.3923ZM52.1172 74.2594L51.9681 76.7549L53.2655 76.8324L53.4145 74.3369L53.5636 71.8413L52.2662 71.7638L52.1172 74.2594ZM53.4145 74.3369L53.736 76.8161L55.0474 76.6461L54.7259 74.1668L54.4045 71.6876L53.0931 71.8576L53.4145 74.3369ZM54.7259 74.1668L53.8171 76.4958L55.0915 76.9931L56.0004 74.6641L56.9092 72.3352L55.6348 71.8379L54.7259 74.1668ZM56.0004 74.6641L55.0826 76.9896L56.358 77.4929L57.2758 75.1675L58.1935 72.842L56.9181 72.3387L56.0004 74.6641ZM57.2758 75.1675L58.1764 77.4996L59.5048 76.9866L58.6042 74.6544L57.7035 72.3223L56.3751 72.8353L57.2758 75.1675ZM58.6042 74.6544L59.0278 77.1183L60.3407 76.8925L59.917 74.4287L59.4934 71.9649L58.1805 72.1906L58.6042 74.6544ZM59.917 74.4287L58.3605 76.3851L59.6125 77.3811L61.169 75.4248L62.7255 73.4684L61.4735 72.4723L59.917 74.4287ZM61.169 75.4248L62.278 77.6653L63.6125 77.0048L62.5035 74.7642L61.3945 72.5237L60.06 73.1842L61.169 75.4248ZM62.5035 74.7642L61.1459 76.8635L62.4075 77.6794L63.7651 75.5801L65.1226 73.4808L63.8611 72.6649L62.5035 74.7642ZM63.7651 75.5801L63.8249 78.0794L64.6761 78.059L64.6163 75.5597L64.5564 73.0604L63.7052 73.0808L63.7651 75.5801ZM64.6163 75.5597L67.1133 75.6817L67.1363 75.2111L64.6393 75.0891L62.1423 74.9671L62.1193 75.4377L64.6163 75.5597Z" fill="#128FD2"/>
</svg>
