<svg width="24" height="24" viewBox="0 0 24 24" fill="none" xmlns="http://www.w3.org/2000/svg">
<g clip-path="url(#clip0_40_778)">
<g clip-path="url(#clip1_40_778)">
<path d="M7.72439 9.14733H4.51236C4.36981 9.14733 4.2543 9.26289 4.2543 9.4054V19.7243C4.2543 19.8668 4.36981 19.9823 4.51236 19.9823H7.72439C7.86694 19.9823 7.98245 19.8668 7.98245 19.7243V9.4054C7.98245 9.26289 7.86694 9.14733 7.72439 9.14733ZM6.11954 4.01758C4.95081 4.01758 4 4.96736 4 6.13479C4 7.30274 4.95081 8.25288 6.11954 8.25288C7.28733 8.25288 8.23737 7.30269 8.23737 6.13479C8.23742 4.96736 7.28733 4.01758 6.11954 4.01758ZM15.8944 8.89087C14.6043 8.89087 13.6507 9.44545 13.0723 10.0756V9.4054C13.0723 9.26289 12.9567 9.14733 12.8142 9.14733H9.73812C9.59556 9.14733 9.48005 9.26289 9.48005 9.4054V19.7243C9.48005 19.8668 9.59556 19.9823 9.73812 19.9823H12.9431C13.0857 19.9823 13.2012 19.8668 13.2012 19.7243V14.6188C13.2012 12.8984 13.6685 12.2282 14.8678 12.2282C16.1739 12.2282 16.2777 13.3026 16.2777 14.7073V19.7243C16.2777 19.8669 16.3932 19.9824 16.5357 19.9824H19.7419C19.8845 19.9824 20 19.8669 20 19.7243V14.0642C20 11.506 19.5122 8.89087 15.8944 8.89087Z" fill="#00A6F4"/>
</g>
</g>
<defs>
<clipPath id="clip0_40_778">
<rect width="16" height="16" fill="white" transform="translate(4 4)"/>
</clipPath>
<clipPath id="clip1_40_778">
<rect width="16" height="16" fill="white" transform="translate(4 4)"/>
</clipPath>
</defs>
</svg>
