<svg width="145" height="30" viewBox="0 0 145 30" fill="none" xmlns="http://www.w3.org/2000/svg">
<path fill-rule="evenodd" clip-rule="evenodd" d="M21.6834 0H22.599C26.6361 0 29.9239 3.28789 29.9239 7.28329V22.599C29.9239 26.636 26.6361 29.9239 22.599 29.9239H17.9377C20.3516 26.7193 22.8904 22.2245 21.1424 18.1458C20.5181 16.6475 17.6464 13.5677 16.1481 12.1527C9.03129 5.36883 14.6915 2.78846 21.6834 0Z" fill="#00669E"/>
<path fill-rule="evenodd" clip-rule="evenodd" d="M7.28329 0H19.8106C14.8163 0.790758 2.6636 4.78616 10.4879 12.1527C13.3596 14.8579 15.0244 17.4799 15.5654 19.8938C16.4394 24.0141 13.4845 27.0522 8.24053 29.9239H7.28329C3.28789 29.9239 0 26.636 0 22.599V7.28329C0 3.28789 3.28789 0 7.28329 0Z" fill="#1090CF"/>
<path d="M48.5275 19.2695C48.5275 20.0602 48.4026 20.7678 48.0697 21.392C47.7783 21.9747 47.4038 22.4741 46.8627 22.8903C46.3633 23.2649 45.7806 23.5978 45.0731 23.8059C44.4072 24.014 43.6581 24.0973 42.9089 24.0973C42.3679 24.0973 41.9101 24.0557 41.4523 23.9724C40.9945 23.8892 40.5783 23.7643 40.2453 23.6395C39.9124 23.5146 39.621 23.3898 39.3713 23.2649C39.1632 23.14 38.9968 23.0152 38.8719 22.8903C38.7887 22.8071 38.7054 22.6406 38.6638 22.4741C38.6222 22.266 38.5806 22.0163 38.5806 21.6418C38.5806 21.392 38.6222 21.184 38.6222 21.0175C38.6222 20.851 38.6638 20.7261 38.7054 20.6429C38.747 20.5181 38.7887 20.4348 38.8303 20.3932C38.9135 20.3516 38.9551 20.3516 39.0384 20.3516C39.1632 20.3516 39.3297 20.3932 39.4962 20.5597C39.7043 20.6845 39.954 20.8094 40.2869 20.9759C40.5783 21.1423 40.9528 21.2672 41.4106 21.392C41.8268 21.5169 42.3263 21.6001 42.9089 21.6001C43.2835 21.6001 43.6164 21.5585 43.9494 21.4753C44.2407 21.392 44.4904 21.2672 44.6985 21.1007C44.9066 20.9342 45.0731 20.7261 45.1563 20.4764C45.2812 20.2267 45.3228 19.977 45.3228 19.6857C45.3228 19.3111 45.2396 19.0198 45.0731 18.7701C44.865 18.5204 44.6153 18.3123 44.324 18.1458C44.0326 17.9377 43.6581 17.7712 43.2835 17.6047C42.9089 17.4383 42.4927 17.2302 42.1182 17.0637C41.702 16.8556 41.2858 16.6475 40.9112 16.3978C40.5367 16.1897 40.1621 15.8984 39.8708 15.5654C39.5794 15.2325 39.3297 14.8163 39.1632 14.3585C38.9551 13.9423 38.8719 13.3596 38.8719 12.7353C38.8719 12.0278 38.9968 11.3619 39.2881 10.8209C39.5378 10.2798 39.9124 9.82202 40.3702 9.44745C40.828 9.07288 41.369 8.82316 41.9933 8.65669C42.6176 8.44859 43.2419 8.36536 43.9494 8.36536C44.324 8.36536 44.6569 8.40698 45.0315 8.44859C45.4061 8.49021 45.739 8.57345 46.0303 8.65669C46.3633 8.78154 46.6546 8.86478 46.8627 8.98964C47.1124 9.1145 47.2789 9.19773 47.3621 9.28097C47.4454 9.36421 47.487 9.44745 47.5286 9.48906C47.5286 9.53068 47.5702 9.61392 47.5702 9.69716C47.6119 9.7804 47.6119 9.90525 47.6119 10.0301C47.6535 10.1966 47.6535 10.3631 47.6535 10.5712C47.6535 10.7792 47.6535 10.9873 47.6119 11.1122C47.6119 11.2787 47.6119 11.4035 47.5702 11.5284C47.5286 11.6116 47.487 11.6949 47.4454 11.7365C47.4038 11.7781 47.3205 11.8197 47.2373 11.8197C47.154 11.8197 47.0292 11.7365 46.8211 11.6532C46.6546 11.5284 46.4049 11.4035 46.1552 11.2787C45.8639 11.1538 45.5309 11.029 45.198 10.9457C44.8234 10.8209 44.4488 10.7792 43.991 10.7792C43.6581 10.7792 43.3667 10.8209 43.117 10.9041C42.8673 10.9873 42.6592 11.1122 42.4927 11.2371C42.3263 11.3619 42.2014 11.57 42.1182 11.7781C42.0349 11.9446 41.9933 12.1943 41.9933 12.4024C41.9933 12.7353 42.0765 13.0267 42.2846 13.2764C42.4511 13.5261 42.7008 13.7342 42.9922 13.9423C43.3251 14.1088 43.6581 14.3168 44.0743 14.4833C44.4488 14.6498 44.865 14.8163 45.2812 15.0244C45.6558 15.1908 46.072 15.3989 46.4465 15.6487C46.8627 15.8984 47.1957 16.1897 47.5286 16.5226C47.8199 16.8556 48.0697 17.2302 48.2361 17.688C48.4442 18.1458 48.5275 18.6452 48.5275 19.2695ZM60.6385 27.5933C60.6385 27.6765 60.6385 27.7181 60.5553 27.8013C60.5137 27.843 60.4305 27.9262 60.3472 27.9678C60.2224 28.0094 60.0975 28.0094 59.8894 28.0511C59.7229 28.0927 59.4732 28.0927 59.1819 28.0927C58.8906 28.0927 58.6408 28.0927 58.4744 28.0511C58.2663 28.0094 58.1414 28.0094 58.0166 27.9678C57.8917 27.9262 57.8085 27.843 57.7668 27.8013C57.7252 27.7181 57.7252 27.6765 57.7252 27.5933V22.599C57.4339 22.8487 57.1426 23.0984 56.8929 23.2649C56.6015 23.473 56.3518 23.6395 56.1021 23.7643C55.8108 23.8892 55.561 23.9724 55.2697 24.014C54.9784 24.0557 54.6871 24.0973 54.3957 24.0973C53.605 24.0973 52.9391 23.9308 52.398 23.6395C51.857 23.3065 51.4408 22.8903 51.1078 22.3909C50.7333 21.8499 50.4836 21.2672 50.3587 20.5597C50.1922 19.8522 50.109 19.103 50.109 18.3539C50.109 17.3966 50.1922 16.5643 50.4003 15.8151C50.6084 15.066 50.8997 14.4417 51.3159 13.9007C51.6905 13.4012 52.1899 12.985 52.7726 12.6937C53.3136 12.444 53.9795 12.2775 54.7287 12.2775C55.02 12.2775 55.3113 12.3191 55.561 12.3608C55.8524 12.444 56.1021 12.5272 56.3934 12.6937C56.6431 12.8186 56.9345 13.0267 57.1842 13.2348C57.4755 13.4845 57.8085 13.7758 58.1414 14.1088V12.9434C58.1414 12.8602 58.183 12.8186 58.2247 12.7353C58.2663 12.6937 58.3079 12.6521 58.4327 12.6105C58.516 12.5689 58.6408 12.5272 58.8073 12.5272C58.9738 12.4856 59.1819 12.4856 59.4316 12.4856C59.6397 12.4856 59.8478 12.4856 60.0143 12.5272C60.1807 12.5272 60.3056 12.5689 60.3888 12.6105C60.4721 12.6521 60.5553 12.6937 60.5969 12.7353C60.6385 12.8186 60.6385 12.8602 60.6385 12.9434V27.5933ZM57.7252 16.4394C57.309 15.8984 56.8929 15.4822 56.4767 15.1908C56.1021 14.9411 55.6859 14.7747 55.2697 14.7747C54.8951 14.7747 54.5622 14.8995 54.2709 15.066C54.0212 15.2741 53.7714 15.5238 53.605 15.8567C53.4385 16.1481 53.3136 16.5226 53.2304 16.9388C53.1472 17.3134 53.1055 17.7296 53.1055 18.1458C53.1055 18.562 53.1472 19.0198 53.2304 19.436C53.3136 19.8522 53.3969 20.2267 53.5633 20.5181C53.7298 20.851 53.9379 21.1007 54.2292 21.3088C54.479 21.5169 54.8119 21.6001 55.2281 21.6001C55.4362 21.6001 55.6027 21.5585 55.8108 21.5169C56.0189 21.4337 56.1853 21.3504 56.3934 21.2256C56.6015 21.1007 56.8096 20.9342 57.0177 20.6845C57.2258 20.4764 57.4755 20.2267 57.7252 19.8938V16.4394ZM73.5404 23.4314C73.5404 23.5146 73.5404 23.5978 73.4988 23.6395C73.4571 23.6811 73.3739 23.7643 73.2907 23.8059C73.2074 23.8059 73.0826 23.8476 72.9161 23.8892C72.7496 23.8892 72.5415 23.8892 72.2918 23.8892C72.0421 23.8892 71.834 23.8892 71.6675 23.8892C71.5011 23.8476 71.3762 23.8059 71.293 23.8059C71.2097 23.7643 71.1265 23.6811 71.0849 23.6395C71.0433 23.5978 71.0433 23.5146 71.0433 23.4314V22.2244C70.4606 22.8487 69.8779 23.3065 69.2536 23.6395C68.671 23.9308 68.0467 24.0973 67.3808 24.0973C66.6733 24.0973 66.049 23.9724 65.5912 23.7643C65.0918 23.5146 64.6756 23.1817 64.3842 22.7655C64.0929 22.3909 63.8848 21.8915 63.76 21.3504C63.5935 20.851 63.5519 20.1435 63.5519 19.3527V12.9434C63.5519 12.8602 63.5519 12.8186 63.5935 12.7353C63.6767 12.6937 63.7183 12.6521 63.8432 12.6105C63.9681 12.5689 64.1345 12.5272 64.301 12.5272C64.5091 12.4856 64.7588 12.4856 65.0085 12.4856C65.2999 12.4856 65.5496 12.4856 65.7577 12.5272C65.9241 12.5272 66.0906 12.5689 66.1738 12.6105C66.2987 12.6521 66.3819 12.6937 66.4236 12.7353C66.4652 12.8186 66.5068 12.8602 66.5068 12.9434V18.8533C66.5068 19.436 66.5484 19.8522 66.59 20.1435C66.6733 20.4348 66.7981 20.6845 66.923 20.851C67.0895 21.0591 67.2559 21.2256 67.5057 21.3504C67.7137 21.4753 67.9635 21.5169 68.2548 21.5169C68.6294 21.5169 69.0039 21.392 69.4201 21.1007C69.7947 20.851 70.1693 20.4348 70.6271 19.9354V12.9434C70.6271 12.8602 70.6271 12.8186 70.6687 12.7353C70.7103 12.6937 70.7935 12.6521 70.9184 12.6105C71.0433 12.5689 71.1681 12.5272 71.3762 12.5272C71.5427 12.4856 71.7924 12.4856 72.0837 12.4856C72.3751 12.4856 72.6248 12.4856 72.7912 12.5272C72.9993 12.5272 73.1242 12.5689 73.249 12.6105C73.3739 12.6521 73.4571 12.6937 73.4988 12.7353C73.5404 12.8186 73.5404 12.8602 73.5404 12.9434V23.4314ZM85.4434 23.473C85.4434 23.5978 85.4017 23.6811 85.3185 23.7227C85.2353 23.8059 85.1104 23.8476 84.9439 23.8476C84.7775 23.8892 84.5278 23.8892 84.1948 23.8892C83.8619 23.8892 83.6121 23.8892 83.4457 23.8476C83.2792 23.8476 83.1543 23.8059 83.1127 23.7227C83.0295 23.6811 82.9879 23.5978 82.9879 23.473V22.6406C82.5717 23.0984 82.0722 23.473 81.5312 23.7227C80.9902 23.9724 80.3659 24.0973 79.7 24.0973C79.1173 24.0973 78.6179 24.014 78.1601 23.8892C77.7023 23.7227 77.2861 23.5146 76.9531 23.2233C76.6202 22.9319 76.3288 22.599 76.1624 22.1828C75.9543 21.7666 75.871 21.2672 75.871 20.6845C75.871 20.0602 75.9959 19.5608 76.2456 19.103C76.4953 18.6452 76.8283 18.2706 77.2861 17.9793C77.7855 17.688 78.3682 17.4799 79.0757 17.355C79.7832 17.1885 80.574 17.1053 81.5312 17.1053H82.53V16.481C82.53 16.1481 82.4884 15.8567 82.4468 15.607C82.3636 15.3989 82.2803 15.1908 82.1139 15.0244C81.9474 14.8579 81.7393 14.733 81.4896 14.6498C81.2399 14.5666 80.9485 14.5249 80.574 14.5249C80.0745 14.5249 79.6167 14.5666 79.2422 14.6914C78.8676 14.8163 78.493 14.9411 78.2017 15.066C77.9104 15.1908 77.6606 15.3157 77.4526 15.3989C77.2861 15.5238 77.1196 15.5654 76.9947 15.5654C76.9115 15.5654 76.8283 15.5654 76.745 15.5238C76.7034 15.4406 76.6202 15.3573 76.5786 15.2741C76.5369 15.1492 76.4953 15.0244 76.4953 14.8995C76.4537 14.733 76.4537 14.5666 76.4537 14.4001C76.4537 14.1504 76.4953 13.9839 76.4953 13.8174C76.5369 13.6926 76.6202 13.5677 76.745 13.4429C76.8283 13.318 77.0364 13.1931 77.3277 13.0683C77.5774 12.9434 77.9104 12.8186 78.2849 12.6937C78.6595 12.5689 79.0341 12.4856 79.4919 12.4024C79.9081 12.3191 80.3659 12.2775 80.8237 12.2775C81.6561 12.2775 82.3636 12.3608 82.9462 12.5272C83.5289 12.6937 83.9867 12.9434 84.3613 13.2764C84.7358 13.6093 85.0272 14.0255 85.1937 14.5666C85.3601 15.066 85.4434 15.6903 85.4434 16.4394V23.473ZM82.53 18.9782H81.4063C80.9485 18.9782 80.5323 19.0198 80.1994 19.0614C79.8664 19.1446 79.5751 19.2695 79.367 19.3943C79.1589 19.5192 78.9924 19.7273 78.9092 19.8938C78.826 20.1019 78.7844 20.3516 78.7844 20.6013C78.7844 21.0175 78.9092 21.392 79.2005 21.6418C79.4503 21.8915 79.8248 22.0163 80.3243 22.0163C80.7404 22.0163 81.115 21.8915 81.4896 21.6834C81.8225 21.4753 82.1971 21.184 82.53 20.7678V18.9782ZM95.1406 13.9423C95.1406 14.192 95.1406 14.4417 95.0989 14.6082C95.0989 14.8163 95.0573 14.9411 95.0573 15.0244C95.0157 15.1492 94.9741 15.2325 94.9325 15.2741C94.8492 15.2741 94.8076 15.3157 94.7244 15.3157C94.6827 15.3157 94.5995 15.3157 94.5163 15.2741C94.433 15.2325 94.3498 15.2325 94.2249 15.1908C94.1417 15.1492 94.0585 15.1076 93.9336 15.1076C93.8088 15.066 93.6839 15.066 93.5174 15.066C93.3509 15.066 93.2261 15.066 93.0596 15.1492C92.8931 15.2325 92.7267 15.3157 92.5186 15.4822C92.3521 15.607 92.1856 15.8151 91.9775 16.0232C91.7694 16.2729 91.5613 16.5643 91.3532 16.8972V23.4314C91.3532 23.5146 91.3532 23.5978 91.27 23.6395C91.2284 23.6811 91.1451 23.7643 91.0619 23.8059C90.9371 23.8059 90.7706 23.8476 90.6041 23.8892C90.396 23.8892 90.1879 23.8892 89.8966 23.8892C89.6052 23.8892 89.3555 23.8892 89.1474 23.8892C88.981 23.8476 88.8145 23.8059 88.7313 23.8059C88.6064 23.7643 88.5232 23.6811 88.4815 23.6395C88.4399 23.5978 88.3983 23.5146 88.3983 23.4314V12.9434C88.3983 12.8602 88.4399 12.8186 88.4815 12.7353C88.4815 12.6937 88.5648 12.6521 88.6896 12.6105C88.7729 12.5689 88.8977 12.5272 89.0642 12.5272C89.2307 12.4856 89.4388 12.4856 89.6469 12.4856C89.9382 12.4856 90.1047 12.4856 90.2712 12.5272C90.4376 12.5272 90.5625 12.5689 90.6873 12.6105C90.7706 12.6521 90.8122 12.6937 90.8538 12.7353C90.8954 12.8186 90.9371 12.8602 90.9371 12.9434V14.2752C91.1868 13.859 91.4781 13.5261 91.6862 13.2764C91.9359 13.0267 92.1856 12.8186 92.3937 12.6937C92.6018 12.5272 92.8515 12.444 93.0596 12.3608C93.2677 12.3191 93.4758 12.2775 93.7255 12.2775C93.8088 12.2775 93.9336 12.2775 94.0585 12.3191C94.1417 12.3191 94.2666 12.3191 94.3914 12.3608C94.5163 12.4024 94.6411 12.444 94.7244 12.444C94.8492 12.4856 94.8908 12.5272 94.9325 12.5689C94.9741 12.6105 95.0157 12.6521 95.0157 12.6937C95.0573 12.7353 95.0573 12.8186 95.0989 12.9018C95.0989 12.985 95.0989 13.1099 95.1406 13.2764C95.1406 13.4429 95.1406 13.6509 95.1406 13.9423ZM106.336 17.8961C106.336 18.2706 106.253 18.5204 106.086 18.6868C105.961 18.8533 105.712 18.9365 105.42 18.9365H99.0527C99.0527 19.3943 99.0943 19.8105 99.2192 20.1435C99.3441 20.5181 99.5105 20.851 99.7186 21.1007C99.9683 21.3504 100.26 21.5169 100.634 21.6418C100.967 21.8082 101.425 21.8499 101.924 21.8499C102.424 21.8499 102.882 21.8082 103.298 21.7666C103.672 21.6834 104.005 21.6001 104.297 21.5169C104.588 21.392 104.838 21.3088 105.004 21.2672C105.212 21.184 105.337 21.1423 105.462 21.1423C105.545 21.1423 105.587 21.1423 105.628 21.184C105.67 21.2256 105.712 21.2672 105.753 21.3088C105.795 21.392 105.795 21.4753 105.837 21.6418C105.837 21.7666 105.837 21.9331 105.837 22.0996C105.837 22.266 105.837 22.4325 105.837 22.5574C105.837 22.6822 105.795 22.7655 105.795 22.8487C105.795 22.9319 105.753 23.0152 105.712 23.0568C105.712 23.14 105.67 23.1817 105.587 23.2649C105.545 23.3065 105.42 23.3898 105.171 23.473C104.963 23.5562 104.671 23.6811 104.297 23.7643C103.964 23.8476 103.548 23.9308 103.09 23.9724C102.674 24.0557 102.174 24.0973 101.633 24.0973C100.717 24.0973 99.8851 23.9724 99.2192 23.7643C98.5117 23.5146 97.929 23.14 97.4296 22.6822C96.9718 22.1828 96.6388 21.6001 96.3891 20.851C96.181 20.1435 96.0562 19.2695 96.0562 18.3123C96.0562 17.3966 96.181 16.5226 96.4307 15.7735C96.6388 15.066 97.0134 14.4001 97.4712 13.9007C97.929 13.3596 98.5117 12.985 99.1776 12.6937C99.8435 12.444 100.551 12.2775 101.383 12.2775C102.257 12.2775 103.048 12.4024 103.631 12.6937C104.255 12.9434 104.796 13.2764 105.171 13.7342C105.587 14.192 105.878 14.733 106.086 15.3989C106.253 16.0232 106.336 16.6891 106.336 17.4383V17.8961ZM103.464 17.0637C103.506 16.2313 103.339 15.5654 102.965 15.1076C102.632 14.6082 102.091 14.4001 101.342 14.4001C100.967 14.4001 100.634 14.4417 100.343 14.6082C100.052 14.733 99.8435 14.9411 99.6354 15.1492C99.4689 15.3989 99.3441 15.6903 99.2192 16.0232C99.136 16.3562 99.0943 16.6891 99.0527 17.0637H103.464ZM120.486 10.5712C120.486 10.6544 120.486 10.7376 120.486 10.8209C120.445 10.9041 120.445 10.9873 120.403 11.029C120.403 11.1122 120.362 11.1538 120.32 11.1954C120.278 11.1954 120.237 11.2371 120.153 11.2371C120.07 11.2371 119.904 11.1538 119.696 10.9873C119.488 10.8209 119.196 10.6544 118.822 10.4879C118.489 10.2798 118.031 10.1133 117.531 9.98849C117.032 9.82202 116.408 9.73878 115.7 9.73878C114.785 9.73878 113.994 9.90525 113.286 10.2382C112.579 10.5712 111.996 11.029 111.497 11.6116C111.039 12.1943 110.664 12.8602 110.415 13.6509C110.123 14.4417 109.998 15.3157 109.998 16.2313C109.998 17.2718 110.165 18.1874 110.456 18.9782C110.748 19.7689 111.122 20.4348 111.663 21.0175C112.163 21.5585 112.787 21.9747 113.494 22.266C114.202 22.5574 114.951 22.6822 115.783 22.6822C116.325 22.6822 116.907 22.6406 117.448 22.5158C117.989 22.3493 118.53 22.1828 119.03 21.8915V16.9805H115.118C114.993 16.9805 114.909 16.9388 114.826 16.814C114.785 16.6891 114.743 16.5643 114.743 16.3562C114.743 16.2313 114.743 16.1481 114.785 16.0648C114.785 15.9816 114.826 15.8984 114.826 15.8567C114.868 15.8151 114.909 15.7735 114.951 15.7319C114.993 15.7319 115.076 15.6903 115.118 15.6903H119.779C119.862 15.6903 119.945 15.7319 120.029 15.7319C120.112 15.7735 120.153 15.8151 120.237 15.8567C120.32 15.8984 120.362 15.9816 120.403 16.0648C120.445 16.1897 120.445 16.3146 120.445 16.4394V22.058C120.445 22.266 120.445 22.4325 120.362 22.5574C120.32 22.6822 120.153 22.8071 119.945 22.9319C119.737 23.0568 119.446 23.1817 119.113 23.3481C118.78 23.473 118.405 23.5978 118.031 23.6811C117.656 23.8059 117.282 23.8892 116.907 23.9308C116.491 23.9724 116.116 24.014 115.783 24.014C114.618 24.014 113.578 23.8059 112.704 23.4314C111.788 23.0568 110.997 22.5574 110.415 21.8915C109.79 21.184 109.291 20.3932 108.958 19.436C108.625 18.5204 108.459 17.4799 108.459 16.3562C108.459 15.1908 108.667 14.1088 109 13.1099C109.374 12.1527 109.874 11.3203 110.498 10.6544C111.164 9.94687 111.913 9.40583 112.829 9.03126C113.744 8.65669 114.743 8.44859 115.825 8.44859C116.366 8.44859 116.866 8.53183 117.365 8.61507C117.864 8.73993 118.281 8.82316 118.697 8.98964C119.071 9.1145 119.404 9.28097 119.696 9.44745C119.945 9.61392 120.153 9.73878 120.237 9.86363C120.362 9.94687 120.403 10.0717 120.445 10.155C120.486 10.2382 120.486 10.3631 120.486 10.5712ZM133.347 12.985C133.347 13.6926 133.222 14.3585 133.014 14.9411C132.764 15.5238 132.431 16.0232 131.973 16.4394C131.515 16.8972 130.974 17.1885 130.35 17.4383C129.684 17.688 128.935 17.8128 128.019 17.8128H126.063V23.5978C126.063 23.6395 126.022 23.6811 126.022 23.7227C125.98 23.7643 125.938 23.8059 125.897 23.8059C125.855 23.8476 125.772 23.8476 125.689 23.8892C125.564 23.8892 125.481 23.8892 125.314 23.8892C125.189 23.8892 125.064 23.8892 124.981 23.8892C124.898 23.8476 124.815 23.8476 124.773 23.8059C124.69 23.8059 124.648 23.7643 124.648 23.7227C124.607 23.6811 124.607 23.6395 124.607 23.5978V9.36421C124.607 9.07288 124.69 8.9064 124.815 8.78154C124.981 8.69831 125.106 8.61507 125.273 8.61507H128.352C128.644 8.61507 128.935 8.65669 129.226 8.65669C129.518 8.69831 129.892 8.78154 130.267 8.86478C130.641 8.94802 131.058 9.1145 131.432 9.36421C131.848 9.61392 132.181 9.90525 132.473 10.2798C132.764 10.6128 132.972 11.029 133.139 11.4868C133.263 11.9446 133.347 12.444 133.347 12.985ZM131.848 13.1099C131.848 12.444 131.724 11.903 131.432 11.4451C131.182 10.9873 130.891 10.6544 130.517 10.4047C130.142 10.1966 129.767 10.0717 129.351 9.98849C128.935 9.94687 128.56 9.90525 128.186 9.90525H126.063V16.5226H128.103C128.769 16.5226 129.351 16.4394 129.767 16.2729C130.225 16.1065 130.6 15.8567 130.891 15.5654C131.224 15.2741 131.432 14.8995 131.599 14.4833C131.765 14.0671 131.848 13.6093 131.848 13.1099ZM144.5 19.7273C144.5 20.3932 144.376 20.9759 144.168 21.5169C143.918 22.058 143.585 22.5158 143.127 22.8903C142.669 23.2649 142.17 23.5562 141.546 23.7227C140.963 23.9308 140.297 24.014 139.589 24.014C139.09 24.014 138.632 23.9724 138.216 23.8892C137.8 23.8059 137.425 23.6811 137.051 23.5562C136.718 23.4314 136.426 23.3065 136.218 23.1817C135.969 23.0568 135.844 22.9319 135.761 22.8487C135.636 22.7655 135.594 22.6822 135.552 22.5574C135.511 22.4325 135.511 22.266 135.511 22.0996C135.511 21.9747 135.511 21.8499 135.511 21.7666C135.552 21.6834 135.552 21.6001 135.594 21.5585C135.594 21.4753 135.636 21.4337 135.677 21.4337C135.719 21.392 135.761 21.392 135.802 21.392C135.927 21.392 136.093 21.4753 136.302 21.6001C136.468 21.725 136.759 21.8915 137.051 22.058C137.384 22.2244 137.758 22.3493 138.174 22.5158C138.632 22.6406 139.132 22.6822 139.756 22.6822C140.214 22.6822 140.672 22.6406 141.046 22.5158C141.462 22.3909 141.795 22.1828 142.087 21.9331C142.378 21.725 142.586 21.392 142.752 21.0591C142.919 20.6845 143.002 20.31 143.002 19.8522C143.002 19.3943 142.877 18.9782 142.711 18.6452C142.503 18.3123 142.211 18.0209 141.878 17.7712C141.546 17.4799 141.171 17.2718 140.755 17.0637C140.339 16.8556 139.922 16.6475 139.465 16.4394C139.007 16.2313 138.591 16.0232 138.174 15.7735C137.758 15.5238 137.384 15.2325 137.051 14.8995C136.718 14.6082 136.426 14.192 136.218 13.7758C136.01 13.318 135.927 12.8186 135.927 12.1943C135.927 11.6116 136.01 11.1122 136.26 10.6128C136.468 10.155 136.759 9.7804 137.134 9.44745C137.509 9.1145 137.966 8.86478 138.507 8.69831C139.048 8.53183 139.631 8.44859 140.297 8.44859C140.588 8.44859 140.921 8.49021 141.254 8.53183C141.587 8.61507 141.878 8.69831 142.17 8.78154C142.461 8.86478 142.752 8.98964 142.961 9.1145C143.21 9.23935 143.335 9.32259 143.418 9.40583C143.502 9.48906 143.543 9.53068 143.585 9.5723C143.585 9.61392 143.626 9.65554 143.626 9.69716C143.626 9.7804 143.668 9.82202 143.668 9.90525C143.668 9.98849 143.668 10.0717 143.668 10.1966C143.668 10.2798 143.668 10.3631 143.668 10.4463C143.626 10.5295 143.626 10.6128 143.585 10.6544C143.585 10.7376 143.543 10.7792 143.502 10.7792C143.46 10.8209 143.418 10.8625 143.377 10.8625C143.294 10.8625 143.169 10.7792 143.002 10.6544C142.836 10.5712 142.586 10.4463 142.336 10.2798C142.087 10.155 141.754 10.0301 141.379 9.90525C141.005 9.7804 140.588 9.73878 140.131 9.73878C139.673 9.73878 139.257 9.82202 138.924 9.94687C138.591 10.0717 138.299 10.2382 138.05 10.4463C137.841 10.6544 137.675 10.9041 137.55 11.1954C137.467 11.4868 137.384 11.7781 137.384 12.1111C137.384 12.5689 137.509 12.985 137.717 13.318C137.883 13.6509 138.174 13.9423 138.507 14.192C138.84 14.4417 139.215 14.6914 139.631 14.8995C140.089 15.1076 140.505 15.3157 140.963 15.5238C141.379 15.7319 141.837 15.94 142.253 16.1897C142.669 16.4394 143.044 16.6891 143.377 17.0221C143.751 17.355 144.001 17.7296 144.209 18.1874C144.417 18.6036 144.5 19.103 144.5 19.7273Z" fill="#314158"/>
</svg>
