<svg width="24" height="24" viewBox="0 0 24 24" fill="none" xmlns="http://www.w3.org/2000/svg">
<g clip-path="url(#clip0_40_782)">
<path d="M20.235 7.03918C19.7467 6.17068 19.2169 6.01093 18.138 5.95018C17.0603 5.87705 14.3501 5.84668 12.0022 5.84668C9.64987 5.84668 6.93862 5.87705 5.862 5.94905C4.78537 6.01093 4.25437 6.16955 3.76162 7.03918C3.25875 7.90655 3 9.40055 3 12.0308V12.0398C3 14.6588 3.25875 16.1641 3.76162 17.0224C4.25437 17.8909 4.78425 18.0484 5.86087 18.1216C6.93863 18.1846 9.64987 18.2217 12.0022 18.2217C14.3501 18.2217 17.0602 18.1846 18.1391 18.1227C19.218 18.0496 19.7479 17.8921 20.2361 17.0236C20.7435 16.1652 21 14.6599 21 12.0409V12.0353V12.0319C21 9.40055 20.7435 7.90655 20.235 7.03918ZM9.75 15.4092V8.65918L15.375 12.0342L9.75 15.4092Z" fill="#00A6F4"/>
</g>
<defs>
<clipPath id="clip0_40_782">
<rect width="18" height="18" fill="white" transform="translate(3 3.03418)"/>
</clipPath>
</defs>
</svg>
